<?xml version="1.0" encoding="utf-8"?>
<!-- Generator: Adobe Illustrator 26.2.1, SVG Export Plug-In . SVG Version: 6.00 Build 0)  -->
<svg version="1.1" id="Layer_1" xmlns="http://www.w3.org/2000/svg" xmlns:xlink="http://www.w3.org/1999/xlink" x="0px" y="0px"
	 viewBox="0 0 257.2 400" style="enable-background:new 0 0 257.2 400;" xml:space="preserve">
<style type="text/css">
	.st0{fill:#312C62;}
	.st1{fill:#FF06F0;}
	.st2{fill:url(#SVGID_1_);}
	.st3{fill:url(#SVGID_00000098193826044432775510000018055490854822456982_);}
	.st4{fill:#06FFF0;}
</style>
<rect x="-450.5" y="27.1" class="st0" width="336" height="406"/>
<path class="st1" d="M413.7,239c-0.1-0.9-0.4-1.7-0.5-2.6c-0.6-5.9-1.3-11.9-1.8-17.9c-0.2-2.6-0.2-5.2-0.4-7.8
	c-0.1-1.6-0.3-3.1-0.6-4.6c-0.4-1.8-1.4-3.3-3.4-3.9c-1.4-0.4-2.9-0.8-4.3-1.3c-3.8-1.2-7.6-2.2-11.2-3.8c-3.1-1.3-6-3.3-9-4.8
	c-3.8-1.9-6.3-5.1-8.6-8.4c-2.3-3.3-3.4-7.3-4.3-11.2c-1.1-4.6-1.7-9.3-2.4-14c-1.3-8.6-1.5-17.3-0.3-25.9c0.5-4.1,1.7-8.2,5.2-10.8
	c2.1-1.5,4.5-2.6,6.7-3.9c0.5-0.3,1.2-0.6,1.4-1.1c0.4-1,0.5-2.2,0.6-3.2c0-1.5-0.3-3.1-0.2-4.6c0.2-3,0.5-6.1,0.7-9.1
	c0.1-2,0.4-3.9,0.3-5.9c-0.1-2.3-0.9-3.5-3.4-3.6c-0.5,0-1.1,0-1.6-0.1c-5.3-1.1-10.7-2.2-16-3.5c-2.8-0.7-5.6-1.9-8.4-2.7
	c-2-0.6-4.1-1.2-6.2-0.6c-5.2,1.4-10.3,2.9-15.5,4.2c-3.4,0.9-6.8,1.7-10.3,2.5c-1.8,0.4-3.6,0.5-5.4,0.8c-1,0.1-1.7,0.7-1.8,1.7
	c-0.1,1.3-0.3,2.7-0.2,4c0.4,4.7,0.8,9.3,1.2,14c0.2,1.9,0.2,3.9,0.4,5.8c0.1,0.7,0.6,1.5,1.2,1.8c1,0.6,2.2,0.8,3.2,1.3
	c4.1,2,6.9,5.2,8,9.6c0.8,3.3,1.5,6.8,1.7,10.2c0.5,7.6,0.1,15.1-1.1,22.6c-0.6,3.9-1.4,7.8-2.3,11.6c-0.8,3.5-2,6.9-4,9.9
	c-3.1,4.6-7.2,7.9-12.2,10.1c-2.8,1.2-5.5,2.6-8.4,3.6c-4.1,1.5-8.4,2.7-12.5,4c-2.2,0.7-3.5,1.9-3.3,4.4c0.1,2.5,0.1,5-0.1,7.5
	c-0.3,4.6-0.6,9.2-1.1,13.8c-0.5,4.3-1.1,8.6-1.6,12.8c0,3.5,0,4.8,3.3,5.9c0.1,0,0.2,0.1,0.3,0.2c2.9,1.3,5.7,2.8,8.6,3.9
	c3.4,1.3,6.9,2.2,10.3,3.3c4.7,1.5,9.3,3.1,14,4.5c6.3,1.9,12.2,4.9,18.1,7.8c2.8,1.4,5.6,2.9,8.5,4.3c1.7,0.8,3.4,1.1,5.2,0
	c1.7-1,3.5-2.1,5.3-2.9c6.7-3,13.4-6.2,20.3-8.9c5.7-2.2,11.6-3.9,17.5-5.9c5.6-1.8,11.3-3.3,16.5-6.1
	C413.2,244.2,414.3,243.1,413.7,239z M406.8,245c-5.1,2.8-10.6,4.1-16,5.9c-5.4,1.8-10.9,3.3-16.2,5.2c-6.8,2.5-13.5,5.3-20.3,8.1
	c-1.5,0.6-3,1.3-4.5,2c-1.6,0.8-3.2,0.6-4.7,0c-2.8-1.2-5.6-2.4-8.4-3.6c-5.7-2.4-11.3-4.9-17.2-6.6c-4.5-1.3-9-2.7-13.5-4
	c-3.1-1-6.3-1.8-9.3-3c-3.7-1.4-7.2-3.2-10.8-4.8c-1.2-0.5-1.6-1.6-1.7-2.8c-0.1-0.7,0-1.3,0-2h-0.1c0.6-4.6,1.4-9.2,1.9-13.8
	c0.4-3.8,0.7-7.6,0.9-11.5c0.1-2.4,0-4.8,0.1-7.3c0.2-3.3,0.3-3.1,3.3-4.1c4.2-1.4,8.5-2.4,12.7-3.8c2.2-0.7,4.3-1.9,6.5-2.9
	c5.5-2.4,9.9-6.1,13.1-11.2c1.9-3.1,2.9-6.5,3.7-10c0.9-3.7,1.6-7.3,2.2-11.1c0.3-2,0.2-4.1,0.6-6.1c1.1-4.5,0.7-9.1,0.9-13.6
	c0.3-5.6-0.4-11.1-1.8-16.5c-1.3-5-4.6-8.5-9.6-9.9c-2.5-0.7-2.2-2.3-2.4-3.9c-0.5-4.7-0.9-9.4-1.3-14.1c-0.2-1.7-0.4-3.3-0.5-5
	c-0.2-2.2,0.7-2.9,2.4-3.3c6.6-1.3,13.1-2.8,19.7-4.2c2-0.4,3.9-1,5.8-1.6c4-1.4,7.9-0.8,11.8,0.4c4.8,1.4,9.7,2.8,14.6,3.9
	c2.5,0.6,5.1,0.7,7.6,1c2.4,0.2,3.4,1.2,3.3,3.6c-0.1,1.8-0.3,3.5-0.4,5.3c-0.3,4.5-0.6,9-1,13.4c0,0.6-0.1,1.2-0.1,1.8
	c0,1-0.6,1.6-1.5,1.9c-2.7,1.1-5.3,2.4-7.3,4.6c-2.6,2.7-3.5,6.2-3.9,9.8c-1.1,8.8-1,17.7,0.1,26.5c0.7,5.2,1.2,10.4,2.3,15.5
	c0.8,3.6,2,7.3,3.7,10.6c2.2,4.2,5.5,7.5,9.7,9.9c4.2,2.4,8.5,4.6,13.1,6c3.1,0.9,6.2,1.9,9.3,2.7c2,0.6,3,2.1,3.4,3.9
	c0.4,1.5,0.6,3.1,0.7,4.6c0.3,3.5,0.3,7,0.7,10.4c0.4,4.8,1,9.5,1.6,14.3c0.1,0.9,0.3,1.8,0.5,2.6
	C411.1,242.2,409.9,243.3,406.8,245z M375.4,242.5L375.4,242.5v-0.1V242.5z M406.9,236.8c-0.6-4.4-1.6-8.7-1.9-13.1
	c-0.3-4.5-0.1-9.1-0.1-13.7c0-2.5-0.6-4.4-3.2-5.3c-2.1-0.7-4.1-1.3-6.2-1.9c-6.8-2-13-5.1-18.7-9.3c-3.8-2.8-6.4-6.5-8-10.8
	c-1.7-4.6-2.9-9.3-3.7-14.1c-1.6-10.4-2.7-20.9-1.8-31.5c0.3-4,0.7-8,2.2-11.8c0.8-2,1.7-4,3.4-5.6c1.8-1.7,3.8-2.9,6.2-3.7
	c0.4-0.1,0.9-0.6,0.9-0.9c0.8-6.3,1.6-12.6,2.4-18.9c-0.1,0-0.2,0-0.3,0c0-0.6,0-1.1,0-1.7c-0.1-1.9-0.5-2.2-2.4-2.2
	c-1.5,0-3.1,0-4.5-0.2c-3.6-0.6-7.2-1.3-10.7-2.2c-3-0.8-5.8-1.9-8.8-2.9c-1.4-0.4-2.9-1-4.2-0.8c-2.6,0.3-5.2,1-7.8,1.7
	c-4.4,1.2-8.7,2.7-13.1,3.8c-2.7,0.7-5.4,1.3-8.3,1c-1.9-0.2-2.4,0.5-2.1,2.4c0.2,1.5,0.5,3,0.6,4.5c0.4,5.2,0.7,10.5,1.9,15.6
	c0.1,0.3,0.3,0.6,0.6,0.8c0.8,0.4,1.5,0.8,2.3,1c3.4,1.2,5.6,3.6,7,6.8c2,4.5,3,9.3,3,14.2c0.1,8,0,16-1,23.9
	c-0.7,5.3-1.7,10.6-3.1,15.8c-1.2,4.4-3,8.5-5.8,12.1c-2.6,3.2-5.9,5.6-9.5,7.7c-5.1,3-10.6,4.9-16.3,6.5c-1.7,0.5-3.3,1-4.9,1.7
	c-0.4,0.2-0.9,0.9-0.9,1.4c-0.2,1-0.1,2-0.1,3c0,3.3,0.1,6.6-0.1,9.9c-0.1,2.8-0.3,5.6-0.7,8.3c-0.6,3.8-1.3,7.7-2,11.5
	c-0.2,1.2,0.3,2.2,1.3,2.8c3.1,1.8,6.4,3,9.8,3.9c4.5,1.2,8.9,2.9,13.5,3.8c8.1,1.7,15.7,4.6,23,8.2c3.7,1.9,7.5,3.5,11.5,4.7
	c0.6,0.2,1.4,0.2,2,0c2.4-0.8,4.7-1.6,7-2.6c4.1-1.8,8-3.9,12.2-5.5c4.9-1.9,10-3.5,15-5c6.4-2,12.8-3.8,19.1-5.7
	c1.5-0.5,3.1-1.1,4.5-1.9c0.6-0.4,1.2-1.4,1.2-2.2C407.5,239.1,407.1,237.9,406.9,236.8z M390.1,203.9c-1.3,1-3.6,1.4-5,0.5
	c-2.9-1.7-5.7-3.5-8.6-5.3c0.6-0.7,1-1.2,1.4-1.7C382,199.6,386.1,201.7,390.1,203.9z M397.1,230.5c0.1,0.6-0.1,1.3-0.2,2
	c-0.6-0.2-1.2-0.3-1.7-0.6c-3.1-1.7-5.4-4.4-7.5-7.2c-0.1-0.2-0.2-0.4-0.4-0.6c-1.2-1.5-1.2-1.7,0.2-3.3c1.9,1.9,3.8,3.7,5.9,5.7
	c0.4-5,0.8-9.8,1.2-14.6c-3.8,0.1-7.2,1.3-9.8,4.6c-0.5-0.6-0.8-1.1-1.2-1.6c2.6-3.1,5.8-4.9,9.8-5.4c0.7-0.1,1.4,0,2.1,0.2
	c0.9,0.2,1.3,0.7,1.1,1.8C395.8,217.9,395.8,224.2,397.1,230.5z M379.7,228.9c-0.9-1.2-1.8-2.3-2.6-3.4c-0.1-0.1-0.1-0.3-0.3-0.4
	c-1.2-0.9-0.8-1.9,0-3c0.4,0.6,0.9,1.2,1.4,1.9c0.3-2.7,1.5-4.7,3.1-6.8c0.4,0.6,0.8,1.1,1.1,1.7c0.1,0.2,0,0.6-0.2,0.9
	c-0.7,1.3-1.4,2.7-2.2,4c-0.3,0.4-0.6,0.8-1.1,1.3C380.1,228,380.1,228,379.7,228.9z M381.3,226.2c0.7,0.8,1.3,1.5,1.8,2.1
	c0.1,0.1,0.2,0.3,0.1,0.4c-0.5,1.9-1.1,3.8-1.6,5.9c-0.6-0.5-1.1-0.8-1.5-1.2c-0.2-0.2-0.3-0.6-0.3-0.9
	C380.3,230.5,380.8,228.5,381.3,226.2z M298.4,216.2c-0.1-1.4-0.2-2.8-0.5-4.2c-0.2-1.1,0.2-1.6,1-1.7c2.9-0.6,5.7-0.1,8.2,1.6
	c-0.3,1.5-0.9,1.7-2.2,1.2c-1.3-0.4-2.7-0.5-4.1-0.7c-0.5-0.1-1,0.1-0.8,0.8c1,4.3,0.9,8.7,0.7,13.1c0,0.1,0.1,0.1,0.3,0.4
	c2.9-2.8,5.7-5.6,8.6-8.4c0,0,0.2,0.1,0.3,0.3c0.1,0.2,0.3,0.4,0.4,0.6c-3.1,4.7-6.3,9.4-11.4,12.3c-0.2,0.1-0.4,0.3-0.6,0.3
	c-0.3,0.1-0.7,0.1-1,0.1c0-0.3-0.2-0.7-0.1-1C298.2,226.1,298.8,221.2,298.4,216.2z M313.1,206.9c-0.3,0.6-0.5,1-0.7,1.5
	c-0.6-0.4-1.2-0.7-1.8-1.1c0.1-0.4,0.3-0.8,0.4-1.2c0.5-1.7,0.8-1.9,2.4-1.2c2.3,1.1,4.2,2.6,5.7,4.7c0.6,0.8-0.3,1.3-0.8,1.8
	c-0.4-0.4-0.7-0.7-1.2-1.1c-1.4,1.9-2.7,3.8-4.2,5.8c-0.3-0.4-0.6-0.7-0.9-1.1c1.2-1.8,2.4-3.5,3.6-5.3c0.4,0.3,0.7,0.4,1,0.6
	c0.1-0.1,0.2-0.2,0.2-0.3C315.6,208.9,314.4,208,313.1,206.9z M331.9,193c0.1,0.3-0.7,0.9-1.2,1.5c-2-2.4-1.6-8.1,0.4-9.5
	c0.4,0.3,0.8,0.6,1.2,0.9c0.2,0.2,0.3,0.7,0.2,0.9C331.5,188.9,331.2,190.9,331.9,193z M337,191.9c0.4-0.1,0.7-0.3,1.2-0.5
	c-2.1-1.5-4-0.7-5.9,0.1c-0.3-1-0.3-1.5,0.7-2c2.7-1.1,5.2-0.8,6.9,1c0.7,0.7,1.1,1.6,0.9,2.7c-0.3,0.1-0.7,0.2-1.1,0.4
	c-0.4-0.7-0.8-1.3-1.2-2c-0.1,0.1-0.2,0.1-0.3,0.2c0.1,0.3,0.3,0.7,0.5,1.1c-2.5,1.2-5.2,2.3-7.5,3.7c-2.4,1.5-4.5,3.4-6.7,5.1
	c-1-0.8-1-1,0-1.9C328,196.2,332.3,193.6,337,191.9z M334.6,161.8c0.8-0.3,1.6-0.5,2.5-0.8c0.2,0.6,0.5,1.1,0.6,1.7
	c0,0.2-0.2,0.6-0.5,0.7c-1.1,0.5-1.2,1.3-1.1,2.4c0.2,1.9,0.2,3.8,0.3,5.8c0,0.3,0,0.6,0.1,1.2c0.7-0.5,1.2-0.9,1.8-1.3
	c0.3,0.8,0.6,1.4,0.8,2.2c0.1,0.3,0,0.8-0.2,1.1c-0.9,1.6-2.3,2.7-4,3.4c-0.8,0.4-1.2,0.2-1.1-0.8c0.1-2,0.3-4,0.3-6
	c0.1-2.8,0.2-5.7,0.2-8.5C334.6,162.5,334.6,162.1,334.6,161.8z M341.6,144.4c-0.3,0.5-0.7,0.9-1,1.4c-0.3-1.5-0.7-3-0.9-4.5
	c-0.1-0.4,0.2-0.9,0.4-1.3c0.1,0,0.3,0,0.4,0c0.6,1.3,1.2,2.5,1.8,3.9c0.2-0.3,0.5-0.6,0.8-1c0.9,1.2,1,2.3,0.2,3.6
	c-1,1.8-2.2,3.5-2.9,5.4c-1.3,3.2-1.3,6.6-0.1,9.9c1.3,3.7,3.3,6.9,6.1,9.7c0.9,0.9,1.3,0.8,2.2-0.1c0.7-0.8,1.4-1.7,2.2-2.7
	c0.4,0.8,0.6,1.4,0.9,2c0.1,0.2,0.1,0.6,0,0.7c-1.1,1.5-2.3,3-3.4,4.5c-0.5,0.7-1.1,0.6-1.7,0c-0.7-0.8-1.3-1.7-2-2.6
	c-1.4-2-3-4-4.1-6.2c-1.1-2.1-1.7-4.4-2.5-6.6c-0.2-0.6-0.3-1.3-0.5-1.9c-0.9-2.6-0.4-5,1-7.3c1.1-1.8,2-3.6,3-5.5
	C341.5,145.3,341.6,144.9,341.6,144.4z M337.3,138.8c0.2,0,0.3,0.1,0.5,0.1c0.8-0.9,1.5-1.8,2.3-2.7c1.2,1.1,1.2,1.6,0.3,2.9
	c-1,1.3-2,2.6-2.9,3.9c-2.6-2-2.5-10.3-0.1-12.1c0.6,1.7,1.2,3.4,1.7,5.1c0.1,0.4-0.2,0.9-0.3,1.3c-0.1,0-0.2,0-0.3,0
	c-0.4-0.8-0.7-1.7-1.1-2.5c-0.2,0.1-0.4,0.1-0.6,0.2C336.9,136.1,337.1,137.5,337.3,138.8z M357.6,134.5c-1,1-1.3,2.3-1.6,3.6
	c-0.4,1.3-0.8,2.6-1.2,3.9c-0.3,1.3-0.5,2.7-0.7,4.1c-1.2-1.4-1.9-2.9-0.7-4.6c0.2-0.2,0.2-0.6,0.3-0.8c0.6-1.8,0.6-1.8-0.7-3.4
	c-0.5,1.2-1.1,2.3-1.6,3.6c-1-1.7-1.1-2.8-0.1-4c0.2-0.3,0.7-0.3,1-0.5c-0.1-0.4-0.1-0.9-0.4-1.2c-0.8-0.9-0.6-1.8-0.2-2.7
	c1,1.5,2.1,2.9,3.3,4.7c0.8-2.3,1.5-4.2,2.2-6.2c2.5,1.8,2.2,10,0.1,11.7c-1.6-1.1-1.9-2.5-0.9-4.3c1,0.5,1.1-0.2,1.2-1
	C357.6,136.4,357.7,135.5,357.6,134.5z M350.7,133.6c-0.9,3.3-1,6.6,0.8,9.6c0.8,1.4,1.9,2.6,2.7,4.1c1.2,2.2,2.4,4.5,3.4,6.8
	c0.3,0.8,0,2-0.1,3c-0.1,1.5-0.4,2.9-0.5,4.4c-0.1,1-0.7,1.6-1.2,2.3c-0.7,1.1-1.3,2.3-2,3.5c-0.8-1-1.1-1.9-0.5-3.1
	c1.4-2.9,2.2-5.9,1.8-9.2c-0.4-2.8-1.5-5.3-2.9-7.7c-0.8-1.4-1.9-2.8-2.6-4.2c-2.1-4-1.9-8.2-0.3-12.3c0.5-1.2,0.9-2.5,1.5-3.8
	c0.8,0.4,1.5,0.8,2.2,1.2C352.1,130,351.2,131.7,350.7,133.6z M350.3,165.6c-0.6-2.4-0.4-4.8-0.4-7.3c2.1,1.3,2.3,3.3,2.2,5.3
	c-0.1,1.6,0.6,3,1.3,4.3c1,1.7,1.9,3.4,3.6,4.4c0.2,0.1,0.5,0.3,0.8,0.4c0.1-2,0.2-4,0.3-5.9c0.1-1.8,0.6-3.5,1.2-5.2
	c0.1,0,0.3,0.1,0.4,0.1c0.1,1.9,0.2,3.9,0.3,5.8c0.1,2.8,0.2,5.5,0.3,8.3c0,0.7-0.2,1.4-0.3,2.1c-0.7-0.3-1.4-0.4-2-0.8
	C354.3,174.1,351.6,170.4,350.3,165.6z M353.4,176.4c-1.6,2.2-2.8,4.6-4.3,6.7c-1.4,2-1.7,1.9-3.3,0.1c-2.2-2.5-4-5.3-5.2-8.4
	c-1.2-3-2.3-6-3.5-9c-0.4-1-0.5-1.7,0.8-1.9c1.1,2.6,2.2,5.3,3.3,7.9c1,2.5,2.5,4.7,4.5,6.6c1.3,1.3,2.2,1.2,3.3-0.2
	c1.3-1.7,2.5-3.4,3.8-5.1c0.1-0.2,0.3-0.3,0.4-0.4C354.5,173.9,354.4,175,353.4,176.4z M353.2,151.9c-0.3,1.5-0.6,3-0.8,4.5
	c-1-0.7-1.7-2.3-1.5-3.5c0.3-1.6,0.5-3.1,0.8-4.7c0.1,0,0.2,0,0.3-0.1C352.7,149.3,353.5,150.4,353.2,151.9z M348.6,142.8
	c0.8,1.6,1.7,2.9,1.3,5c-0.9,4.3,0.2,8.2,3.7,11.1c0.9,0.7,0.2,1.4,0.1,2.2C348.5,157.1,346.7,151.1,348.6,142.8z M349.1,160.1
	c0.1,0,0.2,0,0.2,0c0,0.4,0,0.9,0,1.3c0,1.3,0.1,2.7,0.2,4c0.1,1.7-1,2.8-2.3,4.4c-0.2-0.4-0.5-0.8-0.7-1.2
	c-2.1-3.1-3.4-6.6-4.2-10.2c-0.4-1.9-1-3.8-1.3-5.7c-0.1-0.5,0.1-1.1,0.3-1.5c0.4-0.8,0.8-1.5,1.4-2.2c0.1,5.2,1.3,10.1,4.6,14.6
	C347.9,162.3,348.5,161.2,349.1,160.1z M344.3,167.7c-1.7-1.3-2.4-3.3-1.7-4.8C343,164.5,344.5,165.7,344.3,167.7z M340.8,160.9
	c-0.6-1.7-0.6-1.7,0.9-2.6C341.8,159.3,342.1,160.3,340.8,160.9z M334.2,180.8c1.4-1.4,2.8-2.7,4.3-4.1c2.9,4,6.9,7.3,7.3,12.6
	c-0.2,0-0.3,0.1-0.4,0.1c-2,0.2-2,0.2-2.5-1.7c-0.6-2.4-1.6-4.5-3-6.5c-0.7-0.9-1.3-1-2.1-0.4c-0.9,0.7-1.8,1.4-2.6,2.1
	c-0.3,0.2-0.5,0.4-0.7,0.6C333.1,182.2,333,182,334.2,180.8z M347.7,189.9c-0.1,1-0.2,1.5-0.2,1.9c-1.9,0.1-3.7,0.2-5.8,0.3
	c-0.1-0.3-0.3-0.8-0.6-1.6C343.4,190.4,345.5,190.2,347.7,189.9z M355.2,196.7c1,0.3,1.9,0.5,2.9,0.8c0,0.1-0.1,0.3-0.1,0.4
	c-1.6,0.6-3.1,0.5-4.6-0.1c-0.3-0.1-0.7-0.7-0.7-1.1c0.1-1.2,0.4-2.3,0.7-3.6c0.6,0.1,1,0.2,1.6,0.3c-0.2,0.7-0.3,1.4-0.5,2.1
	C354.2,196.4,354.7,196.6,355.2,196.7z M374.2,201.1c0.5-0.5,0.8-1,1.3-1.5c1.2,1,2.3,1.9,3.4,2.9c0.2,0.2,0.3,1,0.1,1.2
	c-1.7,1.4-3.5,2.8-5.3,4.2c-1.4-1.5-1.4-1.6,0.2-3c0.6-0.5,1.2-1,1.8-1.5c0.1-0.1,0.2-0.3,0.3-0.4
	C375.3,202.3,374.8,201.8,374.2,201.1z M374.1,217.8c0.4,0.7-0.1,1.8-0.2,2.8c-0.2,0-0.3,0-0.5,0.1c-0.7-1.1-1.5-2.3-2.2-3.4
	c-0.2-0.3-0.1-0.8,0.1-1.1c1.2-2,2.5-4.1,3.8-6.1c0.1-0.1,0.6-0.2,0.8,0c0.3,0.2,0.4,0.5,0.7,0.9c-0.6,0.8-1.3,1.5-1.9,2.3
	C373.8,214.5,373.1,215.9,374.1,217.8z M369,207c0.5-0.5,1.1-0.9,1.7-1.5c1.2,1.5,2.4,3.1,3.6,4.7c-0.5,0.6-0.9,1.1-1.3,1.6
	C371.7,210.1,370.4,208.6,369,207z M369.5,211.8c-0.8-1.1-0.7-1.5,0.3-2.5C371.2,210.5,371.2,210.8,369.5,211.8z M367.6,207.6
	c-0.7-0.7-1-1.3-0.1-2.1s1.6-1.8,2.5-2.9c0.4,0.4,0.7,0.7,1.1,1.1C370,205,368.8,206.3,367.6,207.6z M375.8,212.9c0.1,0,0.3,0,0.4,0
	c1.2,1.7,2.4,3.3,3.4,5.1c0.3,0.5-0.4,1.4-0.6,2.1l-0.6,0.1c-1.1-1.9-2.3-3.8-3.3-5.7C375,214.1,375.6,213.4,375.8,212.9z
	 M379.2,216.1c-0.4-0.6-1.1-1.3-1.2-2c-0.1-0.6,0.6-1.3,0.9-1.8c-1.3-1.6-2.5-3.1-3.9-4.8c0.5-0.4,0.9-0.8,1.5-1.2
	c0.9,1.2,1.8,2.4,2.8,3.6c0.9,1.1,0.9,1.1,1.9,0.1c0.3-0.3,0.6-0.5,1-0.9c0.4,1,0.7,1.8,1,2.5C381.8,213.2,380.5,214.6,379.2,216.1z
	 M373.1,204.7c-3.3-2.9-6.5-5.8-9.8-8.6c0.8-0.8,1.2-1,2.2-0.2c2.7,2.3,5.3,4.7,7.9,7C374.5,203.8,373.5,204.3,373.1,204.7z
	 M363.1,195.6c-0.8,0.7-1.6,1.4-2.5,0.3c0.8-1,1.5-1.9,2.3-2.9C364.6,193.8,364.6,194.2,363.1,195.6z M364.6,199.7
	c1.3,1,2.6,2.2,3.9,3.5c-0.5,0.6-0.9,1.1-1.3,1.5c-4-3.3-7.2-7.5-12.3-9c0-1.6,0-1.6,1.3-1.1C359.5,195.7,362,197.7,364.6,199.7z
	 M352.5,195.1c-1.7-0.1-3.4-0.1-5.1-0.4c-0.3,0-0.4-0.9-0.6-1.6c2.3,0.2,4.1,0.4,6,0.5C352.6,194.1,352.6,194.5,352.5,195.1z
	 M350.4,197.1c-2.2,0.5-2.6,0.2-2.2-1.7c0.7,0,1.3,0.1,2.1,0.1C350.4,196,350.4,196.6,350.4,197.1z M346.5,192.5
	c-0.1,1.5-0.1,3-0.3,4.4c-0.1,0.9-0.9,0.7-1.4,0.6c-0.3-0.1-0.7-0.5-0.7-0.8c-0.2-0.9-0.1-1.8-0.3-2.8c-0.2-1.2-0.1-1.4,1.1-1.4
	C345.4,192.5,345.8,192.5,346.5,192.5z M343.2,193.2c0,0.8,0.1,1.1,0.1,1.3c-1.6,0.5-3.2,1.1-4.7,1.4c-0.6,0.1-1.4-0.2-2-0.3
	c0-0.1,0-0.2-0.1-0.4C338.6,194.6,340.8,194,343.2,193.2z M324.1,208.5c-0.5-0.4-1-0.9-1.6-1.4c1.2-1.3,2.2-2.6,3.4-3.7
	c1.9-1.7,4-3.3,5.9-5c1-0.9,1.8-0.5,2.8,0.3C330.7,201.5,327,204.5,324.1,208.5z M327.2,207.7c-1.2-0.6-1.2-0.8,0-1.7
	C328.3,206.6,327.6,207.1,327.2,207.7z M318.9,218.3c0.1,0.3-0.2,0.8-0.3,1.2c-0.2,0.4-0.5,0.8-0.8,1.1c-1.1-1.9-2.1-3.7-3.2-5.7
	c0.3-0.5,0.8-1.1,1.5-2C317.2,214.8,318.1,216.5,318.9,218.3z M318.5,212.7c0.9-1.1,1.5-2.4,2.3-3.7c0.5,0.6,1,1.1,1.4,1.5
	c-1.2,1.7-2.4,3.4-3.6,5.1C317.8,214.6,317.5,213.8,318.5,212.7z M317.8,221.9c1-1.4,1.9-2.9,2.7-4.4c0.5-0.8,0.5-1.7,0.2-2.7
	c-0.2-0.4,0.3-1.1,0.5-1.9c2.8,4.1,2.7,4.1-0.1,7.6c-1.1,1.4-2.2,2.9-3.4,4.5C316.9,223.5,317,223.1,317.8,221.9z M320.2,207.3
	c0.2-0.2,0.4-0.5,0.7-1c1.6,1.5,3.2,2.8,4.8,4.2c-0.2,0.4-0.5,0.9-0.9,1.7C323.1,210.5,321.7,208.9,320.2,207.3z M321.5,202.8
	c0.3,0.4,0.6,0.7,0.9,1c-1.2,1.5-2.4,2.9-3.8,4.5c-0.2-0.3-0.5-0.6-0.8-1C319,205.7,320.2,204.3,321.5,202.8z M320.9,200.9
	c0.3-0.4,0.6-0.7,1-1.1c1,1.2,2,2.4,3.1,3.6c-0.4,0.4-0.6,0.7-1,1.1C322.8,203.3,321.9,202.1,320.9,200.9z M332.4,196.5
	c1.1-0.5,2-1,3.1-0.4c0.8,0.4,1.8,0.5,2.7,0.7c0.7,0.1,1.4,0.2,1.9-0.6c0.2-0.3,0.8-0.4,1.3-0.6c0.9,1.8,0.6,2.4-1.3,2.5
	C337.4,198.3,334.9,197.8,332.4,196.5z M328.1,194.1c-3.6,2.4-7,5.1-9.6,8.5c-0.2,0.2-0.3,0.4-0.5,0.7c0.4,0.5,0.7,0.9,1,1.4
	c-0.7,1.1-0.8,1.1-1.6,0.4c-1.9-1.8-1.8-1.7-0.1-3.6c3.1-3.3,6.8-6,10.5-8.7c0.2-0.2,0.5-0.3,0.8-0.4
	C329.3,193.3,328.7,193.7,328.1,194.1z M313.2,218c0.1,0.1,0,0.5-0.1,0.7c-0.3,0.5-0.6,1-0.9,1.4c-1-1.2-1.9-2.2-2.8-3.3
	c-0.5-0.6-0.2-2,0.5-2.3c0.2-0.1,0.6,0,0.7,0.2C311.6,215.8,312.4,216.9,313.2,218z M307.6,216.9c-0.4-0.1-0.8-0.2-1.1-0.3
	c0,0.1-0.1,0.1-0.1,0.2c0.7,0.5,1.3,1.1,2,1.7c-0.5,0.6-0.8,1.1-1.1,1.5c-0.9-1.3-1.9-2.4-3.5-3.3c0,1,0.1,1.6,0.1,2.4
	c0.5-0.3,0.8-0.4,1.1-0.6c0.3,0.4,0.6,0.7,1,1.1c-1.1,1.3-2,2.7-3.8,3.2c0.2-2.7,0.3-5.4,0.5-8.1c1.3-0.1,2.1,1,3,1.6
	c0.8-1.6,1.6-3.2,2.4-4.7c0.1-0.2,0.7-0.2,0.9-0.1c0.5,0.3,0.9,0.7,1.4,1.1C309.5,213.9,308.5,215.4,307.6,216.9z M309.9,221.1
	c0.1,0,0.2,0,0.3,0c0.9,1.9,1.9,3.8,2.5,5.9c0.2,0.6-0.7,1.5-1.3,2.4c-1-2.2-1.9-4.1-2.5-6.1C308.8,222.7,309.6,221.8,309.9,221.1z
	 M312.7,225.1c-0.4-1-0.8-1.7-1.1-2.5c-0.1-0.1,0-0.4,0-0.5c1.1-1.6,2.2-3.2,3.4-4.9c1.3,1.4,1.5,1.9,0.6,3.4
	S313.7,223.6,312.7,225.1z M316,222.1c0.7,2.1,1.3,4.2,2,6.2c0.4,1.2,0,1.9-1,2.6c-0.2-0.6-0.4-1-0.6-1.6c-0.5-1.5-0.9-3-1.6-4.4
	C314.2,223.6,315.4,223,316,222.1z M317.2,231.9c0.9-0.6,1.7-1.5,2.5-2.3c0.9,1.3,1,1.5-0.1,2.8c-0.9,1.1-2.1,2.1-3.1,3.2
	C315.6,234,315.7,232.8,317.2,231.9z M319.4,233.7c1.2,3.1,2.3,6.1,3.5,9c-1.9-0.6-3.4-2.1-3.9-4.4c-0.1-0.5-0.1-1.1-0.4-1.6
	C317.8,235.4,318.5,234.6,319.4,233.7z M322.6,234.5c-1-3-1.8-6.1-2.8-9c-0.6-1.6,0.4-2.3,1.4-3.5c0.6,2,1,3.8,1.6,5.5
	c1,2.6,1.9,5.3,3.1,7.7c1.6,3.1,4,5.7,7.1,7.6c2.9,1.7,5.9,3.3,9.2,4.3c0.1-1.2,0.2-2.3,0.2-3.6c0.9,0.2,1.8,0.3,2.6,0.5
	c0.3,0.1,0.6,0.5,0.6,0.8c0,3.3,0,6.5,0,9.8c-0.1,0.1-0.3,0.1-0.4,0.2c-1.5-0.7-3-1.4-4.5-2.1c-2.8-1.2-5.5-2.6-8-4.3
	C327.7,244.9,324.5,240.2,322.6,234.5z M338.5,241c-5.2-2-8.7-5.7-11.5-10.3c-1.8-3-3-7.8-2.8-11.4c0.8-8.3,4.7-14.6,12.1-18.7
	c3-1.7,6.3-2.6,9.7-2.7c5.9-0.1,11.5,1.1,16,5.2c4.9,4.4,7.9,9.9,8.1,16.6c0.2,5.3-1.6,9.9-4.8,14.1c-1.7,2.2-3.6,4.4-6.1,5.6
	c-2.5,1.2-5.1,2.3-7.8,2.9C347.1,243.4,342.7,242.7,338.5,241z M349.6,244c0.7,0,1.5-0.2,2.3-0.3v3.5c9-3.1,16.4-7.7,18.8-17.9
	c0.8,0.7,1.3,1.2,1.9,1.8c0.1,0.1,0.2,0.5,0.1,0.7c-1,3.2-2,6.4-3.9,9.3c-1.7,2.6-3.8,4.6-6.2,6.5c-4,3-8.5,5.1-13.1,7.1
	c-0.1,0-0.2,0-0.6,0.1c-0.1-1.1-0.3-2.1-0.3-3.1c-0.1-2.2,0-4.3-0.1-6.5C348.5,244.3,348.8,244,349.6,244z M370.5,227.4
	c-0.3-0.4,0-1.3,0.1-2c1.5,1.4,2.9,2.8,4.3,4.1c0.9,0.9,0.1,1.6-0.1,2.8C373.2,230.5,371.8,229,370.5,227.4z M375.2,224.3
	c-0.5,1.1-0.9,2.2-1.3,3.4c-1.6-1.5-1.7-1.5-1-3.3c0.9-2.3,1.9-4.6,3-7.2c0.6,1,1,1.6,1.4,2.3c0.1,0.2,0,0.6-0.1,0.8
	C376.5,221.7,375.8,223,375.2,224.3z M380.9,215.2c0.3-0.5,0.6-1,0.9-1.4c1.2,1.6,2.4,3.1,3.6,4.8c-0.4,0.5-0.9,1-1.4,1.6
	C382.9,218.4,381.9,216.8,380.9,215.2z M383.8,221.9c0.9-1.3,1.9-2.6,2.9-4.1c0.5,0.6,0.8,0.9,0.9,1.1c-0.9,1.7-1.7,3.4-2.6,5.1
	c-0.3-0.4-0.7-0.9-1.1-1.5C383.7,222.4,383.7,222.1,383.8,221.9z M389.6,216.7c-0.1-0.1-0.2-0.2-0.3-0.3c0-0.3-0.1-0.7,0-0.8
	c0.6-0.4,1.3-0.7,1.9-1c0.2,0.3,0.4,0.7,0.4,1c0.2,1.7,0.3,3.3,0.4,5c0,0.4,0,0.8,0,1.1c-0.1,0.1-0.2,0.1-0.4,0.2
	c-0.9-0.7-1.8-1.3-2.6-2.1c-0.8-0.8-1.5-1.7-2.1-2.6c-1-1.3-0.9-1.6,0.6-2.5c0.8,1.2,1.6,2.3,2.3,3.4c0.1,0,0.3-0.1,0.4-0.2
	c0.1-0.5,0.2-1.1,0.3-1.8C390.2,216.5,390,216.6,389.6,216.7z M384.6,213c-1-2.2-2-4.3-3-6.6c-1,0.8-1.7,1.3-2.6,2
	c-0.4-0.4-0.7-0.9-1.2-1.5c1.3-0.8,2.4-1.7,3.6-2.4c0.3-0.2,1.1,0.1,1.3,0.4c0.6,0.8,1,1.8,1.4,2.7c0.6,1.3,1.3,2.6,1.9,4.1
	C385.7,212.1,385.2,212.5,384.6,213z M365.1,180c1.6,5.8,4.6,10.8,9.1,14.7c0.9,0.8,1.9,1.4,3,2.2c-1.4,1.5-2.7,2.9-4.1,4.3
	c-0.1,0.1-0.8-0.3-1-0.4c0.2-0.7,0.4-1.1,0.6-1.6l0,0c-0.3-0.2-0.6-0.2-0.8-0.5c-3.1-3.1-6.7-5.4-10.4-7.7c-1.8-1.1-3.5-1.1-5.4,0.1
	c1.9,0.7,3.7,1.4,5.5,2.1c-0.3,1-0.8,1.4-1.8,1.1c-2.8-0.8-5.5-1.6-8.5-2.5c0.1-0.4,0.2-1,0.3-1.7c1.3,0.3,2.5,0.6,3.7,0.8
	c0-0.1,0.1-0.2,0.1-0.2c-0.2-0.2-0.4-0.4-0.7-0.6c1.2-1.2,2.6-1.9,4.2-1.5c1.4,0.3,2.8,0.9,4.2,1.4c0.1-0.1,0.2-0.1,0.3-0.2
	c-1-1.9-1.8-4-3.1-5.7c-1.2-1.4-3-2.4-4.5-3.5c-0.6-0.4-1-0.2-1.3,0.4c-1.4,2.2-2.6,4.5-3.1,7.1c-0.3,1.5-0.6,2.9-0.9,4.4
	c-0.8-0.1-1.6-0.2-2.4-0.3c0.3-6.4,3.9-11.1,7.8-15.8c1,0.9,1.9,1.7,2.8,2.6c2.8,2.9,5.2,6.1,6.1,10.2c0.1,0.6,0.5,1.3-0.8,1.4
	c0.7,0.4,1.1,0.7,1.6,1c2.4,1.7,4.7,3.5,7.1,5.2c0.6,0.4,0.6,0.9,0.6,1.5l0,0c1.1-1.1,1.2-1.3,0-2.4c-1.5-1.5-3.3-2.9-4.6-4.6
	c-1.5-2-2.5-4.3-3.8-6.5c-0.3-0.5-0.5-1-1-1.8c-0.2,0.3-0.3,0.6-0.6,1c-0.5-0.7-1-1.3-1.5-1.9c0.8-1.2,1.6-2.4,2.5-3.9
	C364.7,179.1,364.9,179.5,365.1,180z M356,185.9c1.2-0.4,2.4-0.7,3.7-1.1c0.2,0.3,0.5,0.7,1.1,1.5c-2.3,0.8-4.4,1.6-6.6,2.3
	c-0.7,0.2-1.2-0.1-0.8-0.9c0.5-1.2,0.9-2.4,1.6-3.4c1-1.8,1.9-1.7,3,0.2C356.9,184.1,355.7,183.8,356,185.9z M364,175.2
	c0.3,1.6-0.6,2.5-1.5,3.6c-0.2-1.7-0.5-3.4-0.7-5.2c-0.5-4.1-1-8.1-1.2-12.2c-0.1-1.5,0.3-3.1,0.5-4.7c0.1,0,0.2,0,0.3,0
	c0.3,2.8,0.6,5.6,1,8.4C362.8,168.6,363.3,171.9,364,175.2z M361.3,133.3c-0.6-2.5-0.1-4.6,1-6.7c0.1,0,0.3,0.1,0.4,0.1
	c-0.4,2-0.8,4-1.2,6C361.5,132.8,361.4,133,361.3,133.3z M362.7,118.4c-1.9,0.9-2,0.9-2.2-1.2c-0.2-2.4-0.3-4.9-0.4-7.3
	c-0.1-1.1-0.2-2.2-0.4-3.3c0-0.3-0.4-0.6-0.7-0.7c-3-0.9-7-0.8-10,0.5c0.3-0.5,0.6-1,1-1.3c0.6-0.4,1.3-0.7,2-0.8
	c2.7-0.3,5.5-0.3,8.2,0.5c0.3,0.1,0.6,0.8,0.6,1.2c0.3,3.3,0.4,6.7,0.6,10c0,0.4,0.1,0.7,0.2,1.3c0.7-0.5,1.2-0.8,1.7-1.1
	c1,1.9-0.1,4.8-2.5,6.5C360.4,120.8,362.9,120.1,362.7,118.4z M354.7,116.3c-0.4,0-0.7,0-1.1,0c-0.3,0-0.7,0.2-1.1,0.3
	c0.5-1,3.1-2.4,3.9-2.2c0.2,0.1,0.5,0.5,0.4,0.8c-0.2,1.4-1.1,2.4-2.3,2.9c-1.8,0.8-3.7,1.5-5.5,2.3c-0.6,0.3-1.2,0.5-1.7,0.8
	c-1.6-0.6-3.3-1-4.8-1.7c-1.4-0.7-2.8-1.5-4-2.5c-0.6-0.5-0.8-1.5-1.2-2.3c1.7-0.4,4,0.7,4.6,2c-0.8-0.2-1.6-0.4-2.5-0.6
	c-0.1,0.1-0.1,0.2-0.2,0.4c0.5,0.4,0.9,0.9,1.5,1.1c1.4,0.4,2.9,0.7,4.3,1c0.8,0.2,1.2-0.2,1.3-1c0.1-3.7,0.2-7.4,0.2-11.2
	c0-0.5-0.3-1.2-0.7-1.6c-1.9-1.7-2.4-3.8-2.4-6.2c0-3.3,1.5-5.9,3.9-8.2c1.9,2,3.3,4.2,3.7,7c0.3,2.1,0.2,4.1-0.9,6
	c-0.2,0.3-0.3,0.6-0.6,0.8c-1.3,0.9-1.5,2.1-1.5,3.5c0.1,3.3,0.1,6.6,0.2,9.8c0,1,0.4,1.3,1.3,1c1.7-0.5,3.5-1,5.2-1.5
	C354.7,116.6,354.7,116.4,354.7,116.3z M333.7,119.4c-0.7-0.4-1.2-0.7-1.7-1c-0.7,1.9,1.8,2.6,1.5,4.3c-2.3-1-3.2-3.7-2.4-7.1
	c0.6,0.4,1.1,0.7,1.8,1.2c0.2-1.9,0.3-3.7,0.4-5.5c0.1-2,0.2-3.9,0.4-5.9c0-0.2,0.4-0.6,0.7-0.7c2.6-0.2,5.2-0.4,7.8-0.6
	c1.5-0.1,2.5,0.7,3.2,2.2c-3.6-1.4-7.2-1.3-10.8-0.3C334.6,110.5,334.1,114.8,333.7,119.4z M333.9,103.6c2.7-1.3,5.5-2.5,8.4-3.8
	c0.3,0.9,0.6,1.9,0.9,3c-3.1,0.4-6.1,0.7-9.1,1.1C334,103.8,334,103.7,333.9,103.6z M351.4,103c0.3-1.2,0.6-2.2,0.9-3.1
	c2.7,1.2,5.4,2.4,8,3.5c0,0.1,0,0.1,0,0.2C357.4,103.4,354.5,103.2,351.4,103z M364.2,114.4c-0.2-3.2-0.3-6.3-0.5-9.5
	c1.1-0.3,1.6,0.1,1.7,1c0.2,2.4,0.4,4.7,0.4,7.1c0,0.5-0.8,1-1.3,1.6C364.5,114.5,364.3,114.5,364.2,114.4z M373.2,115.4
	c-3.1,1.4-5.9,3.2-7.5,6.4c-0.1,0.2-0.2,0.4-0.3,0.6c0,0.1-0.1,0.1-0.3,0.2c-0.8-2.1-0.1-3.3,2-5.1c1.1-0.9,2.4-1.6,3.7-2.3
	c1.6-0.9,3.2-1.7,4-3.6C375.3,113.3,374.7,114.6,373.2,115.4z M371.8,100.6c0.2,2.1-0.6,3.4-2.5,4c-0.5-0.8-0.9-1.5-1.4-2.1
	c-0.6-0.8-0.3-2.9,0.6-3.3c1-0.5,2-1.1,3.6-1c-0.9,1.2-1.5,2.2-2.4,3.5C370.6,101.3,371.2,101,371.8,100.6z M370.8,104.9
	c0.2,2.7-0.2,3.6-1.8,4.2C369.5,107.6,368.4,105.6,370.8,104.9z M371.6,106.3c0.1-0.3,0.7-0.3,1.1-0.5c0.6-0.3,1.3-0.6,1.9-0.9
	c0.6,1.5,0.1,3-1.1,3.6c-0.8,0.4-1.6,0.8-2.8,1.4C371,108.6,371.3,107.4,371.6,106.3z M374.1,109.7c0,2-2.1,3.8-4.2,3.8
	C370.4,111.4,371.5,109.8,374.1,109.7z M374.2,104.2c-0.8,0.4-1.7,0.9-2.6,1.4c-0.2-2.2,1.6-4.7,4.1-4.5
	C375.9,102.5,375.5,103.5,374.2,104.2z M372.7,100.9c-0.3-2.7,0.7-3.8,3.4-3.8C376.5,99.2,375.7,100.1,372.7,100.9z M373.3,94.1
	c0.9-0.2,1.7-0.5,2.6-0.7c0.8-0.2,1.1,0.2,0.8,0.9c-0.4,1-1,1.7-2,2c-2.1,0.6-4.2,1.3-6.3,1.9c-1,0.3-1.5,0.7-1.5,1.8
	c0,1.2-0.1,2.2,0.9,3.3c0.7,0.8,0.7,2.3,0.8,3.6c0.1,1,0,2.1,0,3.2c0.5-0.1,1-0.2,1.5-0.3c0.3,2.1-1,4.5-2.8,5c0-1.3,0.1-2.6,0-3.9
	c-0.2-1.7-0.5-3.5-0.8-5.2c-0.2-1.2-1-1.9-2.1-2c0-2.3,0-4.5,0-6.7c0-0.3,0.4-0.7,0.6-0.8C367.8,95.5,370.6,94.8,373.3,94.1z
	 M368.8,94c-2.1,1.5-7.6,0.4-9.9-2.1C362.2,92.7,365.5,93.4,368.8,94z M346.2,87.9c0.4-0.2,1.1-0.2,1.5,0c2,0.7,3.9,1.5,5.8,2.2
	c5.3,1.8,8.3,5.6,8.9,11c0.5,4.5,0.7,9,0.9,13.5c0,0.4-0.4,0.7-0.6,1.1c-0.1,0-0.2-0.1-0.3-0.1c-0.1-1.5-0.2-3-0.4-4.5
	c-0.3-3.5-0.4-7-0.9-10.4c-0.4-2.7-1.5-5.2-4.1-6.7c-1-0.6-2-0.9-3.5-0.7c0.6,0.3,0.9,0.6,1.3,0.8c1.9,0.8,3.7,1.9,4.5,3.9
	c0.4,0.9,0.3,2.1,0.4,3.1c-1-0.1-2,0.1-2.8-0.3c-2.3-0.9-4.2-2.4-5.1-4.9c-0.1-0.4-0.2-0.8-0.1-1.3c1.9,1.8,3.3,4.1,6.1,4.4
	c0.2-1.3-0.6-2.4-2.2-3.3c-1.3-0.7-2.5-1.5-3.6-2.4c-0.5-0.3-0.7-1-1.2-1.6h2.7c0-0.1,0-0.2,0.1-0.3c-1-0.4-2-0.7-3.1-1.2
	c-0.1,0.8-0.1,1.5-0.2,2.5c-1.1-1.4-2.1-2.7-3.2-4.1c-1,1.2-2,2.4-3.2,3.8c-0.1-0.8-0.1-1.4-0.2-2.1c-0.8,0.3-1.5,0.6-2.5,1
	c0.8,0.3,1.4,0.5,2.1,0.7c-0.5,1.2-1.5,1.7-2.4,2.4c-1.3,1-3,1.5-3.9,3c-0.2,0.3-0.3,0.6-0.5,1.1c3.2,0.2,4.2-2.7,6.3-3.9
	c0.1,0,0.2,0.1,0.3,0.2c-0.6,1.1-1.1,2.2-1.9,3.2c-1.2,1.5-2.8,2.5-4.7,3c-0.2,0-0.4,0.1-0.5,0.2c-1.4,0.3-1.7-0.1-1.6-1.5
	c0-1.7,0.9-2.9,2.2-3.9c1-0.7,2.1-1.4,3.1-2.2c0-0.1-0.1-0.3-0.1-0.4c-0.5,0.1-1,0-1.5,0.2c-2.3,1-4,2.6-4.4,5
	c-0.8,5.5-1.4,11.1-2,16.7c-0.9,0-1-0.2-0.9-1.2c0.1-2.4,0.2-4.8,0.3-7.3c0.1-3.4,0.6-6.7,1.8-9.9c0.8-2.3,2.6-4,4.7-5.1
	C340.5,90.3,343.4,89.1,346.2,87.9z M336.2,91.7c-1.3,2.1-7.6,3.8-9.5,2.4C329.9,93.3,333,92.5,336.2,91.7z M317.6,93.4
	c4.1,1,8.1,2,12.3,3v7.6c-1.9,0.3-1.9,2-2,3.4c-0.1,2.1,0,4.2,0,6.2c0,0.5,0,0.9,0,1.4c-2.3-0.4-3.7-2.7-3.2-5.7
	c0.6,0.5,1.1,0.8,1.5,1.1c0-1.4-0.1-2.9,0-4.5c0.1-1.2,0.7-2.4,0.9-3.6c0.1-1.2,0-2.4-0.1-3.6c0-0.2-0.6-0.3-1-0.4
	c-2.3-0.7-4.7-1.4-7-2.2C317.5,95.7,317.3,95.1,317.6,93.4z M322.6,98.6c1,0.3,2,0.5,3.1,0.8c0.6,0.2,1,2,0.7,2.6
	c-0.5,1-0.9,1.9-1.4,2.9c-1.6-0.2-2.4-1.1-2.4-3.2c0.4,0.2,0.7,0.3,1.1,0.5C323.1,101,322,100.2,322.6,98.6z M325.2,105.6
	c0.1,1.1,0.2,2.3,0.3,3.5c-2-1-2.3-1.5-2.5-3.9C323.7,105.4,324.4,105.5,325.2,105.6z M318.3,97.4c1.2,0.4,2.3,0.7,3.3,1.1
	c0.1,0.9,0.1,1.8,0.2,2.7C319.1,100.8,318,99.8,318.3,97.4z M318.6,101.2c1.1,0.3,2.1,0.5,3,1c0.4,0.3,0.5,1.1,0.7,1.8
	c0.1,0.3,0,0.7-0.1,1.1C319.4,104.4,318.3,103.4,318.6,101.2z M319.1,106.2c-0.1-0.7,0-1.1,0.7-0.9c1.2,0.3,2.7,0.2,2.8,2.1
	c0,0.5,0.7,0.9,1.1,1.4c0.2,0.3,0.2,0.6,0.3,0.9c-0.1,0-0.2,0.1-0.3,0.1c-0.7-0.3-1.5-0.6-2.2-0.9
	C320.2,108.3,319.3,107.6,319.1,106.2z M324.5,113.9c-1.8-0.6-3.8-1-4.4-3.2c-0.1-0.3-0.1-0.9,0.1-1c0.2-0.2,0.7-0.1,1,0
	c0.8,0.3,1.6,0.6,2.3,0.9C323.9,111.7,324.2,112.7,324.5,113.9z M329.2,121.4c-2-3-5.1-4.3-8.1-5.8c-1.3-0.6-1.7-1.7-1.4-3.4
	c1.8,2.2,4.4,3,6.6,4.4c0.6,0.4,1.1,0.7,1.7,1.1C329.1,118.6,329.8,119.6,329.2,121.4z M330.3,112.8c0,0.4-0.1,0.9-0.2,1.4
	c-0.9-0.3-1.5-0.8-1.5-1.7c0.1-2,0.1-4.1,0.3-6.1c0-0.6,0.3-1.3,1-1c0.4,0.1,0.8,0.8,0.7,1.2C330.6,108.6,330.4,110.7,330.3,112.8z
	 M330.8,124c-0.3-0.4,0-1.4,0-2.1c1.2,1.1,2.4,2.2,3.8,3.5c0.3-2.9,0.6-5.5,0.7-8.1c0.2-3,0.2-6,0.3-8.9c0-1.5,0.3-2,1.8-1.8
	c2.3,0.2,4.6,0.8,6.9,1.2c0.3,0.1,0.6,0.5,0.7,0.8c0.2,2.1,0.3,4.2,0.4,6.3c0,0.6-0.2,1.2-0.5,1.9c-1.8-3.1-5.2-2.5-8-4.1
	c0,1.5-0.1,2.8,0,4.1c0,0.4,0.4,0.8,0.8,1c2.8,1.9,5.9,3.2,9.1,4c1.1,0.3,2.5-0.2,3.6-0.7c2.2-0.9,4.4-2.1,6.5-3.2
	c0.4-0.2,0.8-0.9,0.8-1.4c0.1-1.2,0-2.4,0-3.9c-2.7,1.7-6.1,1.3-7.9,4.2c-0.1,0-0.2-0.1-0.3-0.1c-0.1-0.7-0.3-1.3-0.3-2
	c0.1-2,0.2-4.1,0.4-6.1c0-0.3,0.4-0.8,0.7-0.8c2.3-0.5,4.6-1,7-1.2c1.3-0.1,1.6,0.3,1.6,1.8c0.2,4.1,0.3,8.1,0.5,12.2
	c0.1,1.4,0.3,2.8,0.5,4.3c1.8-0.5,2.6-2,3.6-3.3c0.8,2.7-1.3,5.7-4.6,6.2c-0.4-2.8-0.8-5.6-1.2-8.5c-0.6,0.5-1.3,1-2,1.5
	c1.8,2,2.2,4.5,2.5,7c0.2,1.4,0.3,1.4,1.5,0.9c0.1-0.1,0.3-0.1,0.5-0.2c0.2,2.1,0.3,4.2,0.6,6.2c0.8,4.7,0,9.2-2.1,13.5
	c-0.2,0.4-0.1,1,0.1,1.3c0.5,0.8,1.2,1.6,1.9,2.3c0.5,0.5,0.7,1,0.5,1.8c-1.1,3.7-2.1,7.5-3.2,11.2c-0.6,2-1.2,4.1-1.8,6.1
	c-0.1,0-0.2,0-0.3-0.1c-1.2-1.1-1.2-2.2-0.5-3.6c1.7-3.7,2.8-7.7,3.4-11.8c0.2-1.6,0.1-3-1-4.3c-0.9-1-1.5-2.2-2.2-3.3
	c-0.4-0.6-0.4-1,0.2-1.5c1.8-1.5,3-3.3,3.5-5.6c0.7-2.9,0.6-5.8-0.3-8.6c-0.5-1.5-1.5-2.3-2.6-2.9c-0.7,2.1-1.3,4-2,6.2
	c-1.1-0.8-1.6-1.4-1.2-2.6s0.4-2.6,0.6-3.9c0.1,0,0.4-0.1,0.9-0.2c-1.9-1.1-3.5-2-5.2-3c0,0.1-0.1,0.1-0.1,0.2
	c0.3,1.7,0.3,3.3-0.7,4.8c-0.4-0.7-0.8-1.3-1.2-2c-1.6,2.3-3.2,4.5-4.8,6.7c-0.1,0.2-0.1,0.7,0,1c1,2.2,2.1,4.4,3,6.7
	c1.3,3.3,0.8,6.7,0.2,10c-0.3,1.4-0.8,2.7-1.3,4.3c-0.5-1.3-0.9-2.2-0.6-3.4c1.3-5.7,0.4-11.2-2.5-16.3c-1.1-1.9-2.2-3.8-2.9-5.8
	c-0.8-2.6-0.7-2.2,2-3.3c0.2,1.8,0.5,3.6,0.7,5.5c0.2,0,0.3,0.1,0.5,0.1c1-1.9,2-3.9,3-5.8c0.2-0.4,0-1,0.1-1.4
	c0.1-0.5,0.3-0.9,0.5-1.5c-0.2,0-0.6,0-0.9,0.2c-2,1.1-3.9,2.3-5.9,3.4c-1.9,1.1-3.4,2.5-3.5,4.8c-0.1,2.4-0.3,4.8-0.1,7.1
	c0.2,2,1.1,3.9,3.2,5c1.3,0.7,1.4,1,0.6,2.4c-0.7,1.2-1.4,2.5-2.3,3.5c-0.8,0.9-1,1.8-0.8,2.9c0.3,1.7,0.6,3.4,1,5
	c0.2,0.9,0,1.3-1,1.5c-0.7-2.4-1.5-4.8-2.2-7.2c-0.3-0.8-0.1-1.6,0.6-2.1c1.7-1.4,2-2.9,1-5c-1.9-4.2-1.9-8.6-1.2-13.1
	c0.3-1.6,0.3-3.2,0.5-4.8c0.2,0.1,0.4,0.1,0.6,0.2c0.9,0.3,1.3,0,1.5-0.9c0.3-1.7,0.7-3.5,1.1-5.2c0.2-0.7,0.6-1.3,0.9-2.1
	c-0.4-0.3-1-0.8-1.7-1.4c-0.3,3-0.7,5.9-1,8.9C333.5,126.9,332,125.6,330.8,124z M361.1,149.7c-1.4-1-1.5-2.1-0.5-3.9
	C360.8,147.1,361,148.3,361.1,149.7z M346.1,141.3c-0.2,0-0.3,0.1-0.5,0.1c-0.6-2.2-1.2-4.3-1.6-6.5c-0.1-0.4,0.2-0.9,0.5-1.3
	c0.3-0.5,0.7-1,1.3-1.7C346.5,135.2,346.8,138.3,346.1,141.3z M341.8,127.6c0.6-0.4,1.2-0.7,1.9-1.1c0.7,1.3,0.4,2.7-0.9,4.1
	c-0.4-0.8-0.9-1.5-1.3-2.3C341.4,128.1,341.6,127.7,341.8,127.6z M333.4,149.7c0.1-1.3,0.1-2.3,0.2-3.4
	C334.9,147.1,334.8,148.6,333.4,149.7z M333,133.2c-0.5-2.3-0.9-4.4-1.3-6.5C333.2,127.6,334,131.2,333,133.2z M330.5,174.4
	c1-5.5,1.5-11.1,2.2-16.7c0-0.4,0.1-0.8,0.1-1.2c0.2,0,0.3,0,0.5,0c0.2,1.3,0.5,2.6,0.5,3.9c0.1,6.1-0.7,12.1-1.4,18.2
	c0,0.1-0.1,0.2-0.2,0.4C331.2,177.6,330.1,176.5,330.5,174.4z M329.8,178.5c0.6,0.7,1,1.2,1.3,1.7c0.8,1.1,1.6,2.3,2.4,3.3
	c1.3,1.6,3.1,2.4,5.5,2.2c-0.4-0.7-0.6-1.4-1-1.6s-1.1,0.2-1.9,0.4c0.3-0.6,0.6-1,0.8-1.4c0.5-0.8,1.2-0.8,1.9-0.2
	c1.4,1.5,2.4,3.3,2.7,5.5c-4.3-0.7-8.3-1.7-11.1-5.5c-0.7,1.8-1.5,3.5-2.1,5.2c-0.9,2.5-2.5,4.4-4.6,6.1c-0.9,0.7-1.9,1.4-2.7,2.1
	c-0.6,0.6-1.1,1.3-1.7,2.1c-0.5-0.6-1-1.1-1.5-1.7C324,192.3,327.8,186.1,329.8,178.5z M305.4,202.8c3.7-1,7.1-2.8,10.4-4.8
	c1.4-0.9,1.4-0.9,2.6,0.6c-1,0.7-1.9,1.6-3,2.2c-1.8,1.2-3.7,2.2-5.5,3.4c-1.1,0.7-2.2,0.9-3.5,0.4c-0.9-0.3-1.9-0.6-2.9-0.9
	c0-0.1,0-0.2,0-0.3C304.1,203.2,304.7,203,305.4,202.8z M290.9,241.9c-1.5-0.1-2.2-1-1.8-2.4c0.9-3,2.2-6,2.8-9
	c1.2-6,1.9-12.1,0.5-18.3c-0.2-0.9-0.6-1.8-0.8-2.8c-0.4-1.6-0.1-2.3,1.4-2.9c4.7-2.1,9.4-1.9,14.1-0.1c2.5,1,4.8,2.3,6.9,4.2
	c-0.5,0.8-1,1.6-1.6,2.3c-1.2-0.9-2.3-1.8-3.6-2.5c-3.8-2.2-7.9-2.9-12.2-1.8c-0.6,0.2-1,0.5-0.9,1.3c0.9,7.7,0.2,15.3-0.9,23
	c-0.1,0.6,0,1.3,0,2.2c6-1.6,10.6-4.9,14.2-9.5c1.4,2,1.3,3.2-0.2,4.8c-2.9,3.1-6.1,5.9-9.6,8.3
	C296.8,240.4,294.2,242.1,290.9,241.9z M320.7,249.9c-0.5,0.8-1.4,0.5-2.2,0.3c-6-1.9-12-3.8-18.1-5.8c-0.8-0.3-1.6-0.7-2.3-1.1
	c-1-0.6-1-1.1,0-1.8c2.5-1.8,5.1-3.6,7.5-5.6c3.4-2.8,6.6-5.9,8.9-9.8c0.8,1.1,0.8,2,0,3.1c-2.2,3.2-5,5.9-7.7,8.6
	c-0.7,0.7-1.2,1.5-1.8,2.3c-0.4,0.5-0.4,0.9,0.3,1.2c3.1,1.3,6.1,2.5,9.2,3.8c0.3,0.1,0.5,0.1,1.1,0.2c-0.5-1.9-0.9-3.6-1.4-5.3
	c-0.6-2.1-1.2-4.2-1.7-6.3c-0.3-1,0.5-1.9,1.7-2.5c0.9,3,1.6,6.1,2.7,9c0.9,2.7,2.2,5.2,3.3,7.8
	C320.5,248.6,320.9,249.5,320.7,249.9z M314.1,242.2c-2.2-0.7-4.5-1.5-6.8-2.2c0-0.1-0.1-0.2-0.1-0.3c1.6-1.3,3.2-2.5,5.1-4
	c0.2,0.8,0.6,1.5,0.5,2s-0.9,0.9-1.4,1.4C312.4,240,314.2,240.1,314.1,242.2z M360.2,255.6c-2.5,1.6-5.2,2.8-7.9,4.1
	c-1.1,0.6-2.3,1-3.4,1.6c-1,0.5-2,0.4-2.9,0c-3-1.3-5.9-2.6-8.8-4c-4-1.9-7.8-4.1-11.4-6.8c-1.6-1.2-3.1-2.4-4.7-3.6
	c-1.6-1.2-1.7-3.1-2.5-4.7c0.1-0.1,0.2-0.2,0.3-0.3c1,0.6,2,1.1,3,1.7c3.9,2.4,7.7,5,11.8,7.3c4,2.2,8.3,4.1,12.5,6
	c0.6,0.3,1.6,0.3,2.2,0c3.2-1.4,6.3-2.8,9.4-4.4c5-2.8,9.9-5.8,14.8-8.7c0.9-0.5,1.9-0.9,2.8-1.4l0.1-0.1v0.1v0.1l0,0
	c-0.3,2-1.2,3.6-2.9,4.8C368.3,250,364.4,253,360.2,255.6z M396.4,243.4c-1.8,0.7-3.7,1.2-5.5,1.9c-4.7,1.6-9.3,3.2-14,4.8
	c-0.9,0.3-1.8,0.6-2.8,0.8c-0.3,0.1-0.8,0-1.1-0.2c-0.1-0.1,0-0.7,0.1-1c1.1-2.4,2.4-4.8,3.4-7.3c0.7-1.7,1.3-3.5,1.9-5.4
	c0.2,0,0.6,0.1,1,0.1c0-0.1,0.1-0.1,0.1-0.2c-0.9-0.8-1.8-1.6-2.7-2.5c-0.6,1.9-1.1,3.6-1.8,5.3c-0.6,1.6-2.2,2.3-3.6,3.1l-0.1,0.1
	c0-0.1,0-0.2,0-0.2c0.6-1.7,1.3-3.5,1.9-5.2c1.3-3.7,2.6-7.3,3.9-11.1c0.6,0.6,1.4,1.2,1,2.4c-0.4,1.3-0.7,2.5-0.9,3.5
	c0.8,0.5,1.5,0.9,2.1,1.4c2.1,1.8,4.1,3.6,6.1,5.4c0.3,0.2,0.5,0.5,0.8,1c-2.2,0.7-4.1,1.4-6.2,2.1c-0.1-1.8,1.4-2.2,2.9-3
	c-1.1-0.8-2-1.4-2.9-2c0,0.8,0,1.3-0.1,1.8c-0.5,2-1.1,4-1.7,6c-0.1,0.2-0.1,0.5-0.1,0.9c3.7-1.7,7.2-3.3,11-5.1
	c-1.1-1.2-2-2.2-2.9-3.3c-0.9-1-1.7-2.1-2.6-3.1c-1.1-1.1-1-2.3-0.3-3.7c0.3,0.2,0.6,0.4,0.7,0.6c2.8,3.9,6.4,6.9,10.6,9.2
	c0.6,0.3,1.1,0.6,1.6,1c0.3,0.3,0.6,0.6,0.9,0.9C397.1,242.8,396.8,243.2,396.4,243.4z M403.3,242.1c-2,0.1-3.7-0.6-5.4-1.5
	c-4.9-2.8-9-6.5-12.6-10.9c-1.2-1.5-2.5-3.1-3.6-4.7c-1.1-1.6-1-1.9,0.5-3.6c1,1.4,2,2.7,2.9,4c3,4.2,7,7.4,11.7,9.6
	c0.1,0,0.2,0.1,0.3,0.1c2.2,0.9,2.5,0.6,2.3-1.8c-0.3-4.9-0.7-9.9-0.9-14.8c-0.1-2.8,0-5.6,0.1-8.5c0-0.8-0.3-1.2-1-1.5
	c-2.2-0.8-4.5-0.5-6.7,0c-1.7,0.4-3.3,1.1-5,1.6c-0.4-0.8-0.8-1.7-1.2-2.6c5.5-2.9,11.1-3.8,16.9-1.5c1.2,0.5,1.6,1.3,1.3,2.7
	c-0.5,2.7-1.3,5.3-1.5,8c-0.4,6.5,0,12.9,2.4,19c0.5,1.2,0.9,2.4,1.3,3.6C405.6,241.1,404.9,242,403.3,242.1z M375.4,242.3v0.1v0.1
	l0,0l-0.1-0.1C375.3,242.4,375.4,242.3,375.4,242.3z M371.5,242.9l-0.1,0.1C371.4,242.9,371.4,242.9,371.5,242.9
	C371.5,242.8,371.5,242.8,371.5,242.9z M343.8,113.4c-2.4-0.2-4.6-0.3-6.3-2.2c-0.4-0.4-0.6-2.6-0.3-3c0.1-0.1,0.3-0.2,0.5-0.2
	c1.5,0.2,3,0.4,4.5,0.7c1.2,0.2,1.6,1.2,1.6,2.3C343.8,111.8,343.8,112.6,343.8,113.4z M342.8,111.8c0-1.8-1.9-2.5-4.5-2.3
	C338.6,111.5,339.8,112,342.8,111.8z M350.7,113.5c0-1.2-0.1-2.2,0-3.1c0.2-1.3,1.3-1.7,2.3-1.9c1.1-0.3,2.3-0.3,3.5-0.4
	c0.6-0.1,0.8,0.2,0.9,0.7c0.4,2.4-0.9,3.3-3,4C353.3,113.1,352.1,113.3,350.7,113.5z M356.1,109.4c-3-0.3-4.7,0.7-4.4,2.5
	C355,111.9,355.7,111.5,356.1,109.4z M352.3,122.6c1.2-0.3,3.5,2.1,3.7,4.2C354.7,125.3,353.5,124,352.3,122.6z M339.1,125.9
	c0.3-2,2-3.6,3.2-3C341.2,123.9,340.2,124.9,339.1,125.9z M340.6,121.9c-1,1.3-1.8,2.4-2.8,3.7C338.1,123.5,339.4,121.7,340.6,121.9
	z M356.5,125.2c-1-1.2-1.9-2.2-2.9-3.2C355.1,121.6,356,122.7,356.5,125.2z M350.4,123.9c1-0.5,3.2,1,3.9,2.6
	C353,125.6,351.8,124.8,350.4,123.9z M341.1,125.3c1-1.4,1.9-2,3-1.4c-1,0.6-1.9,1.1-2.8,1.7C341.2,125.5,341.2,125.4,341.1,125.3z
	 M349.5,125.5c0,0.1-0.1,0.1-0.1,0.2c0-0.1-0.1-0.1-0.1-0.2C349.3,125.5,349.4,125.5,349.5,125.5z M367.8,219.8
	c-0.1,1.7-0.3,3-0.3,4.2c-0.1,2.2-1.2,3.9-2.2,5.7c-2.6,4.5-6.4,7.8-11.3,9.5c-7,2.5-13.6,1.2-19.5-3.3c-5.1-3.8-7.6-8.9-7.9-15
	c-0.2-5,1.2-9.6,4.7-13.5c3.7-4,8.2-6.5,13.6-7.2c4.2-0.5,8.3,0.3,12.1,2.3c5.3,2.9,9,7.2,10.3,13.2
	C367.4,217.3,367.6,218.8,367.8,219.8z M337.7,216.8c-0.3,0.1-0.6,0.2-0.8,0.3c-0.1,0.1-0.2,0.2-0.4,0.2c-3.7,2.6-5.6,6.3-6,10.7
	c-0.3,2.9-0.3,2.9,2.5,3.5c0.1,0,0.2,0,0.3,0.1c4.5,1,8.8,0.2,12.6-2.1c3.3-2,5.9-4.8,7.6-8.4c0.3-0.6,0.2-1-0.4-1.2
	c-0.8-0.3-1.7-0.4-2.5-0.7c-0.7-0.2-1.1,0.1-1.4,0.7c-2.5,4.4-5.9,7.8-11,9c-1.6,0.4-3.3,0.3-5,0.5c0.1-4,1.9-6.8,4.8-9.1
	c0.3-0.2,0.5-0.8,0.4-1.1C338.4,218.5,338,217.7,337.7,216.8z M348.3,230.2c2,0.6,3.8,1.3,5.6,1.6c2.9,0.6,5.8,0.5,8.6-0.9
	c0.4-0.2,0.9-0.6,0.9-1c0-3.1-0.5-6.2-2.3-8.7c-2.2-3.2-5.2-5.6-9.2-6.6c-2.7-0.6-5.4-1-8.2-0.4c-0.4,0.1-1,0.5-1,0.7
	c0.1,0.9,0.2,1.9,0.6,2.7s1-0.1,1.5-0.1c0.1,0,0.2,0,0.3,0c2.4-0.1,4.7,0,7,0.8c3.2,1.1,6,2.9,7.4,6.1c0.6,1.4,1.1,2.9,1.6,4.4
	c-3.7,1-6.8-0.3-9.9-1.5C350.4,228.2,349.5,229.1,348.3,230.2z M355.5,214.6c0.1-0.4,0.1-0.7,0.1-0.9c0.2-5.7-3.5-9.1-7.5-12.3
	c-0.3-0.3-1.1-0.3-1.4-0.1c-1.2,0.8-2.5,1.6-3.5,2.7c-3.2,3.4-5.1,7.4-4.3,12.3c0.5,3.1,1.5,5.9,3.7,8.2c0.2,0.2,0.8,0.4,1,0.2
	c0.8-0.6,1.5-1.3,2.3-2c-6.6-6.2-4.6-15.4,1.6-19.5c3,2.5,4.7,5.5,4.9,9.5c0,0.3,0.2,0.8,0.5,0.9C353.6,214,354.5,214.3,355.5,214.6
	z M361.6,208c-2-1.8-4.3-2.7-7.1-3.2c2.7,3.1,3.3,6.6,3.9,10.1c0.1,0.8,0.5,1,1.1,0.5c1.3-1,2.6-1.9,3.8-2.9c1.4-1.1,1.4-1.5,0-2.9
	c-1.1,0.8-2.2,1.6-3.2,2.3c-0.5-1.2-1-2.3-1.5-3.4c-0.3-0.7-0.1-1.1,0.7-0.9C360.1,207.8,360.8,207.9,361.6,208z M339.4,204.9
	c-2.1-0.1-4.8,1.5-6.9,3.5c1.2-0.2,2.3-0.4,3.8-0.7c-0.7,1.6-1.3,2.9-1.9,4.4c-1.3-1-2.4-2-3.6-2.9c-1,1-1.1,1.4-0.1,2.2
	c1.2,1,2.5,2,3.7,2.9c1.1,0.8,1.6,0.6,1.9-0.7c0.5-1.6,1-3.3,1.5-4.9C338.3,207.5,338.8,206.3,339.4,204.9z M330.1,216.9
	c-0.7,1-1.2,2.1-2,2.9c-1.1,1.1-1,2.2-0.5,3.7c2.2-2.4,4.3-4.7,6.5-7.1c-1.9-1.2-3.6-2.2-5.3-3.2
	C327.3,215.2,329.4,215.7,330.1,216.9z M366.3,223.4c0.1-0.6,0.2-1.1,0.3-1.5c0.2-1.7-0.9-2.8-2-3.8c-0.8-0.8-0.9-1.3,0-2
	c0.2-0.2,0.4-0.4,0.5-0.6c0.8-0.8,0.8-1.4-0.2-2.3c-1.6,1.3-3.2,2.6-5,4.1c1.3,1,2.4,1.9,3.5,2.9
	C364.4,221.1,365.3,222.3,366.3,223.4z M348.9,239.1c0.7-0.1,1.2-0.1,1.7-0.2c0.9-0.1,1.4-0.5,1.2-1.6c-0.2-1.1-0.1-2.2-0.2-3.3
	c0-0.3-0.1-0.7-0.3-0.8c-0.7-0.4-1.5-0.7-2.3-1.2C348.9,234.4,348.9,236.6,348.9,239.1z M345.7,231.8c-1,0.6-1.8,1-2.5,1.5
	c-0.2,0.2-0.4,0.5-0.4,0.8c-0.1,1.3,0,2.6-0.1,3.9c-0.1,1.3,1.1,0.9,1.7,1.1c0.7,0.2,1-0.3,1-0.9C345.5,236,345.6,234,345.7,231.8z
	 M346.1,206.4c-1.8,1.2-1.9,2.7-2.2,4.2c-0.4,2,0.1,2.4,2,1.8c0.1,0,0.1-0.1,0.1-0.1C346.1,210.4,346.1,208.5,346.1,206.4z
	 M350.4,212.7c0.7-1.5-0.3-4.8-1.8-5.8c0,1.9,0,3.7,0,5.5C349.2,212.5,349.8,212.6,350.4,212.7z M373.3,198.6
	c-0.2,0.2-0.5,0.5-0.7,0.7C372.8,199,373.1,198.8,373.3,198.6z M347.1,94c-0.8,1.9-1.6,3.9-2.4,5.8c-0.5-3,0.5-5.6,2.5-7.8
	c2.1,2.2,2.9,4.8,2.5,7.8c-0.7-1.9-1.5-3.8-2.2-5.8C347.3,94,347.2,94,347.1,94z M347.5,96.7c0.4,1.3,0.9,2.6,1.2,3.9
	c0.4,1.9,0.2,2.2-1.4,3.2c-1.7-1-2.2-2.1-1.5-4c0.4-1.1,0.9-2.1,1.3-3.1C347.2,96.8,347.4,96.8,347.5,96.7z M347.1,102.9
	c1.6-1.4,1.2-2.5,0-3.9C346.6,100.2,345.7,101.5,347.1,102.9z"/>
<linearGradient id="SVGID_1_" gradientUnits="userSpaceOnUse" x1="293.9192" y1="493.9471" x2="456.2915" y2="493.9471" gradientTransform="matrix(1 0 0 1 0 -533.3192)">
	<stop  offset="0" style="stop-color:#A47122"/>
	<stop  offset="0.5" style="stop-color:#F2D26B"/>
	<stop  offset="1" style="stop-color:#A47122"/>
</linearGradient>
<path class="st2" d="M456.1,37c-0.1-1.1-0.4-2.1-0.6-3.2c-0.8-7.3-1.6-14.6-2.3-22c-0.3-3.2-0.2-6.4-0.5-9.6
	c-0.1-1.9-0.4-3.8-0.8-5.7c-0.6-2.3-1.8-4.1-4.2-4.8c-1.8-0.5-3.5-1-5.3-1.5c-4.6-1.5-9.3-2.8-13.8-4.7c-3.9-1.6-7.4-4.1-11.1-5.9
	c-4.6-2.3-7.8-6.2-10.6-10.3c-2.8-4.1-4.2-9-5.3-13.8c-1.3-5.7-2.1-11.5-3-17.3c-1.6-10.6-1.8-21.3-0.4-31.9c0.7-5.1,2-10,6.4-13.3
	c2.5-1.9,5.5-3.2,8.3-4.8c0.6-0.4,1.5-0.8,1.7-1.4c0.4-1.3,0.7-2.7,0.7-4c0-1.9-0.3-3.8-0.2-5.6c0.2-3.8,0.6-7.5,0.9-11.2
	c0.2-2.4,0.5-4.8,0.4-7.2c-0.1-2.8-1.2-4.3-4.2-4.4c-0.6,0-1.3,0-1.9-0.1c-6.6-1.4-13.2-2.7-19.7-4.3c-3.5-0.9-6.8-2.3-10.3-3.3
	c-2.4-0.7-5-1.4-7.6-0.8c-6.4,1.7-12.7,3.5-19.1,5.2c-4.2,1.1-8.4,2.1-12.7,3c-2.2,0.5-4.4,0.7-6.6,1c-1.2,0.2-2.1,0.9-2.2,2.1
	c-0.2,1.6-0.3,3.3-0.2,4.9c0.4,5.8,1,11.5,1.5,17.2c0.2,2.4,0.2,4.8,0.5,7.1c0.1,0.8,0.8,1.8,1.5,2.2c1.2,0.7,2.6,1,3.9,1.6
	c5.1,2.4,8.5,6.4,9.9,11.9c1,4.1,1.8,8.4,2.1,12.6c0.6,9.3,0.1,18.6-1.3,27.8c-0.8,4.8-1.8,9.6-2.9,14.3c-1,4.3-2.4,8.5-4.9,12.2
	c-3.8,5.6-8.8,9.7-15,12.4c-3.4,1.5-6.8,3.2-10.3,4.4c-5.1,1.8-10.3,3.3-15.4,4.9c-2.6,0.8-4.2,2.4-4.1,5.4c0.1,3.1,0.1,6.2-0.1,9.2
	c-0.4,5.7-0.8,11.3-1.4,17c-0.6,5.3-1.4,10.6-2,15.7c0.1,4.3,0,5.9,4.1,7.3c0.1,0,0.2,0.1,0.4,0.2c3.5,1.6,7,3.4,10.6,4.8
	c4.1,1.6,8.4,2.8,12.7,4.1c5.7,1.8,11.4,3.8,17.2,5.5c7.8,2.3,15,6,22.3,9.6c3.5,1.7,6.9,3.5,10.4,5.3c2.1,1,4.2,1.3,6.4,0
	c2.1-1.2,4.2-2.5,6.5-3.6c8.3-3.8,16.6-7.6,25-11c7-2.8,14.3-4.9,21.5-7.2c6.9-2.3,13.9-4,20.3-7.5C455.4,43.4,456.8,42.1,456.1,37z
	 M447.5,44.4c-6.2,3.4-13.1,5.1-19.7,7.3s-13.4,4-20,6.4c-8.4,3.1-16.7,6.6-25,9.9c-1.9,0.8-3.7,1.6-5.5,2.5c-2,1-3.9,0.8-5.8,0
	c-3.5-1.5-6.9-3-10.3-4.5c-7-3-13.9-6.1-21.2-8.1c-5.6-1.6-11.1-3.3-16.6-5c-3.9-1.2-7.8-2.2-11.5-3.6c-4.5-1.8-8.8-3.9-13.3-5.9
	c-1.5-0.7-2-2-2.1-3.4c-0.1-0.8,0-1.6,0-2.5c-0.1,0-0.1,0-0.1,0c0.8-5.7,1.7-11.3,2.4-17c0.5-4.7,0.8-9.4,1.1-14.1
	c0.2-3,0-6,0.2-8.9c0.3-4.1,0.4-3.8,4.1-5.1c5.1-1.8,10.5-2.9,15.7-4.6c2.8-0.9,5.3-2.4,8-3.5c6.8-2.9,12.2-7.6,16.1-13.8
	c2.4-3.8,3.6-8,4.6-12.3c1.1-4.5,1.9-9.1,2.7-13.6c0.4-2.5,0.2-5.1,0.8-7.5c1.3-5.5,0.8-11.2,1.1-16.8c0.4-6.9-0.5-13.7-2.2-20.3
	c-1.6-6.1-5.7-10.5-11.8-12.1c-3-0.8-2.7-2.9-2.9-4.8c-0.7-5.8-1.1-11.6-1.6-17.4c-0.2-2.1-0.5-4.1-0.6-6.1c-0.2-2.7,0.9-3.6,3-4
	c8.1-1.6,16.2-3.4,24.2-5.2c2.4-0.5,4.8-1.2,7.1-2c4.9-1.7,9.7-1,14.5,0.5c5.9,1.8,11.9,3.4,18,4.9c3,0.7,6.2,0.9,9.4,1.2
	c2.9,0.3,4.2,1.5,4.1,4.4c-0.1,2.2-0.3,4.4-0.5,6.6c-0.4,5.5-0.8,11-1.2,16.6c-0.1,0.7-0.1,1.5-0.1,2.2c0,1.3-0.7,1.9-1.9,2.4
	c-3.3,1.3-6.5,3-9,5.7c-3.2,3.4-4.3,7.7-4.8,12.1c-1.4,10.9-1.3,21.8,0.1,32.6c0.8,6.4,1.5,12.8,2.9,19.1c1,4.5,2.5,9,4.6,13
	c2.7,5.2,6.8,9.2,11.9,12.2c5.2,3,10.4,5.7,16.2,7.3c3.8,1.1,7.6,2.3,11.5,3.4c2.5,0.7,3.6,2.6,4.2,4.8c0.5,1.8,0.7,3.8,0.8,5.7
	c0.3,4.3,0.4,8.6,0.8,12.8c0.5,5.9,1.3,11.7,2,17.6c0.1,1.1,0.4,2.2,0.6,3.2C452.9,41,451.4,42.3,447.5,44.4z M408.9,41.4
	L408.9,41.4v-0.1C408.9,41.3,408.9,41.3,408.9,41.4z M447.7,34.3c-0.8-5.4-1.9-10.7-2.3-16.1c-0.4-5.6-0.1-11.2-0.1-16.8
	c0-3.1-0.7-5.5-3.9-6.5c-2.5-0.8-5.1-1.6-7.6-2.3c-8.4-2.4-16-6.2-23.1-11.4c-4.7-3.5-7.9-8-9.9-13.3c-2.1-5.6-3.6-11.5-4.5-17.4
	c-2-12.8-3.4-25.7-2.3-38.7c0.4-4.9,0.9-9.9,2.7-14.5c1-2.5,2.1-4.9,4.1-6.9c2.2-2.1,4.7-3.6,7.6-4.5c0.5-0.2,1.1-0.7,1.1-1.1
	c1-7.8,2-15.5,2.9-23.3c-0.1,0-0.2,0-0.3,0c0-0.7,0-1.4,0-2.1c-0.1-2.3-0.6-2.7-2.9-2.7c-1.9,0-3.8,0-5.6-0.3
	c-4.4-0.8-8.8-1.6-13.2-2.8c-3.7-1-7.2-2.4-10.8-3.5c-1.7-0.5-3.5-1.2-5.2-1c-3.2,0.4-6.4,1.2-9.6,2c-5.4,1.5-10.7,3.3-16.1,4.7
	c-3.3,0.9-6.7,1.6-10.2,1.3c-2.3-0.2-2.9,0.6-2.6,2.9c0.3,1.9,0.6,3.7,0.7,5.6c0.5,6.4,0.9,12.9,2.3,19.2c0.1,0.4,0.4,0.8,0.7,1
	c0.9,0.5,1.9,0.9,2.9,1.3c4.2,1.4,6.9,4.5,8.6,8.4c2.4,5.6,3.6,11.4,3.7,17.5c0.1,9.8,0.1,19.7-1.3,29.4c-0.9,6.6-2.1,13.1-3.8,19.5
	c-1.5,5.4-3.6,10.5-7.1,14.9c-3.1,4-7.3,6.9-11.7,9.4c-6.3,3.7-13.1,6-20.1,7.9c-2,0.6-4.1,1.3-6,2.1c-0.6,0.2-1.1,1.1-1.2,1.8
	c-0.2,1.2-0.1,2.5-0.1,3.7c0,4.1,0.1,8.1-0.1,12.2c-0.1,3.4-0.4,6.9-0.9,10.2c-0.7,4.7-1.6,9.4-2.5,14.2c-0.2,1.4,0.4,2.7,1.6,3.4
	c3.8,2.2,7.9,3.7,12.1,4.8c5.6,1.5,11,3.5,16.6,4.7c10,2.1,19.4,5.6,28.4,10.1c4.6,2.3,9.3,4.3,14.2,5.8c0.8,0.2,1.8,0.3,2.5,0
	c2.9-1,5.8-2,8.6-3.2c5-2.2,9.9-4.9,15-6.8c6-2.4,12.3-4.3,18.5-6.2c7.8-2.4,15.7-4.6,23.6-7c1.9-0.6,3.8-1.3,5.5-2.4
	c0.8-0.5,1.4-1.7,1.5-2.7C448.4,37.2,448,35.7,447.7,34.3z M427-6.2c-1.6,1.2-4.4,1.7-6.2,0.7c-3.6-2.1-7-4.3-10.6-6.5
	c0.7-0.8,1.2-1.5,1.8-2.1C417-11.5,422.1-8.8,427-6.2z M435.7,26.5c0.2,0.8-0.1,1.6-0.2,2.4c-0.7-0.2-1.5-0.3-2.1-0.7
	c-3.9-2.1-6.6-5.5-9.3-8.8c-0.2-0.2-0.3-0.5-0.5-0.7c-1.5-1.9-1.5-2.1,0.2-4c2.4,2.3,4.7,4.6,7.2,7c0.5-6.2,1-12,1.5-18
	c-4.7,0.2-8.8,1.6-12,5.6c-0.6-0.8-1-1.3-1.5-2c3.2-3.8,7.2-6,12-6.6c0.8-0.1,1.8,0,2.6,0.2c1.1,0.2,1.6,0.8,1.4,2.2
	C434.1,11.1,434.1,18.8,435.7,26.5z M414.2,24.6c-1.1-1.5-2.2-2.8-3.2-4.2c-0.1-0.1-0.2-0.3-0.3-0.4c-1.4-1.1-1-2.3,0-3.7
	c0.6,0.8,1.1,1.5,1.7,2.3c0.4-3.3,1.9-5.8,3.8-8.3c0.5,0.7,1,1.4,1.4,2.1c0.1,0.3,0,0.8-0.2,1.1c-0.9,1.6-1.8,3.3-2.7,4.9
	c-0.3,0.5-0.8,1-1.3,1.6C414.7,23.5,414.7,23.5,414.2,24.6z M416.2,21.3c0.9,1,1.6,1.8,2.3,2.6c0.1,0.1,0.2,0.4,0.1,0.5
	c-0.6,2.4-1.3,4.7-2,7.3c-0.8-0.6-1.4-1-1.9-1.5c-0.2-0.2-0.4-0.7-0.4-1.1C414.9,26.6,415.5,24.1,416.2,21.3z M314.1,9
	c-0.1-1.7-0.2-3.5-0.6-5.2c-0.3-1.3,0.2-1.9,1.3-2.1c3.6-0.7,7.1-0.2,10.1,1.9c-0.3,1.8-1.1,2-2.7,1.5s-3.3-0.6-5-0.8
	c-0.7-0.1-1.2,0.1-1,1c1.2,5.3,1.1,10.7,0.9,16.2c0,0.1,0.1,0.1,0.3,0.5c3.5-3.4,7-6.9,10.5-10.3c0,0,0.2,0.1,0.3,0.3
	c0.2,0.2,0.3,0.4,0.5,0.8c-3.9,5.8-7.8,11.6-14.1,15.1c-0.2,0.1-0.5,0.3-0.7,0.4c-0.4,0.1-0.8,0.1-1.3,0.2c0-0.4-0.2-0.9-0.1-1.3
	C313.8,21.2,314.5,15.2,314.1,9z M332.2-2.5c-0.4,0.8-0.6,1.3-0.9,1.8c-0.7-0.5-1.4-0.9-2.2-1.4c0.2-0.5,0.3-1,0.4-1.4
	c0.6-2.1,1-2.4,2.9-1.5c2.8,1.3,5.2,3.2,7,5.8c0.7,1-0.3,1.6-1,2.2c-0.5-0.4-0.9-0.8-1.4-1.4c-1.7,2.4-3.4,4.7-5.1,7.1
	c-0.4-0.5-0.7-0.9-1.1-1.4c1.5-2.2,3-4.3,4.5-6.5c0.5,0.3,0.9,0.5,1.3,0.7c0.1-0.1,0.2-0.2,0.3-0.4C335.3,0,333.8-1.2,332.2-2.5z
	 M355.3-19.6c0.1,0.4-0.9,1.2-1.4,1.9c-2.5-3-2-10,0.4-11.7c0.5,0.4,1,0.7,1.4,1.2c0.2,0.3,0.4,0.8,0.2,1.1
	C354.9-24.7,354.5-22.2,355.3-19.6z M361.7-21c0.5-0.2,0.9-0.4,1.5-0.7c-2.5-1.8-4.9-0.8-7.3,0.1c-0.4-1.2-0.4-1.9,0.9-2.4
	c3.3-1.4,6.4-1,8.5,1.2c0.9,0.9,1.3,2,1.1,3.3c-0.4,0.1-0.9,0.3-1.4,0.5c-0.5-0.8-1-1.6-1.5-2.4c-0.1,0.1-0.3,0.1-0.4,0.2
	c0.2,0.4,0.4,0.8,0.6,1.3c-3.1,1.5-6.4,2.8-9.3,4.6c-2.9,1.8-5.5,4.1-8.3,6.3c-1.2-1-1.3-1.2,0-2.4C350.6-15.7,355.8-18.8,361.7-21z
	 M358.6-58c1-0.3,2-0.7,3.1-1c0.3,0.7,0.6,1.4,0.7,2.1c0,0.3-0.3,0.7-0.6,0.9c-1.3,0.6-1.5,1.6-1.3,2.9c0.3,2.3,0.3,4.7,0.4,7.1
	c0,0.3,0,0.7,0.1,1.4c0.9-0.7,1.5-1.1,2.3-1.6c0.4,0.9,0.8,1.8,1,2.7c0.1,0.4,0,0.9-0.2,1.3c-1.2,1.9-2.8,3.3-4.9,4.2
	c-1,0.4-1.4,0.2-1.4-1c0.1-2.5,0.3-4.9,0.4-7.4c0.1-3.5,0.2-7,0.3-10.4C358.6-57.2,358.6-57.6,358.6-58z M367.3-79.4
	c-0.4,0.6-0.8,1.1-1.2,1.7c-0.4-1.8-0.8-3.6-1.1-5.5c-0.1-0.5,0.3-1.1,0.4-1.6c0.2,0,0.3,0,0.5,0c0.7,1.6,1.5,3.1,2.3,4.8
	c0.3-0.4,0.6-0.8,0.9-1.2c1.1,1.5,1.2,2.8,0.3,4.4c-1.2,2.2-2.6,4.3-3.6,6.6c-1.6,4-1.6,8.1-0.2,12.2c1.6,4.5,4.1,8.5,7.5,11.9
	c1.1,1.1,1.6,1,2.7-0.2c0.9-1,1.7-2.1,2.7-3.3c0.4,1,0.8,1.7,1.1,2.5c0.1,0.3,0.1,0.7-0.1,0.9c-1.4,1.9-2.8,3.7-4.2,5.6
	c-0.7,0.8-1.4,0.8-2.1-0.1c-0.8-1-1.7-2.1-2.4-3.2c-1.8-2.5-3.7-4.9-5.1-7.6c-1.3-2.6-2.1-5.4-3.1-8.2c-0.3-0.8-0.4-1.6-0.6-2.4
	c-1.1-3.2-0.5-6.2,1.2-9c1.3-2.2,2.5-4.5,3.7-6.7C367.1-78.3,367.3-78.8,367.3-79.4z M362-86.4c0.2,0,0.4,0.1,0.6,0.1
	c0.9-1.1,1.9-2.2,2.8-3.4c1.4,1.3,1.5,2,0.4,3.5c-1.2,1.6-2.4,3.2-3.6,4.8c-3.2-2.5-3-12.6-0.1-14.9c0.7,2.1,1.4,4.1,2,6.3
	c0.1,0.5-0.3,1.1-0.4,1.6c-0.1,0-0.2,0-0.4,0c-0.4-1-0.9-2.1-1.3-3.1c-0.2,0.1-0.5,0.1-0.7,0.2C361.5-89.6,361.8-88,362-86.4z
	 M387-91.6c-1.3,1.2-1.6,2.8-2,4.4c-0.4,1.6-1,3.2-1.4,4.8s-0.6,3.3-0.9,5.1c-1.5-1.8-2.4-3.5-0.9-5.6c0.2-0.3,0.2-0.7,0.4-1
	c0.8-2.2,0.8-2.2-0.9-4.1c-0.7,1.4-1.3,2.9-2,4.4c-1.3-2-1.3-3.5-0.1-5c0.3-0.3,0.8-0.4,1.3-0.6c-0.1-0.5-0.2-1.1-0.5-1.5
	c-1-1.1-0.7-2.2-0.2-3.3c1.3,1.8,2.5,3.6,4.1,5.8c1-2.8,1.8-5.2,2.7-7.6c3,2.2,2.8,12.3,0.1,14.5c-1.9-1.4-2.3-3.1-1.1-5.2
	c1.3,0.6,1.4-0.3,1.5-1.3C387-89.2,387.1-90.4,387-91.6z M378.5-92.8c-1.2,4-1.2,8.1,1,11.9c1,1.7,2.4,3.3,3.4,5
	c1.5,2.7,3,5.5,4.2,8.4c0.4,1,0,2.4-0.1,3.6c-0.2,1.8-0.5,3.6-0.7,5.4c-0.1,1.2-0.9,1.9-1.5,2.8c-0.9,1.4-1.6,2.8-2.5,4.4
	c-0.9-1.3-1.3-2.3-0.6-3.8c1.7-3.5,2.7-7.3,2.2-11.3c-0.5-3.4-1.9-6.5-3.6-9.5c-1-1.8-2.3-3.4-3.2-5.2c-2.5-5-2.3-10-0.4-15.1
	c0.6-1.5,1.2-3.1,1.8-4.7c0.9,0.5,1.9,1,2.7,1.5C380.2-97.2,379.1-95,378.5-92.8z M378-53.3c-0.8-3-0.5-5.9-0.5-9
	c2.6,1.6,2.8,4.1,2.7,6.5c-0.1,2,0.7,3.7,1.6,5.3c1.2,2,2.3,4.2,4.4,5.4c0.3,0.2,0.6,0.3,1,0.5c0.1-2.5,0.2-4.9,0.4-7.3
	c0.1-2.2,0.8-4.3,1.5-6.4c0.2,0,0.4,0.1,0.5,0.1c0.1,2.4,0.3,4.8,0.4,7.2c0.1,3.4,0.3,6.8,0.4,10.2c0,0.9-0.3,1.8-0.4,2.6
	c-0.8-0.3-1.8-0.4-2.4-1C382.9-42.9,379.6-47.4,378-53.3z M381.8-40c-1.9,2.7-3.4,5.6-5.3,8.3c-1.8,2.4-2.1,2.3-4.1,0.1
	c-2.7-3.1-4.9-6.5-6.4-10.3c-1.5-3.6-2.8-7.4-4.3-11c-0.5-1.3-0.6-2.1,1-2.4c1.4,3.2,2.7,6.5,4.1,9.7c1.3,3.1,3.1,5.8,5.5,8.1
	c1.6,1.6,2.7,1.5,4.1-0.3c1.6-2,3.1-4.2,4.6-6.2c0.1-0.2,0.3-0.3,0.5-0.5C383.2-43.1,383.1-41.7,381.8-40z M381.5-70.2
	c-0.4,1.8-0.7,3.7-1,5.5c-1.2-0.8-2.1-2.8-1.8-4.3c0.3-1.9,0.7-3.8,1-5.8c0.1,0,0.3-0.1,0.4-0.1C380.9-73.4,382-72.1,381.5-70.2z
	 M375.9-81.4c1,2,2.1,3.6,1.6,6.1c-1.1,5.3,0.2,10.1,4.6,13.6c1.1,0.9,0.2,1.7,0.1,2.7C375.8-63.8,373.6-71.2,375.9-81.4z
	 M376.5-60.1c0.1,0,0.2,0,0.3,0c0,0.5,0,1.1,0,1.6c0.1,1.6,0.1,3.3,0.2,4.9c0.1,2.1-1.3,3.5-2.8,5.4c-0.3-0.5-0.6-1-0.9-1.5
	c-2.6-3.9-4.2-8.1-5.2-12.6c-0.5-2.3-1.2-4.7-1.7-7c-0.1-0.6,0.1-1.3,0.4-1.9c0.4-0.9,1-1.8,1.8-2.7c0.2,6.5,1.6,12.5,5.6,18
	C375-57.3,375.8-58.7,376.5-60.1z M370.6-50.7c-2.1-1.6-2.9-4-2.1-5.9C369-54.7,370.9-53.2,370.6-50.7z M366.3-59.1
	c-0.7-2.1-0.7-2.1,1.1-3.2C367.5-61,367.9-59.8,366.3-59.1z M358.2-34.6c1.7-1.7,3.5-3.3,5.3-5c3.6,5,8.5,9,9,15.6
	c-0.2,0.1-0.4,0.1-0.5,0.1c-2.4,0.3-2.5,0.3-3-2.1c-0.7-2.9-1.9-5.6-3.7-8c-0.8-1.1-1.6-1.3-2.6-0.5c-1.1,0.8-2.2,1.7-3.2,2.5
	c-0.3,0.2-0.6,0.5-0.9,0.7C356.8-32.9,356.7-33.1,358.2-34.6z M374.9-23.4c-0.1,1.2-0.2,1.9-0.3,2.3c-2.4,0.1-4.6,0.3-7.1,0.4
	c-0.1-0.3-0.4-0.9-0.8-1.9C369.5-22.8,372.1-23.1,374.9-23.4z M384-15c1.2,0.3,2.3,0.7,3.5,1c0,0.2-0.1,0.3-0.1,0.5
	c-1.9,0.7-3.8,0.6-5.7-0.2c-0.4-0.2-0.9-0.9-0.8-1.3c0.1-1.5,0.5-2.9,0.8-4.4c0.8,0.2,1.3,0.3,1.9,0.4c-0.2,0.9-0.4,1.8-0.6,2.6
	C382.8-15.4,383.4-15.2,384-15z M407.4-9.6c0.6-0.7,1-1.2,1.5-1.8c1.4,1.2,2.8,2.3,4.1,3.5c0.3,0.3,0.4,1.2,0.1,1.4
	c-2.1,1.8-4.4,3.4-6.6,5.1c-1.7-1.9-1.7-1.9,0.3-3.7c0.7-0.6,1.5-1.2,2.2-1.9c0.1-0.1,0.2-0.3,0.3-0.6
	C408.8-8.1,408.1-8.8,407.4-9.6z M407.4,10.9c0.5,0.8-0.1,2.3-0.3,3.4c-0.2,0-0.4,0.1-0.6,0.1c-0.9-1.4-1.9-2.8-2.7-4.2
	c-0.2-0.3-0.1-1,0.2-1.4c1.5-2.5,3.1-5,4.7-7.4c0.1-0.2,0.7-0.2,1-0.1c0.3,0.2,0.5,0.6,0.8,1.1c-0.8,1-1.5,1.9-2.3,2.9
	C406.9,6.9,406.1,8.6,407.4,10.9z M401-2.4c0.6-0.6,1.3-1.1,2.1-1.9c1.4,1.9,2.9,3.8,4.5,5.8c-0.6,0.7-1.1,1.3-1.6,2
	C404.4,1.5,402.8-0.4,401-2.4z M401.6,3.6c-1-1.4-0.9-1.9,0.4-3.1C403.8,1.9,403.7,2.3,401.6,3.6z M399.3-1.6
	c-0.9-0.8-1.2-1.6-0.1-2.6s2-2.2,3.1-3.5c0.5,0.4,0.9,0.8,1.4,1.3C402.2-4.8,400.8-3.2,399.3-1.6z M409.4,4.9c0.2,0,0.3,0,0.5-0.1
	c1.4,2.1,3,4.1,4.2,6.3c0.3,0.6-0.5,1.7-0.7,2.6l-0.7,0.1c-1.4-2.3-2.8-4.6-4-7.1C408.4,6.4,409.1,5.5,409.4,4.9z M413.6,8.9
	c-0.5-0.8-1.4-1.6-1.5-2.4c-0.1-0.8,0.8-1.6,1.1-2.2c-1.6-2-3.1-3.8-4.8-5.9c0.6-0.5,1.1-0.9,1.8-1.5c1.1,1.5,2.2,2.9,3.4,4.4
	c1.1,1.4,1.1,1.4,2.4,0.2c0.3-0.3,0.7-0.7,1.2-1.1c0.5,1.2,0.9,2.2,1.2,3.1C416.7,5.3,415.2,7.1,413.6,8.9z M406.1-5.2
	c-4-3.6-8-7.1-12-10.7c0.9-1,1.5-1.2,2.7-0.2c3.3,2.8,6.5,5.7,9.8,8.6C407.8-6.3,406.6-5.7,406.1-5.2z M393.7-16.4
	c-1,0.9-2,1.7-3.1,0.4c1-1.2,1.9-2.4,2.9-3.6C395.6-18.6,395.6-18.1,393.7-16.4z M395.6-11.3c1.7,1.3,3.1,2.8,4.9,4.3
	c-0.6,0.7-1.1,1.3-1.5,1.9c-4.9-4.1-8.9-9.2-15.1-11c0-1.9,0-2,1.6-1.4C389.3-16.3,392.4-13.8,395.6-11.3z M380.7-17
	c-2.1-0.1-4.2-0.2-6.2-0.5c-0.3,0-0.5-1.1-0.8-2c2.8,0.2,5,0.4,7.4,0.7C380.9-18.2,380.8-17.7,380.7-17z M378.2-14.6
	c-2.7,0.7-3.2,0.2-2.7-2.1c0.9,0.1,1.7,0.1,2.6,0.2C378.1-15.8,378.1-15.2,378.2-14.6z M373.3-20.2c-0.1,1.9-0.2,3.7-0.3,5.4
	c-0.1,1.1-1.1,0.9-1.7,0.8c-0.4-0.1-0.8-0.6-0.9-1c-0.2-1.1-0.2-2.3-0.3-3.4c-0.2-1.5-0.1-1.7,1.4-1.8
	C372-20.3,372.5-20.2,373.3-20.2z M369.3-19.4c0,0.9,0.1,1.4,0.1,1.7c-2,0.6-3.9,1.3-5.8,1.8c-0.8,0.2-1.7-0.2-2.5-0.3
	c0-0.2,0-0.3-0.1-0.5C363.6-17.6,366.3-18.4,369.3-19.4z M345.8-0.5c-0.6-0.5-1.2-1.1-2-1.8c1.4-1.6,2.7-3.2,4.2-4.5
	c2.4-2.1,4.9-4.1,7.3-6.2c1.3-1.1,2.3-0.6,3.4,0.3C353.9-9.1,349.3-5.5,345.8-0.5z M349.5-1.5c-1.4-0.7-1.4-1,0-2.1
	C350.9-2.8,350.1-2.2,349.5-1.5z M339.4,11.6c0.2,0.3-0.2,1-0.4,1.4c-0.3,0.5-0.7,1-0.9,1.4c-1.3-2.3-2.6-4.6-3.9-7
	c0.4-0.6,1-1.4,1.8-2.5C337.2,7.3,338.4,9.4,339.4,11.6z M338.8,4.7c1.1-1.3,1.9-3,2.9-4.6c0.7,0.7,1.2,1.3,1.7,1.9
	c-1.5,2.1-3,4.2-4.5,6.3C338,7,337.6,6,338.8,4.7z M338,16c1.2-1.8,2.3-3.6,3.4-5.5c0.6-1,0.6-2.1,0.2-3.3c-0.2-0.6,0.3-1.3,0.6-2.4
	c3.4,5.1,3.3,5-0.1,9.4c-1.4,1.8-2.7,3.6-4.1,5.5C336.9,17.9,337,17.5,338,16z M340.9-2c0.2-0.3,0.5-0.7,0.8-1.2
	c2,1.8,3.9,3.5,5.9,5.2c-0.3,0.5-0.6,1.1-1.1,2.1C344.5,2,342.7,0,340.9-2z M342.6-7.6c0.4,0.5,0.8,0.8,1.1,1.2
	c-1.5,1.8-3,3.6-4.7,5.5c-0.2-0.3-0.6-0.7-1-1.2C339.5-3.9,341-5.7,342.6-7.6z M341.8-9.9c0.4-0.4,0.7-0.8,1.2-1.4
	c1.3,1.5,2.5,2.9,3.8,4.4c-0.5,0.5-0.8,0.9-1.3,1.4C344.1-7,343-8.4,341.8-9.9z M356-15.3c1.4-0.7,2.5-1.2,3.9-0.5
	c1,0.5,2.2,0.6,3.3,0.8c0.8,0.1,1.7,0.3,2.3-0.7c0.2-0.4,1-0.5,1.5-0.7c1.1,2.2,0.7,2.9-1.6,3.1C362.1-13,359-13.7,356-15.3z
	 M350.7-18.3c-4.4,3-8.6,6.2-11.9,10.5c-0.2,0.2-0.4,0.5-0.6,0.8c0.4,0.6,0.9,1.2,1.3,1.7c-0.8,1.4-1,1.4-2,0.4
	c-2.3-2.2-2.2-2.1-0.1-4.4c3.9-4.1,8.4-7.4,12.9-10.7c0.3-0.2,0.6-0.3,1-0.5C352.2-19.3,351.5-18.8,350.7-18.3z M332.3,11.2
	c0.1,0.2,0,0.6-0.1,0.8c-0.3,0.6-0.7,1.2-1.1,1.8c-1.2-1.4-2.3-2.8-3.4-4.1c-0.6-0.7-0.2-2.4,0.7-2.8c0.2-0.1,0.8,0,0.9,0.2
	C330.3,8.4,331.3,9.8,332.3,11.2z M325.4,9.8c-0.5-0.1-0.9-0.2-1.4-0.3c-0.1,0.1-0.1,0.2-0.2,0.3c0.8,0.7,1.6,1.3,2.5,2
	c-0.6,0.8-1,1.3-1.4,1.9c-1.1-1.6-2.4-2.9-4.2-4.1c0.1,1.2,0.1,1.9,0.1,2.9c0.6-0.3,0.9-0.5,1.4-0.8c0.4,0.4,0.8,0.9,1.2,1.4
	c-1.4,1.5-2.4,3.3-4.7,3.9c0.2-3.4,0.4-6.6,0.6-9.9c1.7-0.2,2.6,1.2,3.7,1.9c1-1.9,1.9-3.9,3-5.8c0.1-0.2,0.9-0.3,1.1-0.1
	c0.6,0.3,1.1,0.8,1.7,1.3C327.8,6.2,326.6,8,325.4,9.8z M328.3,15c0.1,0,0.3,0,0.4,0c1.1,2.4,2.3,4.7,3.1,7.2c0.2,0.7-0.9,1.8-1.6,3
	c-1.2-2.8-2.3-5.1-3.1-7.5C326.9,17,327.9,15.9,328.3,15z M331.7,20c-0.5-1.2-1-2.1-1.4-3.1c-0.1-0.2-0.1-0.5,0.1-0.6
	c1.4-2,2.7-4,4.2-6c1.7,1.7,1.8,2.4,0.7,4.2C334.2,16.3,333,18,331.7,20z M335.8,16.2c0.8,2.6,1.6,5.1,2.5,7.7
	c0.5,1.4,0,2.3-1.3,3.2c-0.3-0.7-0.5-1.3-0.7-1.9c-0.6-1.8-1.1-3.7-1.9-5.4C333.5,18.1,335,17.4,335.8,16.2z M337.2,28.3
	c1.2-0.8,2.1-1.9,3.1-2.8c1.1,1.6,1.2,1.9-0.1,3.5c-1.2,1.4-2.6,2.6-3.9,3.9C335.3,30.9,335.4,29.5,337.2,28.3z M339.9,30.5
	c1.5,3.8,2.9,7.5,4.3,11.1c-2.4-0.7-4.1-2.6-4.9-5.4c-0.2-0.7-0.2-1.4-0.5-2C337.9,32.7,338.8,31.7,339.9,30.5z M343.9,31.5
	c-1.2-3.7-2.2-7.5-3.5-11.1c-0.7-1.9,0.4-2.9,1.7-4.3c0.7,2.4,1.2,4.7,2,6.8c1.2,3.2,2.3,6.5,3.9,9.5c2,3.9,4.9,7,8.7,9.3
	c3.6,2.1,7.2,4.1,11.3,5.3c0.1-1.5,0.2-2.9,0.3-4.5c1.1,0.2,2.2,0.3,3.2,0.6c0.3,0.1,0.7,0.6,0.7,1c0.1,4,0,8,0,12
	c-0.1,0.1-0.3,0.2-0.5,0.3c-1.9-0.9-3.7-1.8-5.6-2.6c-3.4-1.5-6.7-3.2-9.8-5.3C350.2,44.4,346.2,38.5,343.9,31.5z M363.4,39.6
	c-6.4-2.5-10.8-7-14.2-12.7c-2.3-3.7-3.6-9.6-3.4-14c1-10.2,5.8-18,14.9-23c3.7-2,7.8-3.2,11.9-3.3c7.2-0.2,14.2,1.4,19.8,6.4
	c6,5.4,9.7,12.2,10,20.4c0.2,6.5-1.9,12.2-5.9,17.3c-2.1,2.7-4.4,5.4-7.5,6.9c-3,1.5-6.3,2.8-9.6,3.5
	C374.1,42.4,368.7,41.6,363.4,39.6z M377.1,43.2c0.9,0,1.8-0.2,2.9-0.4v4.3c11.1-3.9,20.2-9.5,23.2-22c1,0.9,1.7,1.5,2.3,2.2
	c0.2,0.2,0.2,0.6,0.1,0.8c-1.3,4-2.5,7.9-4.8,11.5c-2.1,3.2-4.7,5.7-7.7,8c-4.9,3.7-10.5,6.3-16.1,8.7c-0.1,0.1-0.3,0-0.7,0.1
	c-0.1-1.3-0.3-2.6-0.4-3.9c-0.1-2.6,0-5.3-0.1-8C375.8,43.6,376.1,43.2,377.1,43.2z M402.9,22.8c-0.4-0.5,0-1.6,0.1-2.4
	c1.9,1.8,3.6,3.4,5.3,5c1.1,1.1,0.1,2-0.1,3.4C406.2,26.6,404.4,24.8,402.9,22.8z M408.6,19c-0.6,1.3-1.1,2.7-1.6,4.2
	c-2-1.9-2.1-1.9-1.2-4.1c1.1-2.8,2.3-5.6,3.7-8.9c0.7,1.2,1.3,2,1.7,2.9c0.1,0.2,0,0.7-0.1,1C410.2,15.7,409.4,17.3,408.6,19z
	 M415.7,7.8c0.4-0.6,0.8-1.2,1.1-1.8c1.5,1.9,2.9,3.9,4.4,5.9c-0.5,0.6-1.1,1.2-1.7,1.9C418.2,11.7,416.9,9.8,415.7,7.8z M419.2,16
	c1.1-1.6,2.3-3.2,3.6-5c0.6,0.7,0.9,1.1,1.1,1.3c-1.1,2.1-2.1,4.1-3.2,6.3c-0.4-0.5-0.9-1.2-1.4-1.8C419.2,16.6,419.1,16.2,419.2,16
	z M426.5,9.7c-0.1-0.1-0.3-0.2-0.3-0.4c0-0.3-0.1-0.9,0.1-1c0.7-0.5,1.6-0.8,2.3-1.2c0.2,0.4,0.5,0.8,0.5,1.2c0.2,2,0.4,4.1,0.6,6.1
	c0,0.5,0,0.9,0,1.4c-0.1,0.1-0.3,0.2-0.4,0.2c-1.1-0.9-2.2-1.6-3.2-2.6c-1-0.9-1.8-2.1-2.6-3.1c-1.2-1.6-1.1-1.9,0.7-3.1
	c1,1.4,1.9,2.8,2.9,4.1c0.2-0.1,0.4-0.1,0.5-0.2c0.1-0.7,0.2-1.3,0.4-2.2C427.2,9.3,426.9,9.5,426.5,9.7z M420.2,5.1
	c-1.2-2.7-2.4-5.3-3.7-8.1c-1.2,0.9-2.1,1.6-3.2,2.4c-0.4-0.5-0.9-1.1-1.5-1.8c1.5-1,3-2.1,4.5-2.9c0.4-0.2,1.3,0.1,1.6,0.5
	c0.7,1,1.2,2.2,1.8,3.4c0.8,1.6,1.5,3.2,2.4,5C421.6,3.9,421,4.5,420.2,5.1z M396.2-35.6c1.9,7.2,5.6,13.3,11.3,18.1
	c1.1,0.9,2.4,1.7,3.7,2.7c-1.7,1.8-3.3,3.6-5.1,5.3c-0.2,0.2-1-0.3-1.2-0.4c0.3-0.9,0.5-1.4,0.7-2l0,0c-0.4-0.2-0.8-0.3-1-0.6
	c-3.8-3.8-8.2-6.7-12.8-9.4c-2.2-1.3-4.4-1.3-6.6,0.2c2.3,0.9,4.5,1.8,6.8,2.6c-0.4,1.2-1,1.8-2.2,1.4c-3.4-1-6.8-2-10.4-3.1
	c0.1-0.6,0.2-1.2,0.4-2.1c1.6,0.4,3,0.7,4.5,1c0-0.1,0.1-0.2,0.1-0.3c-0.3-0.2-0.5-0.5-0.9-0.8c1.5-1.5,3.2-2.3,5.2-1.9
	c1.8,0.4,3.4,1.1,5.1,1.7c0.1-0.1,0.2-0.2,0.4-0.2c-1.2-2.3-2.2-4.9-3.8-7c-1.4-1.8-3.6-2.9-5.5-4.3c-0.7-0.6-1.2-0.2-1.7,0.5
	c-1.8,2.7-3.1,5.6-3.8,8.8c-0.4,1.8-0.7,3.6-1.1,5.4c-0.9-0.1-1.9-0.2-3-0.3c0.4-7.9,4.8-13.6,9.6-19.4c1.2,1.1,2.4,2.1,3.4,3.2
	c3.5,3.6,6.4,7.5,7.5,12.5c0.2,0.7,0.6,1.5-1,1.8c0.8,0.6,1.4,0.9,1.9,1.3c2.9,2.1,5.8,4.3,8.8,6.4c0.7,0.5,0.8,1.1,0.8,1.8l0,0
	c1.4-1.4,1.4-1.6,0-2.9c-1.9-1.9-4-3.5-5.6-5.6c-1.8-2.5-3.1-5.3-4.6-8.1c-0.3-0.6-0.6-1.2-1.2-2.2c-0.2,0.4-0.4,0.7-0.7,1.2
	c-0.6-0.8-1.2-1.7-1.8-2.4c1-1.5,2-3,3.1-4.8C395.8-36.7,396-36.2,396.2-35.6z M385.1-28.4c1.5-0.4,2.9-0.9,4.6-1.4
	c0.3,0.4,0.7,0.9,1.3,1.8c-2.9,1-5.5,2-8.1,2.8c-0.9,0.3-1.5-0.1-1-1.2c0.6-1.4,1.1-2.9,1.9-4.2c1.2-2.2,2.3-2.1,3.8,0.2
	C386.2-30.5,384.6-30.9,385.1-28.4z M394.9-41.5c0.4,2-0.7,3.1-1.9,4.4c-0.3-2.1-0.6-4.2-0.9-6.3c-0.6-5-1.2-10-1.5-15
	c-0.1-1.9,0.4-3.8,0.6-5.8c0.1,0,0.2,0,0.3,0c0.4,3.5,0.7,6.9,1.2,10.3C393.4-49.6,394-45.5,394.9-41.5z M391.6-93.1
	c-0.8-3-0.1-5.7,1.2-8.2c0.2,0,0.3,0.1,0.5,0.1c-0.5,2.5-1,4.9-1.5,7.4C391.8-93.7,391.7-93.4,391.6-93.1z M393.3-111.4
	c-2.4,1.1-2.5,1.1-2.7-1.5c-0.3-3-0.3-6-0.5-9.1c-0.1-1.4-0.2-2.7-0.5-4.1c0-0.3-0.5-0.8-0.8-0.9c-3.7-1.1-8.6-1-12.3,0.6
	c0.4-0.6,0.7-1.3,1.3-1.6c0.7-0.5,1.6-0.9,2.5-1c3.4-0.4,6.8-0.4,10.1,0.6c0.4,0.1,0.8,0.9,0.8,1.4c0.3,4.1,0.5,8.2,0.8,12.3
	c0,0.5,0.1,0.9,0.2,1.7c0.8-0.6,1.5-1,2.1-1.4c1.2,2.3-0.1,5.9-3.1,8C390.5-108.5,393.6-109.3,393.3-111.4z M383.4-114.1
	c-0.4,0-0.9,0-1.3,0c-0.4,0.1-0.8,0.2-1.4,0.3c0.6-1.2,3.8-3,4.9-2.7c0.3,0.1,0.6,0.7,0.5,1c-0.2,1.7-1.3,2.9-2.8,3.6
	c-2.2,1-4.5,1.9-6.8,2.8c-0.8,0.3-1.5,0.7-2.1,0.9c-2-0.7-4-1.3-5.9-2.1c-1.8-0.8-3.5-1.9-5-3.1c-0.7-0.6-1-1.8-1.4-2.8
	c2.1-0.5,4.9,0.9,5.6,2.5c-1-0.3-2-0.5-3.1-0.8c-0.1,0.1-0.2,0.3-0.3,0.4c0.6,0.5,1.1,1.1,1.8,1.3c1.8,0.5,3.6,0.9,5.3,1.3
	c0.9,0.2,1.5-0.2,1.5-1.2c0.1-4.6,0.2-9.2,0.2-13.8c0-0.7-0.4-1.5-0.9-1.9c-2.4-2-2.9-4.7-2.9-7.7c0-4.1,1.9-7.2,4.8-10.1
	c2.3,2.5,4.1,5.2,4.6,8.6c0.4,2.5,0.3,5-1.1,7.3c-0.2,0.3-0.4,0.8-0.7,1c-1.6,1.1-1.9,2.6-1.8,4.3c0.1,4,0.2,8.1,0.2,12.1
	c0,1.2,0.5,1.5,1.7,1.2c2.1-0.6,4.3-1.3,6.4-1.9C383.4-113.7,383.4-113.9,383.4-114.1z M357.5-110.2c-0.9-0.5-1.4-0.9-2.1-1.3
	c-0.9,2.3,2.3,3.2,1.8,5.2c-2.8-1.2-4-4.5-3-8.7c0.7,0.5,1.3,0.9,2.2,1.5c0.2-2.4,0.4-4.6,0.5-6.7c0.2-2.4,0.2-4.8,0.4-7.2
	c0-0.3,0.5-0.8,0.8-0.8c3.2-0.3,6.4-0.5,9.6-0.7c1.8-0.1,3.1,0.8,4,2.6c-4.5-1.7-8.8-1.6-13.3-0.4
	C358.6-121.2,358.1-115.8,357.5-110.2z M357.8-129.7c3.4-1.5,6.8-3.1,10.3-4.7c0.3,1.1,0.7,2.3,1.1,3.7c-3.8,0.5-7.5,0.9-11.2,1.3
	C357.9-129.5,357.9-129.6,357.8-129.7z M379.3-130.5c0.4-1.4,0.8-2.7,1.1-3.8c3.3,1.5,6.6,2.9,9.9,4.3c0,0.1,0,0.1,0,0.2
	C386.7-130,383.1-130.2,379.3-130.5z M395.2-116.4c-0.2-3.9-0.4-7.8-0.6-11.7c1.4-0.4,2,0.2,2.1,1.2c0.2,2.9,0.5,5.8,0.5,8.7
	c0,0.6-1,1.3-1.5,1.9C395.4-116.2,395.3-116.3,395.2-116.4z M406.2-115.2c-3.8,1.8-7.2,4-9.2,7.9c-0.1,0.2-0.3,0.5-0.4,0.7
	c0,0.1-0.1,0.1-0.3,0.2c-1-2.6-0.2-4.1,2.4-6.2c1.4-1.1,3-2,4.5-2.8c2-1.1,4-2.1,4.9-4.5C408.8-117.7,408.1-116.1,406.2-115.2z
	 M404.5-133.3c0.3,2.5-0.8,4.2-3.1,4.9c-0.6-0.9-1.1-1.8-1.7-2.6c-0.8-1-0.3-3.6,0.8-4.1c1.2-0.6,2.5-1.3,4.4-1.2
	c-1.1,1.5-1.9,2.7-3,4.3C403-132.5,403.8-132.9,404.5-133.3z M403.3-128c0.2,3.3-0.3,4.5-2.3,5.2C401.7-124.7,400.3-127.2,403.3-128
	z M404.3-126.3c0.1-0.3,0.9-0.4,1.3-0.6c0.8-0.4,1.6-0.7,2.3-1.1c0.7,1.8,0.1,3.7-1.4,4.4c-1,0.5-2,1-3.4,1.7
	C403.5-123.5,403.8-124.9,404.3-126.3z M407.3-122.1c0,2.5-2.5,4.6-5.1,4.7C402.8-120,404.1-122.1,407.3-122.1z M407.4-129
	c-1,0.5-2.1,1.1-3.2,1.7c-0.2-2.7,2-5.8,5.1-5.6C409.6-131,409-129.8,407.4-129z M405.5-133c-0.3-3.4,0.9-4.7,4.2-4.7
	C410.2-135.1,409.3-134,405.5-133z M406.4-141.4c1.1-0.3,2.1-0.7,3.1-0.9s1.3,0.2,0.9,1.1c-0.5,1.2-1.2,2.1-2.5,2.5
	c-2.6,0.8-5.1,1.6-7.7,2.3c-1.2,0.3-1.9,0.9-1.9,2.3c0,1.5-0.2,2.7,1.1,4.1c0.9,1,0.9,2.9,1,4.4c0.1,1.2,0,2.5,0,3.9
	c0.6-0.1,1.2-0.3,1.8-0.4c0.3,2.6-1.3,5.6-3.5,6.1c0-1.6,0.1-3.2,0-4.8c-0.2-2.1-0.6-4.2-1-6.4c-0.3-1.5-1.2-2.4-2.6-2.4
	c0-2.8,0-5.5,0-8.2c0-0.3,0.5-0.9,0.8-1C399.5-139.6,403-140.5,406.4-141.4z M400.8-141.4c-2.6,1.9-9.4,0.5-12.2-2.5
	C392.6-143.1,396.7-142.3,400.8-141.4z M373-149c0.5-0.2,1.3-0.2,1.9,0c2.4,0.8,4.8,1.9,7.2,2.7c6.5,2.2,10.2,6.8,11,13.6
	c0.6,5.5,0.8,11,1.1,16.6c0,0.4-0.5,0.9-0.7,1.4c-0.1,0-0.3-0.1-0.4-0.1c-0.1-1.8-0.3-3.7-0.4-5.6c-0.4-4.3-0.5-8.6-1.1-12.9
	c-0.5-3.4-1.9-6.4-5.1-8.3c-1.2-0.7-2.5-1.1-4.3-0.8c0.7,0.4,1.2,0.8,1.6,1c2.4,1,4.6,2.3,5.6,4.8c0.5,1.1,0.3,2.5,0.4,3.8
	c-1.2-0.1-2.4,0.1-3.5-0.3c-2.9-1.2-5.2-3-6.3-6.1c-0.2-0.5-0.2-1-0.2-1.6c2.3,2.2,4,5.1,7.5,5.5c0.2-1.6-0.7-2.9-2.7-4
	c-1.5-0.9-3-1.9-4.4-2.9c-0.6-0.4-0.9-1.2-1.5-2h3.3c0-0.1,0.1-0.2,0.1-0.3c-1.2-0.5-2.5-0.9-3.8-1.4c-0.1,1-0.1,1.9-0.2,3
	c-1.4-1.8-2.5-3.3-3.9-5c-1.2,1.5-2.5,2.9-3.9,4.6c-0.1-1-0.2-1.7-0.3-2.6c-0.9,0.4-1.9,0.8-3.1,1.2c1,0.3,1.7,0.6,2.5,0.9
	c-0.6,1.5-1.8,2.1-2.9,2.9c-1.6,1.2-3.7,1.9-4.8,3.8c-0.2,0.4-0.4,0.8-0.7,1.4c4,0.2,5.2-3.3,7.8-4.8c0.1,0.1,0.2,0.1,0.4,0.2
	c-0.8,1.3-1.4,2.8-2.3,3.9c-1.5,1.9-3.5,3.1-5.8,3.7c-0.2,0.1-0.4,0.1-0.7,0.2c-1.7,0.3-2.1-0.1-2-1.8c0-2.1,1.1-3.6,2.7-4.8
	c1.2-0.9,2.5-1.8,3.8-2.7c0-0.2-0.1-0.4-0.1-0.5c-0.6,0.1-1.3,0.1-1.9,0.3c-2.8,1.2-4.9,3.2-5.4,6.2c-1,6.8-1.7,13.7-2.5,20.5
	c-1.1,0-1.2-0.2-1.1-1.5c0.2-3,0.3-5.9,0.4-8.9c0.2-4.2,0.8-8.3,2.2-12.2c1-2.9,3.2-5,5.8-6.3C366-146.1,369.5-147.5,373-149z
	 M360.6-144.3c-1.7,2.6-9.4,4.6-11.7,3C352.9-142.4,356.7-143.3,360.6-144.3z M337.8-142.3c5,1.2,9.9,2.5,15.1,3.7v9.4
	c-2.3,0.4-2.3,2.4-2.4,4.2c-0.2,2.6-0.1,5.1-0.1,7.7c0,0.6,0,1.2,0,1.8c-2.9-0.4-4.6-3.4-4-7.1c0.8,0.6,1.4,1,1.9,1.4
	c0-1.7-0.1-3.6,0-5.5c0.1-1.5,0.9-2.9,1.1-4.5c0.2-1.5,0-3-0.1-4.4c0-0.2-0.8-0.4-1.2-0.5c-2.9-0.9-5.8-1.7-8.6-2.7
	C337.7-139.4,337.4-140.1,337.8-142.3z M343.9-135.8c1.2,0.3,2.5,0.6,3.8,1c0.7,0.2,1.2,2.4,0.8,3.2c-0.6,1.2-1.1,2.4-1.7,3.6
	c-2-0.2-2.9-1.4-3-4c0.5,0.2,0.9,0.4,1.3,0.6C344.5-132.9,343.2-133.9,343.9-135.8z M347.1-127.2c0.1,1.4,0.2,2.8,0.4,4.3
	c-2.4-1.2-2.8-1.8-3.1-4.8C345.3-127.4,346.2-127.3,347.1-127.2z M338.6-137.3c1.5,0.5,2.8,0.9,4.1,1.3c0.1,1.2,0.2,2.3,0.2,3.4
	C339.6-133.2,338.2-134.3,338.6-137.3z M339-132.6c1.3,0.4,2.6,0.6,3.6,1.3c0.5,0.3,0.7,1.4,0.8,2.2c0.1,0.4,0,0.9-0.1,1.3
	C339.9-128.6,338.6-129.9,339-132.6z M339.5-126.5c-0.1-0.9,0-1.3,0.9-1.1c1.4,0.4,3.3,0.3,3.5,2.6c0.1,0.6,0.9,1.1,1.3,1.7
	c0.2,0.3,0.3,0.8,0.4,1.2c-0.1,0-0.3,0.1-0.4,0.1c-0.9-0.4-1.9-0.7-2.8-1.2C340.9-123.8,339.8-124.7,339.5-126.5z M346.3-117
	c-2.2-0.8-4.6-1.3-5.4-3.9c-0.1-0.4-0.1-1.1,0.1-1.2c0.2-0.2,0.9-0.1,1.3,0c1,0.3,1.9,0.8,2.9,1.2
	C345.4-119.7,345.8-118.4,346.3-117z M352-107.8c-2.5-3.7-6.3-5.3-10-7.1c-1.6-0.8-2.1-2.1-1.7-4.1c2.2,2.7,5.4,3.7,8.2,5.4
	c0.7,0.4,1.4,0.9,2,1.4C351.9-111.2,352.8-109.9,352-107.8z M353.4-118.4c0,0.5-0.1,1.1-0.2,1.7c-1.1-0.4-1.9-1-1.9-2.1
	c0.1-2.5,0.2-5,0.3-7.5c0-0.7,0.3-1.5,1.2-1.2c0.4,0.2,0.9,1,0.9,1.5C353.7-123.5,353.5-120.9,353.4-118.4z M354-104.6
	c-0.4-0.5-0.1-1.7-0.1-2.6c1.5,1.4,2.9,2.7,4.6,4.3c0.3-3.6,0.7-6.7,0.9-9.9c0.2-3.7,0.2-7.3,0.3-11c0-1.8,0.4-2.4,2.2-2.2
	c2.9,0.3,5.7,0.9,8.5,1.5c0.4,0.1,0.8,0.6,0.8,1c0.2,2.6,0.4,5.2,0.5,7.8c0,0.7-0.2,1.4-0.6,2.3c-2.2-3.8-6.5-3.1-9.8-5.1
	c0,1.9-0.1,3.5,0,5.1c0,0.4,0.5,1,0.9,1.3c3.4,2.4,7.2,4,11.2,4.9c1.4,0.3,3.1-0.3,4.5-0.9c2.7-1.1,5.4-2.5,8-3.9
	c0.5-0.3,0.9-1.1,1-1.7c0.1-1.4,0-2.9,0-4.8c-3.4,2.1-7.5,1.7-9.7,5.1c-0.1,0-0.3-0.1-0.4-0.1c-0.1-0.8-0.4-1.6-0.4-2.4
	c0.1-2.5,0.3-5,0.5-7.5c0-0.4,0.5-1,0.8-1c2.9-0.6,5.7-1.2,8.6-1.5c1.6-0.2,1.9,0.4,2,2.2c0.2,5,0.4,10,0.7,15
	c0.1,1.7,0.4,3.4,0.6,5.2c2.2-0.6,3.2-2.5,4.4-4.1c1,3.3-1.6,7-5.6,7.7c-0.5-3.4-1-6.8-1.5-10.4c-0.8,0.6-1.6,1.2-2.5,1.9
	c2.3,2.4,2.7,5.5,3.1,8.6c0.2,1.7,0.3,1.7,1.9,1c0.2-0.1,0.3-0.1,0.6-0.2c0.2,2.6,0.3,5.2,0.7,7.7c1,5.8,0,11.3-2.6,16.6
	c-0.2,0.4-0.1,1.2,0.1,1.6c0.7,1,1.5,2,2.3,2.9c0.6,0.7,0.9,1.3,0.6,2.2c-1.3,4.6-2.6,9.2-3.9,13.8c-0.7,2.5-1.5,5-2.2,7.5
	c-0.1-0.1-0.2-0.1-0.3-0.1c-1.5-1.3-1.4-2.7-0.6-4.4c2.1-4.6,3.5-9.5,4.2-14.5c0.3-2,0.1-3.7-1.2-5.2c-1.1-1.2-1.8-2.8-2.7-4.1
	c-0.5-0.8-0.4-1.3,0.3-1.9c2.2-1.8,3.7-4.1,4.3-6.8c0.8-3.6,0.8-7.1-0.4-10.6c-0.6-1.9-1.9-2.8-3.2-3.6c-0.8,2.5-1.6,5-2.5,7.6
	c-1.3-1-2-1.7-1.5-3.2s0.5-3.2,0.8-4.8c0.2,0,0.5-0.1,1.1-0.2c-2.3-1.3-4.4-2.5-6.4-3.7c-0.1,0.1-0.1,0.2-0.2,0.3
	c0.3,2.1,0.3,4.1-0.9,5.9c-0.5-0.8-1-1.6-1.5-2.4c-2,2.8-4,5.5-5.9,8.2c-0.2,0.3-0.1,0.8,0.1,1.2c1.2,2.8,2.6,5.4,3.7,8.2
	c1.6,4,1,8.2,0.2,12.3c-0.3,1.7-1,3.3-1.6,5.2c-0.7-1.5-1.1-2.7-0.8-4.2c1.6-7.1,0.5-13.8-3.1-20.1c-1.3-2.3-2.8-4.7-3.5-7.2
	c-1-3.2-0.8-2.7,2.5-4.1c0.3,2.2,0.6,4.5,0.9,6.7c0.2,0.1,0.4,0.1,0.6,0.1c1.2-2.4,2.5-4.8,3.7-7.2c0.2-0.5,0-1.2,0.1-1.8
	s0.3-1.1,0.6-1.9c-0.2,0.1-0.7,0-1.1,0.2c-2.4,1.4-4.9,2.9-7.3,4.2s-4.2,3-4.4,5.9c-0.2,2.9-0.4,5.9-0.1,8.8
	c0.3,2.5,1.4,4.8,3.9,6.1c1.6,0.9,1.7,1.2,0.7,2.9c-0.9,1.5-1.8,3-2.9,4.3c-0.9,1.1-1.2,2.3-1,3.6c0.3,2.1,0.7,4.2,1.2,6.2
	c0.3,1.1,0,1.6-1.2,1.9c-0.9-3-1.8-5.9-2.8-8.9c-0.3-1-0.1-1.9,0.7-2.6c2-1.8,2.5-3.5,1.2-6.2c-2.3-5.1-2.4-10.6-1.4-16.2
	c0.3-1.9,0.4-3.9,0.6-5.9c0.3,0.1,0.5,0.2,0.8,0.2c1.1,0.4,1.6,0,1.9-1.1c0.4-2.1,0.9-4.3,1.4-6.4c0.2-0.9,0.7-1.7,1.1-2.6
	c-0.5-0.4-1.2-1-2.1-1.7c-0.4,3.7-0.8,7.2-1.3,11C357.4-100.9,355.5-102.6,354-104.6z M391.4-72.9c-1.8-1.3-1.9-2.6-0.6-4.8
	C391-76.1,391.1-74.7,391.4-72.9z M372.8-83.2c-0.2,0-0.4,0.1-0.6,0.1c-0.7-2.7-1.4-5.3-2-8c-0.1-0.5,0.3-1.1,0.6-1.6
	c0.4-0.7,0.9-1.2,1.6-2.1C373.3-90.7,373.7-87,372.8-83.2z M367.5-100.1c0.7-0.5,1.5-0.9,2.3-1.4c0.9,1.6,0.5,3.3-1.1,5.1
	c-0.6-0.9-1.1-1.9-1.6-2.9C367-99.5,367.3-100,367.5-100.1z M357.2-73c0.1-1.5,0.1-2.8,0.2-4.2C359-76.1,358.9-74.2,357.2-73z
	 M356.8-93.3c-0.6-2.8-1.1-5.4-1.6-8C357-100.1,357.9-95.6,356.8-93.3z M353.6-42.5c1.2-6.8,1.8-13.7,2.7-20.5
	c0.1-0.5,0.1-1,0.2-1.5c0.2,0,0.4,0,0.6,0c0.2,1.6,0.6,3.2,0.6,4.8c0.1,7.5-0.9,15-1.8,22.4c0,0.1-0.1,0.2-0.2,0.5
	C354.4-38.6,353.1-39.8,353.6-42.5z M352.7-37.4c0.7,0.9,1.2,1.5,1.6,2.1c1,1.4,1.9,2.8,3,4.1c1.6,2,3.8,2.9,6.7,2.7
	c-0.5-0.8-0.7-1.8-1.2-2s-1.3,0.2-2.3,0.5c0.4-0.7,0.7-1.2,1-1.7c0.7-1,1.5-1,2.3-0.2c1.7,1.9,2.9,4,3.3,6.8
	c-5.2-0.9-10.2-2.1-13.7-6.7c-0.9,2.2-1.8,4.3-2.6,6.3c-1.1,3.1-3.1,5.4-5.6,7.5c-1.1,0.9-2.3,1.7-3.3,2.6c-0.8,0.7-1.3,1.6-2.1,2.6
	c-0.6-0.8-1.2-1.4-1.8-2.1C345.6-20.5,350.3-28,352.7-37.4z M322.7-7.5c4.6-1.2,8.7-3.5,12.8-6c1.7-1.1,1.7-1.1,3.2,0.8
	c-1.2,0.9-2.4,1.9-3.7,2.7c-2.2,1.4-4.6,2.7-6.8,4.1c-1.4,0.9-2.8,1.1-4.3,0.5c-1.1-0.4-2.4-0.7-3.5-1.1c0-0.1,0-0.3-0.1-0.4
	C321.1-7.1,321.9-7.3,322.7-7.5z M304.9,40.7c-1.9-0.1-2.8-1.2-2.2-3c1.2-3.7,2.7-7.3,3.5-11.1c1.5-7.4,2.3-15,0.6-22.5
	c-0.3-1.2-0.7-2.3-1-3.4c-0.5-1.9-0.1-2.8,1.7-3.6c5.8-2.6,11.6-2.3,17.4-0.1c3.1,1.2,5.9,2.8,8.5,5.2c-0.7,1-1.3,1.9-1.9,2.9
	C330,4,328.6,2.9,327.1,2c-4.7-2.7-9.7-3.6-15.1-2.3c-0.8,0.2-1.2,0.6-1.1,1.6c1.1,9.5,0.3,18.9-1.1,28.3c-0.1,0.8,0,1.6,0,2.6
	c7.4-2,13-6,17.5-11.7c1.8,2.4,1.6,3.9-0.3,5.9c-3.6,3.8-7.5,7.2-11.8,10.3C312.1,38.8,308.9,40.9,304.9,40.7z M341.5,50.5
	c-0.6,0.9-1.8,0.7-2.8,0.3c-7.4-2.4-14.8-4.7-22.2-7.1c-1-0.3-2-0.8-2.8-1.4c-1.3-0.8-1.2-1.3,0-2.2c3.1-2.2,6.3-4.4,9.3-6.8
	c4.2-3.5,8.1-7.3,11-12c1,1.4,1,2.5,0,3.8c-2.8,3.9-6.1,7.2-9.4,10.6c-0.8,0.9-1.5,1.8-2.2,2.8c-0.5,0.6-0.4,1.2,0.4,1.5
	c3.8,1.5,7.5,3.1,11.3,4.6c0.3,0.1,0.7,0.1,1.3,0.2c-0.6-2.3-1.1-4.4-1.7-6.5c-0.7-2.6-1.4-5.2-2.1-7.8c-0.3-1.2,0.6-2.4,2.1-3.1
	c1.1,3.7,2,7.5,3.3,11.1c1.2,3.3,2.7,6.4,4.1,9.6C341.3,48.9,341.8,50,341.5,50.5z M333.4,41c-2.8-0.9-5.6-1.8-8.4-2.8
	c-0.1-0.1-0.1-0.3-0.2-0.4c2-1.6,4-3.1,6.2-4.9c0.2,1,0.8,1.8,0.6,2.5c-0.2,0.7-1.1,1.1-1.8,1.8C331.3,38.3,333.6,38.5,333.4,41z
	 M390.2,57.5c-3.1,2-6.4,3.4-9.7,5.1c-1.4,0.7-2.8,1.3-4.2,2c-1.2,0.6-2.4,0.5-3.6,0c-3.6-1.6-7.3-3.2-10.9-4.9
	c-5-2.3-9.6-5.1-14-8.4c-1.9-1.4-3.8-3-5.8-4.4c-2-1.5-2.1-3.9-3-5.8c0.1-0.1,0.2-0.2,0.3-0.4c1.2,0.7,2.5,1.4,3.7,2.1
	c4.8,3,9.5,6.2,14.5,8.9s10.2,5,15.3,7.4c0.8,0.4,2,0.3,2.8,0c3.9-1.7,7.8-3.4,11.5-5.5c6.2-3.4,12.1-7.1,18.2-10.7
	c1.1-0.6,2.3-1.1,3.4-1.7c0.1-0.1,0.1-0.1,0.1-0.2c0,0.1,0,0.1,0,0.1c0,0.1,0,0.1,0,0.1l0,0c-0.4,2.4-1.5,4.4-3.6,5.9
	C400.2,50.6,395.3,54.3,390.2,57.5z M434.8,42.4c-2.2,0.8-4.5,1.5-6.8,2.3c-5.8,2-11.5,3.9-17.3,5.9c-1.1,0.4-2.2,0.8-3.4,1
	c-0.4,0.1-1,0-1.4-0.3c-0.2-0.1,0-0.8,0.2-1.2c1.4-3,2.9-5.9,4.2-8.9c0.9-2.1,1.6-4.4,2.4-6.7c0.3,0,0.8,0.1,1.2,0.2
	c0-0.1,0.1-0.1,0.1-0.2c-1.1-1-2.2-2-3.4-3c-0.8,2.3-1.4,4.5-2.2,6.6c-0.8,2-2.7,2.8-4.4,3.8c-0.1,0.1-0.1,0.1-0.1,0.2
	c0-0.1,0-0.2,0.1-0.3c0.8-2.1,1.6-4.3,2.4-6.4c1.6-4.5,3.2-9,4.9-13.6c0.8,0.7,1.7,1.4,1.2,2.9s-0.8,3.1-1.1,4.3
	c1,0.7,1.9,1.1,2.6,1.8c2.5,2.2,5,4.4,7.5,6.6c0.3,0.3,0.6,0.7,1,1.2c-2.7,0.9-5.1,1.7-7.6,2.6c-0.1-2.2,1.7-2.8,3.6-3.6
	c-1.4-1-2.5-1.7-3.5-2.4c-0.1,0.9,0,1.6-0.2,2.2c-0.7,2.5-1.4,4.9-2.1,7.4c-0.1,0.3-0.1,0.6-0.1,1.1c4.5-2.1,8.9-4.1,13.6-6.2
	c-1.3-1.5-2.5-2.8-3.6-4.1c-1.1-1.2-2-2.6-3.2-3.8c-1.3-1.4-1.3-2.9-0.4-4.6c0.3,0.3,0.7,0.5,0.9,0.8c3.4,4.8,7.9,8.5,13.1,11.3
	c0.7,0.4,1.4,0.8,2,1.2c0.4,0.3,0.7,0.8,1.1,1.1C435.6,41.8,435.3,42.2,434.8,42.4z M443.2,40.9c-2.4,0.2-4.6-0.7-6.6-1.9
	c-6.1-3.4-11.1-8-15.5-13.4c-1.5-1.9-3-3.8-4.4-5.8s-1.2-2.3,0.6-4.5c1.2,1.7,2.4,3.3,3.6,5c3.7,5.2,8.6,9.1,14.3,11.8
	c0.1,0.1,0.2,0.1,0.4,0.1c2.7,1.1,3,0.7,2.8-2.2c-0.4-6.1-0.8-12.2-1.1-18.3c-0.1-3.5,0-6.9,0.1-10.4c0-1-0.4-1.5-1.2-1.8
	c-2.8-1-5.5-0.6-8.2,0.1c-2.1,0.5-4,1.3-6.2,2c-0.5-1-1-2.1-1.5-3.2c6.8-3.6,13.6-4.6,20.8-1.9c1.5,0.6,2,1.7,1.6,3.3
	c-0.6,3.3-1.6,6.5-1.8,9.8c-0.5,8,0,15.9,3,23.4c0.6,1.4,1.1,2.9,1.6,4.4C446.1,39.6,445.3,40.8,443.2,40.9z M408.9,41.1
	C408.9,41.2,408.9,41.2,408.9,41.1c0,0.2,0,0.2,0,0.2l0,0l-0.1-0.1C408.8,41.2,408.9,41.1,408.9,41.1z M404.1,41.8
	c0,0.1-0.1,0.1-0.1,0.2C404,41.9,404,41.8,404.1,41.8C404.1,41.8,404.1,41.8,404.1,41.8z M369.9-117.6c-2.9-0.2-5.7-0.4-7.7-2.7
	c-0.5-0.5-0.8-3.1-0.4-3.6c0.1-0.1,0.4-0.3,0.6-0.3c1.8,0.3,3.7,0.5,5.5,0.9c1.4,0.3,1.9,1.4,2,2.8
	C370-119.6,369.9-118.6,369.9-117.6z M368.8-119.6c0-2.2-2.4-3.1-5.5-2.9C363.6-119.9,365-119.3,368.8-119.6z M378.5-117.4
	c0-1.5-0.1-2.7,0-3.8c0.2-1.5,1.6-2.1,2.8-2.4c1.4-0.3,2.9-0.4,4.3-0.6c0.7-0.1,0.9,0.2,1.1,0.9c0.4,2.9-1.1,4.1-3.7,4.9
	C381.7-117.9,380.2-117.8,378.5-117.4z M385.2-122.5c-3.7-0.3-5.8,0.9-5.4,3C383.8-119.5,384.6-119.9,385.2-122.5z M380.5-106.2
	c1.4-0.4,4.3,2.6,4.6,5.1C383.4-102.9,381.9-104.6,380.5-106.2z M364.2-102.2c0.3-2.4,2.5-4.5,3.9-3.7
	C366.8-104.7,365.5-103.4,364.2-102.2z M366.1-107.2c-1.2,1.6-2.3,3-3.5,4.6C362.9-105.2,364.6-107.4,366.1-107.2z M385.6-103.1
	c-1.3-1.4-2.4-2.7-3.5-4C383.9-107.5,385-106.2,385.6-103.1z M378.1-104.7c1.2-0.6,4,1.2,4.8,3.2
	C381.4-102.5,379.9-103.6,378.1-104.7z M366.7-102.9c1.2-1.8,2.4-2.4,3.6-1.7c-1.2,0.8-2.4,1.4-3.5,2.1
	C366.9-102.7,366.8-102.8,366.7-102.9z M377-102.7c-0.1,0.1-0.1,0.2-0.2,0.3c-0.1-0.1-0.1-0.2-0.1-0.3
	C376.8-102.7,376.9-102.7,377-102.7z M399.5,13.4c-0.2,2.1-0.3,3.7-0.4,5.2c-0.1,2.7-1.5,4.9-2.8,7.1c-3.2,5.6-7.8,9.6-13.9,11.7
	c-8.7,3-16.7,1.5-24.1-4c-6.2-4.6-9.4-10.9-9.8-18.4c-0.3-6.1,1.5-11.8,5.8-16.6c4.5-5,10.1-8,16.7-8.9c5.2-0.7,10.2,0.3,14.8,2.9
	c6.6,3.6,11.1,8.9,12.7,16.3C399.1,10.3,399.3,12.2,399.5,13.4z M362.5,9.7c-0.4,0.2-0.7,0.3-1,0.4c-0.2,0.1-0.3,0.2-0.4,0.3
	c-4.5,3.2-6.9,7.7-7.4,13.2c-0.3,3.6-0.4,3.6,3.1,4.4c0.1,0,0.3,0,0.4,0.1c5.5,1.2,10.8,0.3,15.6-2.6c4.1-2.5,7.2-6,9.3-10.3
	c0.3-0.7,0.2-1.2-0.5-1.4c-1-0.3-2-0.5-3-0.8c-0.9-0.3-1.4,0.1-1.8,0.9c-3.1,5.4-7.3,9.6-13.5,11.1c-2,0.5-4.1,0.4-6.2,0.6
	c0.2-5,2.4-8.4,5.9-11.2c0.3-0.3,0.6-0.9,0.5-1.3C363.3,11.8,362.9,10.8,362.5,9.7z M375.5,26.3c2.5,0.7,4.6,1.5,6.9,2
	c3.6,0.7,7.2,0.6,10.5-1.1c0.5-0.2,1.1-0.8,1.1-1.2c0-3.8-0.6-7.6-2.8-10.7c-2.8-4-6.4-6.9-11.4-8.1c-3.3-0.8-6.7-1.3-10-0.5
	c-0.5,0.1-1.2,0.6-1.2,0.8c0.1,1.1,0.3,2.3,0.8,3.4c0.5,1,1.2-0.1,1.9-0.1c0.1,0,0.3,0,0.4,0c2.9-0.2,5.8,0,8.6,1
	c4,1.4,7.3,3.6,9.1,7.5c0.8,1.7,1.3,3.5,2,5.4c-4.6,1.2-8.4-0.4-12.2-1.9C378.2,23.8,377,24.9,375.5,26.3z M384.4,7
	c0.1-0.5,0.1-0.8,0.1-1.1c0.2-7.1-4.4-11.2-9.2-15.2c-0.4-0.3-1.3-0.4-1.7-0.1c-1.5,1-3.1,2-4.4,3.3c-4,4.2-6.3,9.2-5.4,15.2
	c0.6,3.8,1.9,7.2,4.5,10.1c0.2,0.3,1,0.5,1.3,0.3c1-0.8,1.9-1.7,2.8-2.5c-8.2-7.6-5.7-18.9,1.9-24c3.7,3,5.8,6.8,6,11.7
	c0,0.4,0.3,0.9,0.6,1.1C382,6.3,383.1,6.6,384.4,7z M391.9-1.1c-2.5-2.2-5.2-3.4-8.8-3.9c3.3,3.8,4,8.1,4.8,12.5
	c0.2,0.9,0.6,1.2,1.4,0.6c1.6-1.2,3.1-2.3,4.7-3.5c1.7-1.3,1.7-1.8,0-3.6c-1.3,1-2.7,1.9-4,2.9c-0.7-1.5-1.3-2.8-1.8-4.2
	c-0.4-0.9-0.1-1.3,0.9-1.2C390-1.4,391-1.3,391.9-1.1z M364.5-4.9c-2.6-0.1-6,1.8-8.5,4.3c1.5-0.3,2.9-0.5,4.6-0.9
	c-0.9,2-1.5,3.6-2.4,5.4c-1.6-1.3-3-2.4-4.4-3.6c-1.3,1.2-1.3,1.7-0.1,2.7c1.5,1.3,3,2.5,4.6,3.6c1.4,1,1.9,0.7,2.4-0.9
	c0.6-2,1.2-4,1.9-6C363.2-1.7,363.9-3.2,364.5-4.9z M353.2,9.8c-0.9,1.2-1.5,2.6-2.5,3.6c-1.3,1.4-1.3,2.8-0.6,4.5
	c2.7-2.9,5.3-5.8,8-8.8c-2.4-1.4-4.5-2.7-6.5-3.9C349.7,7.8,352.2,8.4,353.2,9.8z M397.7,17.9c0.1-0.7,0.2-1.3,0.3-1.9
	c0.3-2.1-1.1-3.4-2.5-4.7c-1-1-1.1-1.6,0-2.5c0.2-0.2,0.4-0.5,0.7-0.7c1-1,0.9-1.8-0.2-2.9c-2,1.6-4,3.3-6.2,5
	c1.5,1.3,3,2.3,4.3,3.5C395.3,15.1,396.4,16.5,397.7,17.9z M376.3,37.1c0.8-0.1,1.4-0.2,2.1-0.2c1.1-0.2,1.7-0.6,1.5-1.9
	s-0.2-2.7-0.3-4.1c0-0.3-0.1-0.8-0.4-1c-0.9-0.5-1.8-0.9-2.9-1.4C376.3,31.4,376.3,34.1,376.3,37.1z M372.3,28.1
	c-1.2,0.7-2.2,1.2-3.1,1.8c-0.3,0.2-0.5,0.6-0.5,1c-0.1,1.6,0,3.2-0.1,4.8c-0.1,1.6,1.3,1.1,2.1,1.3c0.9,0.3,1.2-0.4,1.3-1.2
	C372.1,33.4,372.2,31,372.3,28.1z M372.8-3.1c-2.2,1.4-2.4,3.4-2.7,5.2c-0.4,2.5,0.1,2.9,2.5,2.2c0.1,0,0.1-0.1,0.2-0.2
	C372.8,1.8,372.8-0.5,372.8-3.1z M378.1,4.7c0.9-1.9-0.4-6-2.2-7.2c0,2.3,0,4.6,0,6.7C376.7,4.4,377.4,4.5,378.1,4.7z M406.3-12.7
	c-0.3,0.3-0.6,0.6-0.9,0.8C405.8-12.2,406-12.4,406.3-12.7z M374.1-141.5c-1,2.4-2,4.8-2.9,7.2c-0.6-3.7,0.6-6.9,3-9.6
	c2.6,2.7,3.5,5.9,3,9.6c-0.9-2.4-1.8-4.7-2.8-7.1C374.4-141.5,374.2-141.5,374.1-141.5z M374.5-138.1c0.5,1.6,1.1,3.2,1.5,4.9
	c0.5,2.3,0.3,2.6-1.7,3.9c-2.1-1.3-2.7-2.6-1.8-4.9c0.5-1.3,1.1-2.6,1.6-3.8C374.2-138.1,374.4-138.1,374.5-138.1z M374.1-130.6
	c2-1.7,1.4-3.1-0.1-4.9C373.5-133.8,372.4-132.3,374.1-130.6z"/>
<linearGradient id="SVGID_00000047751533981310498860000006389128576767073418_" gradientUnits="userSpaceOnUse" x1="-2239.3318" y1="-793.5218" x2="-2111.4319" y2="-793.5218" gradientTransform="matrix(-1 0 0 -1 -2132.7234 -166.5)">
	<stop  offset="0" style="stop-color:#A47122"/>
	<stop  offset="0.5" style="stop-color:#F2D26B"/>
	<stop  offset="1" style="stop-color:#A47122"/>
</linearGradient>
<path style="fill:url(#SVGID_00000047751533981310498860000006389128576767073418_);" d="M85.3,550.9c2.5,0.1,5.1,0.2,7.6,0.1
	c3-0.1,6-0.4,9-0.8l2.3-0.4l0,0c0.9-0.1,1.8,0.5,1.9,1.4c0,0.1,0,0.1,0,0.2l0.2,2.2c0.2,2,0.3,4,0.3,6c0,2.1,0,4.2-0.2,6.3
	c-0.2,3.4-0.6,6.9-1.3,10.3c-0.6,3.3-1.4,6.7-2.5,9.9c-0.9,2.7-1.9,5.5-3.2,8.2s-2.8,5.3-4.7,7.6l-1.2,1.6l0,0
	c-0.6,0.7-1.6,0.9-2.3,0.3l-1.6-1c-1.4-0.9-3-1.7-4.5-2.4c-1-0.5-2-0.9-3.1-1.2c-0.2,0.7-0.4,1.4-0.8,2.1c-0.5,1.2-1.2,2.3-2.1,3.2
	c-1,1.1-2.1,2-3.4,2.6l0,0l0,0l0,0h-0.1c-1.2,0.6-2.6,0.9-4,1c-1.4,0-2.8-0.1-4.1-0.5c-1-0.3-1.9-0.8-2.8-1.4
	c-0.2,0.4-0.3,0.9-0.4,1.4c-0.4,1.3-0.6,2.6-0.7,3.9c0,0.1,0,0.1,0,0.2c1.4,0.1,2.8,0.6,4,1.2c1.7,0.9,3.1,2.4,4.1,4.3
	c0.8,1.5,1.2,3.2,1.2,4.9c0,1.2-0.2,2.4-0.6,3.5c0.2,0.1,0.3,0.3,0.5,0.4c1.1,1.1,2,2.4,2.6,3.8c0.6,1.4,0.9,3,1,4.6
	c0,1.4-0.2,2.8-0.7,4.1c-0.3,0.9-0.7,1.7-1.2,2.4c0.1,0.2,0.3,0.3,0.4,0.5c0.4,0.5,0.9,1,1.3,1.5l0.7,0.7l0,0
	c0.3,0.4,0.5,0.9,0.4,1.3l-0.1,1c-0.1,1.6-0.4,3.3-0.7,5c-0.2,1.3-0.5,2.6-0.9,3.8c0.2,0.2,0.4,0.5,0.6,0.7c0.4,0.5,0.7,1,1.1,1.6
	c0.9,1.5,1.7,3.1,2.1,4.9c0.4,1.6,0.4,3.2,0.1,4.9c-0.3,1.4-0.9,2.6-1.7,3.7c-0.8,1-1.9,1.9-3.2,2.4c-0.6,0.2-1.1,0.4-1.7,0.5l0,0
	c-0.1,0.7-0.2,1.3-0.4,2c-0.4,1.2-0.9,2.3-1.8,3.3c-0.9,1.1-2,2-3.2,2.6c-1.2,0.6-2.6,0.9-4,0.9c-1.3,0-2.6-0.3-3.8-0.9
	c-1-0.5-1.9-1.2-2.6-2c-0.1,0.1-0.2,0.2-0.3,0.3c0,0.1,0,0.2,0,0.3c0,0.5,0.1,0.9,0.1,1.3c0,0.8-0.1,1.7-0.2,2.5
	c-0.1,0.3-0.1,0.6-0.2,0.9c1.6,0.7,3.1,1.6,4.4,2.7c1.7,1.5,3.2,3.2,4.2,5.4c1,2,1.5,4.4,1.5,6.7c0,2.4-0.5,4.7-1.5,6.7
	c-1.1,2.1-2.7,3.8-4.9,4.9c-1.4,0.7-3,1-4.8,1.1c-1.6,0-3.1-0.3-4.5-0.9c-0.6-0.2-1.1-0.5-1.6-0.8c-0.3,0.8-0.7,1.5-1,2.3
	c-0.7,1.5-1.4,2.9-2.2,4.3l-2,3.6l-1.3-0.4l1.5,0.8c-0.4,0.8-1.5,1.1-2.3,0.7c-0.3-0.2-0.6-0.4-0.7-0.8l-1.9-3.5
	c-0.8-1.4-1.5-2.9-2.2-4.3c-0.3-0.8-0.7-1.5-1-2.3c-0.5,0.3-1,0.6-1.6,0.8c-1.4,0.6-2.9,0.9-4.5,0.9c-1.8,0-3.4-0.4-4.8-1
	c-2.2-1.1-3.8-2.8-4.9-4.9c-1-2-1.5-4.4-1.5-6.7c0-2.3,0.5-4.6,1.5-6.7c1-2.2,2.5-4,4.2-5.4c1.3-1.1,2.8-2,4.4-2.7
	c-0.1-0.3-0.1-0.6-0.2-0.9c-0.1-0.8-0.2-1.6-0.2-2.5c0-0.4,0-0.8,0.1-1.3c0-0.1,0-0.2,0-0.3c-0.1-0.1-0.2-0.2-0.3-0.3
	c-0.7,0.9-1.6,1.5-2.6,2c-1.2,0.6-2.5,0.9-3.8,0.9c-1.4,0-2.8-0.3-4-0.9c-1.2-0.6-2.3-1.5-3.2-2.6c-0.8-1-1.4-2.1-1.8-3.3
	c-0.2-0.6-0.3-1.3-0.4-2l0,0c-0.6-0.1-1.2-0.3-1.7-0.5c-1.3-0.5-2.3-1.4-3.2-2.4c-0.8-1.1-1.4-2.4-1.7-3.7c-0.1-0.6-0.2-1.3-0.2-2
	s0-1.4,0.1-2c0.2-1.6,0.8-3.1,1.5-4.5c0.7-1.3,1.5-2.5,2.4-3.6c-0.3-1.2-0.6-2.5-0.9-3.8c-0.3-1.7-0.5-3.3-0.7-4.9l-0.1-1l0,0
	c0-0.5,0.2-1,0.5-1.4l0.6-0.6c0.5-0.5,0.9-1,1.3-1.5c0.1-0.2,0.3-0.3,0.4-0.5c-0.5-0.8-0.9-1.6-1.2-2.4C9.2,637.8,9,636.4,9,635
	c0-1.6,0.3-3.1,1-4.5c0.6-1.4,1.5-2.7,2.6-3.8c0.2-0.2,0.3-0.3,0.5-0.4c-0.4-1.1-0.6-2.3-0.6-3.5c0-1.7,0.4-3.4,1.2-4.9
	c1-1.9,2.4-3.4,4.1-4.3c1.2-0.7,2.6-1.1,4-1.2c0-0.1,0-0.1,0-0.2c-0.1-1.3-0.4-2.6-0.7-3.9c-0.1-0.5-0.3-0.9-0.4-1.4
	c-0.9,0.6-1.8,1-2.8,1.4c-1.3,0.4-2.7,0.6-4.1,0.5c-1.5-0.1-2.9-0.4-4.1-1l0,0c0,0-0.1-0.1-0.2-0.1c-1.2-0.6-2.3-1.5-3.3-2.5
	c-0.9-1-1.6-2.1-2.1-3.2c-0.3-0.7-0.6-1.4-0.8-2.1c-1,0.3-2.1,0.7-3.1,1.2c-1.6,0.7-3.1,1.5-4.5,2.4l-1.7,1l0,0
	c-0.8,0.5-1.8,0.2-2.3-0.5l-1.1-1.4c-1.8-2.3-3.4-4.9-4.7-7.6c-1.3-2.7-2.4-5.5-3.2-8.2c-1-3.2-1.8-6.6-2.5-9.9
	c-0.6-3.4-1.1-6.9-1.3-10.3c-0.1-2.1-0.2-4.1-0.2-6.3c0-2,0.1-4,0.3-6l0.2-2.4l1.7,0.2l-1.7-0.2c0.1-0.9,0.9-1.6,1.8-1.5
	c0.1,0,0.1,0,0.2,0l2.3,0.3c3,0.4,6,0.7,9,0.8c2.5,0.1,5,0.1,7.6-0.1c0.2-2.2,0.8-4.3,1.9-6.1c1.2-2,3-3.6,5.5-4.6
	c1.8-0.7,3.9-0.8,5.7-0.3s3.6,1.5,4.8,3.1c0.8,1,1.3,2.2,1.6,3.4c0.1,0.3,0.1,0.7,0.2,1c1.9-0.6,3.7-1.3,5.6-2c2-0.8,4-1.7,6-2.7
	l-0.1-0.1l0,0c-0.4-0.8-0.2-1.7,0.5-2.2l9.8-8.4l0,0c0.7-0.6,1.7-0.5,2.3,0.1l9.8,8.5l-1.1,1.3l1.1-1.3c0.6,0.5,0.8,1.5,0.3,2.2l0,0
	c1.9,1,3.9,1.9,5.9,2.7c1.8,0.8,3.7,1.4,5.6,2c0-0.3,0.1-0.7,0.2-1c0.3-1.2,0.8-2.4,1.6-3.4c1.2-1.5,2.9-2.6,4.8-3.1
	s3.9-0.4,5.7,0.3c2.5,1,4.3,2.6,5.5,4.6C84.5,546.6,85.1,548.7,85.3,550.9L85.3,550.9z M93,554.3c-3.1,0.1-6.2,0.1-9.3-0.2
	c-0.9,0-1.6-0.7-1.7-1.6h1.7H82c-0.1-2.2-0.5-4.4-1.5-6.1c-0.8-1.4-2-2.5-3.8-3.1c-1.2-0.4-2.5-0.5-3.7-0.2s-2.2,1-3,1.9
	c-0.4,0.6-0.8,1.3-0.9,2c-0.2,0.7-0.2,1.4,0,2c0.1,0.3,0.1,0.7,0,1c-0.2,0.9-1.2,1.4-2.1,1.2l0,0c-2.8-0.8-5.6-1.7-8.2-2.8
	c-2.6-1-5.2-2.3-7.7-3.6c0,0-0.1,0-0.1-0.1c-0.8-0.4-1.1-1.5-0.7-2.3l1.5,0.8l-1.5-0.8l0,0l0.2-0.4l-7.7-6.7L35,542l0.2,0.3
	c0,0,0,0.1,0.1,0.1c0.4,0.8,0.1,1.9-0.7,2.3l0,0c-2.5,1.4-5.1,2.6-7.8,3.7c-2.7,1.1-5.4,2-8.1,2.8c-0.3,0.1-0.7,0.1-1,0
	c-0.9-0.2-1.5-1.2-1.2-2.1l0,0c0.2-0.7,0.2-1.4,0-2.2c-0.2-0.8-0.5-1.5-0.9-2c-0.8-0.9-1.8-1.6-3-1.9s-2.5-0.3-3.7,0.2
	c-1.7,0.6-2.9,1.8-3.8,3.1c-1,1.7-1.5,3.8-1.5,5.9c0,0.9-0.6,1.7-1.6,1.8l-0.1-1.7L2,554c-3.1,0.2-6.2,0.3-9.4,0.2
	c-3.2-0.1-6.3-0.4-9.4-0.9l-0.6-0.1l-0.1,0.6c-0.2,1.9-0.3,3.9-0.3,5.8c0,2,0,4,0.2,6c0.2,3.3,0.6,6.7,1.2,9.9
	c0.6,3.2,1.4,6.4,2.4,9.5c0.8,2.6,1.8,5.2,3,7.8c1.2,2.5,2.6,4.9,4.3,7l0.3,0.4l0.4-0.3c1.6-0.9,3.2-1.8,4.9-2.6s3.4-1.4,5.2-1.8
	c0.1,0,0.2,0,0.2-0.1c0.9-0.1,1.8,0.5,2,1.4l0,0c0.2,1.1,0.5,2.1,0.9,3.1c0.4,0.9,0.9,1.7,1.5,2.4c0.7,0.7,1.4,1.3,2.3,1.8h0.1
	l-0.7,1.5l0.7-1.5c0.9,0.4,1.8,0.6,2.8,0.7c1,0,2-0.1,3-0.4c0.9-0.3,1.7-0.7,2.4-1.3c0.1-0.1,0.3-0.2,0.4-0.4
	c0.1-0.1,0.2-0.2,0.3-0.3c0.1-0.2,0.3-0.3,0.5-0.4c0.8-0.4,1.9-0.1,2.3,0.7l-1.5,0.8l1.5-0.8c0.7,1.3,1.2,2.6,1.6,4
	c0.4,1.5,0.7,3,0.8,4.5c0,0.4,0.1,0.7,0.1,1.1c0,0.3,0,0.6,0,0.9c0,0.1,0,0.2,0,0.3c-0.1,0.9-0.9,1.6-1.8,1.6l0,0
	c-1.5-0.1-2.9,0.2-4.1,0.9c-1.1,0.6-2.1,1.6-2.7,2.9c-0.5,1.1-0.8,2.2-0.8,3.4c0,1.1,0.2,2.2,0.8,3.2l0,0c0.5,0.8,0.2,1.8-0.5,2.3
	l-0.9-1.4l0.9,1.4c-0.2,0.1-0.4,0.2-0.6,0.4c-0.2,0.2-0.4,0.3-0.5,0.5c-0.8,0.7-1.4,1.6-1.8,2.6c-0.4,1-0.7,2.2-0.7,3.3
	c0,1,0.1,2,0.5,2.9c0.3,0.9,0.8,1.7,1.4,2.4c0.6,0.6,0.7,1.6,0.1,2.2l0,0c-0.4,0.5-0.9,1.1-1.3,1.6c-0.5,0.5-0.9,1.1-1.4,1.6
	l-0.2,0.2v0.3c0.1,1.6,0.3,3.1,0.6,4.6c0.3,1.4,0.6,2.9,1,4.3c0.2,0.6,0.1,1.2-0.3,1.7l0,0c-1,1.1-1.9,2.3-2.6,3.6
	c-0.6,1.1-1,2.2-1.2,3.4c-0.1,0.5-0.1,1-0.1,1.4c0,0.4,0.1,0.9,0.2,1.4c0.2,0.9,0.5,1.7,1.1,2.4c0.5,0.6,1.1,1.1,1.8,1.4
	c0.3,0.1,0.7,0.2,1,0.3s0.6,0.1,1,0.1c0.1,0,0.2,0,0.4,0c0.9,0.1,1.6,0.9,1.5,1.9l0,0c-0.1,0.8,0,1.6,0.2,2.4s0.6,1.5,1.1,2.1
	c0.6,0.7,1.3,1.3,2.1,1.7c0.8,0.4,1.6,0.6,2.5,0.6c0.8,0,1.6-0.2,2.3-0.5c0.7-0.3,1.2-0.8,1.6-1.4c0.1-0.1,0.2-0.3,0.3-0.5
	c0.1-0.1,0.2-0.3,0.2-0.4c0.1-0.2,0.2-0.5,0.4-0.7c0.7-0.7,1.7-0.6,2.4,0l-1.2,1.2l1.2-1.2c0.4,0.4,0.8,0.8,1.2,1.1
	c0.3,0.3,0.7,0.7,1.1,1c0.5,0.4,0.7,1,0.6,1.6l-1.7-0.3l1.7,0.3c-0.1,0.3-0.1,0.6-0.1,1c0,0.3,0,0.6,0,1c0,0.6,0.1,1.3,0.2,1.9
	c0.1,0.6,0.3,1.2,0.5,1.8c0,0,0,0,0,0.1c0.3,0.9-0.1,1.9-1,2.2l-0.6-1.6l0.6,1.6c-1.8,0.7-3.4,1.6-4.8,2.8c-1.4,1.1-2.5,2.6-3.4,4.3
	c-0.8,1.6-1.2,3.4-1.2,5.2s0.4,3.7,1.2,5.2c0.8,1.5,1.9,2.7,3.3,3.4c1,0.5,2,0.7,3.3,0.7c1.1,0,2.2-0.2,3.2-0.6
	c0.8-0.4,1.6-0.9,2.2-1.6c0.2-0.2,0.4-0.4,0.8-0.6c0.9-0.3,1.8,0.1,2.2,1l0,0c0.5,1.4,1.1,2.9,1.8,4.3c0.6,1.4,1.3,2.8,2.1,4.1
	l0.5,0.9l0.5-0.9c0.8-1.4,1.4-2.7,2.1-4.1c0.6-1.4,1.2-2.8,1.8-4.2c0.1-0.3,0.3-0.6,0.5-0.8c0.7-0.6,1.8-0.5,2.4,0.2l-1.3,1.1
	l1.3-1.1c0.6,0.7,1.4,1.3,2.3,1.6c1,0.4,2.1,0.6,3.2,0.6c1.3,0,2.4-0.3,3.3-0.7c1.5-0.7,2.6-1.9,3.3-3.4c0.8-1.5,1.2-3.4,1.2-5.2
	s-0.4-3.6-1.2-5.2c-0.8-1.8-2-3.2-3.4-4.3c-1.4-1.1-3-2-4.7-2.7h-0.1c-0.9-0.3-1.3-1.3-1-2.2l0,0c0.2-0.6,0.4-1.2,0.5-1.8
	s0.2-1.3,0.2-1.9c0-0.4,0-0.7,0-1s-0.1-0.6-0.1-0.8c-0.2-0.6,0-1.2,0.5-1.7l0,0c0.4-0.4,0.8-0.8,1.2-1.1c0.4-0.4,0.7-0.7,1.1-1.1
	c0.2-0.2,0.4-0.4,0.6-0.5c0.9-0.4,1.8,0,2.2,0.9l-1.6,0.7l1.6-0.6c0.1,0.1,0.2,0.3,0.2,0.5c0.1,0.2,0.2,0.4,0.3,0.5
	c0.4,0.6,1,1,1.6,1.4c0.7,0.4,1.5,0.5,2.3,0.5c0.9,0,1.7-0.2,2.5-0.6c0.8-0.4,1.5-1,2.1-1.7c0.5-0.6,0.9-1.4,1.1-2.1
	c0.2-0.8,0.3-1.5,0.2-2.3c0-0.1,0-0.2,0-0.4c0-0.9,0.8-1.7,1.8-1.6l0,0c0.4,0,0.7,0,1.1-0.1c0.3-0.1,0.7-0.2,1-0.3
	c0.8-0.3,1.4-0.8,1.8-1.4c0.5-0.7,0.9-1.5,1.1-2.4c0.2-1.2,0.2-2.3,0-3.4c-0.3-1.3-0.9-2.6-1.7-3.8c-0.3-0.4-0.6-0.9-0.9-1.3
	c-0.3-0.4-0.6-0.8-1-1.2s-0.6-1.1-0.4-1.7l0,0c0.4-1.5,0.8-2.9,1.1-4.4c0.3-1.5,0.5-3,0.6-4.6v-0.3l-0.2-0.2c-0.5-0.5-0.9-1-1.4-1.6
	c-0.4-0.5-0.9-1-1.3-1.5c-0.6-0.6-0.6-1.6,0-2.2l1.3,1.1l-1.3-1.1c0.6-0.7,1.1-1.6,1.4-2.5c0.3-0.9,0.5-1.9,0.5-2.9
	c0-1.1-0.3-2.2-0.7-3.3c-0.4-1-1-1.9-1.8-2.6c-0.2-0.2-0.3-0.3-0.5-0.5c-0.2-0.1-0.3-0.2-0.5-0.3l0,0c-0.8-0.4-1.2-1.5-0.7-2.3l0,0
	c0.5-1,0.8-2.2,0.8-3.3s-0.3-2.3-0.8-3.4c-0.7-1.3-1.6-2.3-2.7-2.9c-1.2-0.6-2.5-0.9-4-0.9c-0.1,0-0.2,0-0.2,0
	c-0.9,0-1.7-0.8-1.7-1.7H62h-1.7c0-0.4,0-0.8,0-1.1c0-0.3,0.1-0.7,0.1-1.1c0.1-1.5,0.4-3,0.8-4.5c0.4-1.3,0.9-2.6,1.5-3.9
	c0.1-0.2,0.2-0.4,0.4-0.6c0.7-0.6,1.8-0.6,2.4,0.1l-1.2,1.1l1.2-1.1c0.1,0.1,0.2,0.3,0.4,0.4c0.1,0.1,0.3,0.2,0.4,0.3
	c0.7,0.6,1.6,1,2.4,1.3c0.9,0.3,1.9,0.4,3,0.4c0.9,0,1.8-0.3,2.7-0.6h0.1l0.7,1.5l-0.7-1.5c0.9-0.4,1.7-1.1,2.4-1.8
	c0.6-0.7,1.1-1.5,1.5-2.4c0.4-0.9,0.7-1.9,0.9-3c0-0.1,0-0.1,0-0.2c0.2-0.9,1.1-1.5,2.1-1.2l0,0c1.8,0.5,3.6,1.1,5.3,1.9
	s3.3,1.6,4.9,2.6l0.4,0.3l0.3-0.4c1.6-2.1,3.1-4.5,4.3-7c1.2-2.6,2.2-5.2,3-7.8c1-3.1,1.8-6.3,2.4-9.5c0.6-3.3,1-6.6,1.2-9.9
	c0.1-2,0.2-4,0.2-6c0-1.9-0.1-3.8-0.3-5.8l-0.1-0.6l-0.6,0.1C99.3,553.9,96.2,554.2,93,554.3L93,554.3z M42.8,573.4l0.7-0.1l0.1,0.8
	c0.5,3.7,1.8,7.4,3.6,10.7c0.8-0.1,1.5-0.2,2.3-0.3c1-2.6,1.9-6.5,2.1-8.8c-2.7-1.1-4.8-3.7-5.8-8.2c-2-8.7-0.1-17.7,4.1-25.4
	l-7.1-5.9l-7.1,6.1c4.2,7.8,6.1,16.7,4.1,25.4c-1,4.5-3.1,7.1-5.8,8.2c0.3,2.3,1.1,6.1,2.1,8.8c0.8,0.1,1.5,0.2,2.3,0.3
	c1.8-3.3,3.1-7.1,3.6-10.7l0.1-0.8L42.8,573.4L42.8,573.4z M46.7,686.5c0.2,1.2,0.4,2.7,0.2,3.9c-0.1,0.4-0.2,0.9-0.3,1.3
	c-2.4-0.3-5.1-0.3-7.5,0c-0.2-0.4-0.3-0.9-0.3-1.3c-0.2-1.2,0-2.7,0.2-3.9C41.6,686.2,44,686.2,46.7,686.5L46.7,686.5z M50.2,683.8
	c0.2-0.7,0.3-1.4,0.3-2.1c0-2.3-1-4.4-2.7-5.9c-1.3-1.1-1.5-2-1.8-3.9c4.1,1.4,7,5.2,7,9.7c0,1.8-0.4,3.5-1.2,4.9
	c-0.3-0.1-0.5-0.1-0.8-0.2l-0.3-0.1C50.6,685.4,50.4,684.6,50.2,683.8L50.2,683.8z M35.4,683.8c-0.2-0.7-0.3-1.4-0.3-2.1
	c0-2.3,1-4.4,2.7-5.9c1.3-1.1,1.5-2,1.8-3.9c-4.1,1.4-7,5.2-7,9.7c0,1.8,0.5,3.5,1.2,4.9c0.3-0.1,0.5-0.1,0.8-0.2l0.3-0.1
	C35,685.4,35.2,684.6,35.4,683.8L35.4,683.8z M49.7,681c-2.1,1.6-4.3,3-6.9,4.3c-2.6-1.3-4.8-2.7-6.9-4.3c0.1-1.8,1-3.4,2.4-4.6
	c0.6-0.5,1-0.9,1.4-1.7c1.1-2.3,1.2-9.1,1.2-14c0.6-0.4,1.2-0.5,1.9-0.5l0,0l0,0c0.7,0,1.4,0.2,1.9,0.5c-0.1,4.8,0.1,11.7,1.2,14
	c0.3,0.8,0.8,1.1,1.4,1.7C48.7,677.6,49.5,679.3,49.7,681L49.7,681z M50.8,687.2c4.9,1.2,8.8,3.5,10.8,7.7
	c2.5,5.2,0.8,13.7-6.2,13.7c-7.1,0-7.8-7.8-4.2-9.4c3.2-1.4,6,0.7,5.5,3.1c-0.8,3.9-5.6,2-3.9-0.8c0.2-0.4,0.1-0.8-0.7-0.4
	c-0.9,0.6-1,4,2,4.2c4.6,0.4,7-9.4-3.4-12.7C51,690.8,51,689,50.8,687.2L50.8,687.2z M42.8,715.6c4.8-8.7,9.5-22.8,6.2-33
	c-0.7,0.5-1.3,0.9-2,1.4c0.2,0.6,0.3,1.1,0.4,1.8l0,0l0.1,0.6c0.2,1.3,0.4,2.9,0.2,4.2l0,0c-0.1,0.5-0.2,1.1-0.4,1.5l-0.2,0.6H47
	c-0.8,1.2-2,1-2.7-0.2c-1,0-2.1,0-3.1,0c-0.7,1.2-1.9,1.5-2.7,0.2h-0.1l-0.2-0.6c-0.2-0.5-0.3-1-0.4-1.5c-0.2-1.3,0-2.9,0.2-4.2
	l0.1-0.6l0,0c0.1-0.6,0.3-1.2,0.4-1.8c-0.7-0.4-1.4-0.9-2-1.4C33.3,692.8,38,706.9,42.8,715.6L42.8,715.6z M34.8,687.2
	c-4.9,1.2-8.8,3.5-10.8,7.7c-2.5,5.2-0.8,13.7,6.2,13.7c7.1,0,7.8-7.8,4.2-9.4c-3.2-1.4-6,0.7-5.5,3.1c0.8,3.9,5.6,2,3.9-0.8
	c-0.2-0.4,0-0.8,0.7-0.4c0.9,0.6,1,4-2,4.2c-4.6,0.4-7-9.4,3.4-12.7C34.6,690.8,34.6,689,34.8,687.2L34.8,687.2z M39.6,671.1
	c-6.2-1.3-10-6.4-11.6-12.5c0.4-0.4,0.9-0.8,1.5-1.1c0.4-0.2,0.8-0.3,1.2-0.4c1.2,5.1,4.3,9.9,9.2,11.3c-0.1,0.8-0.1,1.7-0.2,2.5
	L39.6,671.1L39.6,671.1z M46,671.1c6.2-1.3,10-6.4,11.6-12.5c-0.4-0.4-0.9-0.8-1.4-1.1c-0.4-0.2-0.8-0.3-1.2-0.4
	c-1.2,5.1-4.3,9.9-9.2,11.3c0.1,0.8,0.1,1.7,0.2,2.5V671.1L46,671.1z M17.8,676.6c2.4,2.9,6.2,2.5,7.7,0.4c1.8-2.4,0.7-6-2.4-6.4
	c-1.3-0.2-2.9,0.3-3.2,1.8c-0.6,2.8,3.3,2.9,2.5,0.4c-0.2-0.6,0.8-0.8,1,0c0.3,1.7-0.6,2.6-1.9,2.6c-2.9,0-3-4.2-0.9-5.1
	c3.8-1.6,5.8,1.6,7.8,3.8c1.3,1.4,2.6,2.6,3.9,3.8c0.4-1.1,1-2.2,1.7-3.1c-1.3-0.9-2.6-1.8-3.9-2.9c-2.3-1.9-4-3.3-4.5-6.5
	c-1.1-6.3,3.4-10.9,8.6-8.7c0.7,0.3,0.9,0.9-0.1,0.8c-2.1-0.2-2,3,0.3,2.9c1.3-0.1,2.1-0.8,2.2-2.1c0.5-4.1-5.7-5.2-8.8-3.6
	c-4.8,2.5-5,8.4-4.4,13.2c-2.5-0.5-4.5,0.1-5.8,1.9C16.4,671.5,16,674.3,17.8,676.6L17.8,676.6z M67.8,676.6
	c-2.4,2.9-6.2,2.5-7.7,0.4c-1.8-2.4-0.7-6,2.4-6.4c1.3-0.2,2.9,0.3,3.2,1.8c0.6,2.8-3.3,2.9-2.5,0.4c0.2-0.6-0.8-0.8-0.9,0
	c-0.3,1.7,0.6,2.6,1.9,2.6c2.9,0,3-4.2,0.9-5.1c-3.8-1.6-5.8,1.6-7.8,3.8c-1.3,1.4-2.6,2.6-3.9,3.8c-0.4-1.1-1-2.2-1.7-3.1
	c1.3-0.9,2.6-1.8,3.9-2.9c2.3-1.9,4-3.3,4.5-6.5c1.1-6.3-3.4-10.9-8.6-8.7c-0.7,0.3-0.9,0.9,0.1,0.8c2.1-0.2,2,3-0.3,2.9
	c-1.3-0.1-2.1-0.8-2.2-2.1c-0.5-4.1,5.7-5.2,8.8-3.6c4.8,2.5,5,8.4,4.4,13.2c2.5-0.5,4.5,0.1,5.8,1.9
	C69.2,671.5,69.6,674.3,67.8,676.6L67.8,676.6z M47.1,646.2c0.8-0.9,1.3-2.1,1.4-3.5c0.1-3.3-2.3-4.5-3.6-8.1
	c-0.3-0.9-0.5-2-0.6-3.4c-0.4-0.1-1-0.2-1.4-0.2h-0.1l0,0c-0.4,0-1,0.1-1.4,0.2c-0.1,1.3-0.3,2.4-0.6,3.4c-1.3,3.6-3.7,4.8-3.6,8.1
	c0.1,1.3,0.5,2.5,1.4,3.5c0.4-0.6,0.7-1.1,1-1.8c-0.2-0.4-0.3-0.9-0.3-1.4c-0.1-1.8,1.4-3.5,3.6-3.4c2.3-0.1,3.7,1.6,3.6,3.4
	c0,0.5-0.1,1-0.3,1.4C46.4,645.1,46.7,645.7,47.1,646.2L47.1,646.2z M46.9,655.5c1-0.9,1.5-2.3,1.6-3.7c0.1-1.8-0.6-3-1.4-4.2l0,0
	l-0.6-0.9l0,0l0,0l0,0l0,0l0,0l0,0l0,0l0,0c-0.3-0.5-0.7-1.1-1-1.8l-0.1-0.2l0,0c-0.1-0.2-0.2-0.5-0.3-0.7c-0.3-0.8-0.5-1.8-0.6-2.9
	c-0.4-0.2-0.9-0.4-1.5-0.3l0,0l0,0c-0.5,0-1.1,0.1-1.5,0.3c-0.1,1.1-0.3,2.1-0.6,2.9c-0.1,0.2-0.2,0.5-0.3,0.7l0,0l-0.1,0.2
	c-0.3,0.7-0.7,1.3-1,1.8l0,0l0,0l0,0l0,0l0,0l0,0l0,0l0,0l-0.6,0.9l0,0c-0.8,1.3-1.5,2.4-1.4,4.2c0.1,1.4,0.6,2.8,1.6,3.7
	c0.3-0.6,0.6-1.2,0.9-1.8c-0.3-0.5-0.4-1-0.4-1.6c-0.1-1.8,1.4-3.5,3.6-3.4c2.3-0.1,3.7,1.6,3.6,3.4c0,0.5-0.2,1.1-0.4,1.6
	C46.2,654.4,46.5,655,46.9,655.5L46.9,655.5z M45.7,668.3c2.1-1,3.3-3,3.4-5.3c0.1-2.6-1.2-4-2.5-6l0,0l-0.4-0.7
	c-1.3-2.2-1.6-3.6-1.8-6.2c-0.5-0.3-1-0.4-1.6-0.4l0,0l0,0c-0.6,0-1.2,0.1-1.6,0.4c-0.2,2.6-0.5,4-1.8,6.2L39,657l0,0
	c-1.3,2-2.6,3.4-2.5,6c0.1,2.3,1.4,4.4,3.4,5.3c0-0.8,0.1-1.6,0.1-2.3c-0.8-0.7-1.2-1.7-1.2-2.6c-0.1-2,1.6-3.9,4.1-3.8
	c2.6-0.1,4.2,1.8,4.1,3.8c0,0.9-0.4,2-1.2,2.6C45.7,666.7,45.7,667.5,45.7,668.3L45.7,668.3z M15.5,661.4c-1.1,1.2-1.9,2.5-2.1,3.7
	c-0.1,0.9,0.1,1.8,1,2.2c1.1,0.5,1.4-0.2,0.4-0.6c-1-0.3-1.2-3.3,1.5-2.9c2.2,0.4,2.6,4.3-0.2,5.7c-2.2,1.1-5.4,0.3-6.2-3.3
	c-0.7-3.2,1-6.6,3.7-9.6C14.1,658.3,14.8,659.9,15.5,661.4L15.5,661.4z M36.6,653.7c-2-0.3-3.8-0.4-5.6-0.3v-0.2c0-0.7,0-1.3,0-2
	c0.1-1.2,0.2-2.3,0.4-3.4c2-0.2,4.1-0.2,6.2-0.2c-0.2,0.4-0.4,0.7-0.6,1.1c-0.5,1-0.7,2-0.6,3.1C36.3,652.5,36.4,653.1,36.6,653.7
	L36.6,653.7z M49,653.7c2-0.3,3.8-0.4,5.6-0.3v-0.2c0-0.7,0-1.3,0-2c-0.1-1.2-0.2-2.3-0.4-3.4c-2-0.2-4.1-0.2-6.2-0.2
	c0.2,0.4,0.4,0.7,0.6,1.1c0.5,1,0.7,2,0.6,3.1C49.3,652.5,49.2,653.1,49,653.7L49,653.7z M59.2,654.4c2.1,0.7,4.2,1.8,6.5,3.4
	c0.7-1.6,1.3-3.3,1.7-5c-2.7-2-5.5-3.2-8.3-4c0.1,0.7,0.1,1.4,0.1,2.2c0,1.1,0,2.1-0.1,3.2L59.2,654.4L59.2,654.4z M70.1,661.4
	c1.1,1.2,1.9,2.5,2.1,3.7c0.1,0.9-0.1,1.8-1,2.2c-1.1,0.5-1.4-0.2-0.4-0.6c1-0.3,1.2-3.3-1.4-2.9c-2.2,0.4-2.6,4.3,0.2,5.7
	c2.2,1.1,5.4,0.3,6.2-3.3c0.7-3.2-1-6.6-3.7-9.6C71.5,658.3,70.8,659.9,70.1,661.4L70.1,661.4z M58.3,654.1c0.1-1,0.1-2.1,0.1-3.1
	c-0.3-9.1-3.8-14.4-7.5-20.4c-0.6-0.5-1.4-0.7-2.2-0.8c-0.6-0.1-1.2-0.1-1.9-0.2c-0.1,0-0.1,0-0.2,0c-1-0.2-2-0.7-2.4-1.7
	c-0.3-0.8,0-1.7,0.7-2.2c-0.8-0.4-1.5-0.9-2.1-1.6c-0.6,0.7-1.3,1.2-2.1,1.6c0.7,0.5,0.9,1.4,0.7,2.2c-0.3,1-1.4,1.5-2.4,1.7
	c-0.1,0-0.1,0-0.2,0c-0.6,0.1-1.2,0.1-1.9,0.2c-0.8,0.1-1.6,0.3-2.2,0.8c-3.7,6-7.2,11.3-7.5,20.4c0,1,0,2.1,0.1,3.1
	c0,0,0.1,0,0.1-0.1c0.8-0.4,1.7-0.7,2.8-0.8c0-0.7,0-1.4,0-2.1c0.4-7.1,2.6-12.2,6.9-17.8c2.5-3.3,5.8-3.1,5.8-3.1s3.2-0.2,5.8,3.1
	c4.3,5.6,6.4,10.6,6.9,17.8c0,0.7,0.1,1.4,0,2.1c1,0.1,2,0.4,2.8,0.8C58.3,654,58.3,654,58.3,654.1L58.3,654.1z M26.4,654.4
	c-2.1,0.7-4.2,1.8-6.5,3.4c-0.7-1.6-1.3-3.3-1.7-5c2.7-2,5.5-3.2,8.3-4c-0.1,0.7-0.1,1.4-0.1,2.2c0,1.1,0,2.1,0.1,3.2L26.4,654.4
	L26.4,654.4z M36.5,640.8c-1.1,0.3-2.2,0.5-3.4,0.7c0.5-1.2,1.1-2.3,1.8-3.5c0.9-0.2,1.6-0.4,2.2-0.5c-0.4-0.2-0.8-0.5-1.4-0.9
	c0.5-0.8,1.1-1.6,1.7-2.4l2.1,1.2c-0.3,0.6-0.7,1.2-1,1.8c-0.5,0.8-1.1,1.6-1.5,2.5C36.7,640.1,36.6,640.5,36.5,640.8L36.5,640.8z
	 M31.4,634.5c-2.2-1.1-4.7-2.1-6.9-2.9c-6.1-2.2-8.2,2.2-6.3,5.2c-0.8,1.3-1.7,2.6-2.6,3.9c-4.6-4.1-2.4-12.2,3.5-12.9
	c-5.1-3.9-2-13.4,6-11.5c0,0.6-0.1,1.2-0.1,1.8c-0.1,0.7-0.2,1.5-0.3,2.2c-3.9-0.8-5.9,2.8-0.8,6.2c2,1.3,5.7,3.4,9.2,5.4
	C32.4,632.7,31.9,633.6,31.4,634.5L31.4,634.5z M27.7,642.5c-1.9,0.3-3.9,0.5-5.9,0.3c0.9-1.2,1.7-2.4,2.5-3.6
	c1.2,0.1,2.4,0,3.6-0.1c0.1,0.6,0.2,1.1,0.3,1.7C28.1,641.4,27.9,642,27.7,642.5L27.7,642.5z M32,620c0.8,0.7,1.7,1.4,2.5,2.2
	c-0.6,0.8-1.3,1.6-1.9,2.4c-0.5-0.4-0.9-0.7-1.4-1C31.5,622.4,31.8,621.2,32,620L32,620z M49.1,640.8c1.1,0.3,2.2,0.5,3.4,0.7
	c-0.5-1.2-1.1-2.3-1.8-3.5c-0.9-0.2-1.6-0.4-2.2-0.5c0.4-0.2,0.8-0.5,1.4-0.9c-0.5-0.8-1.1-1.6-1.7-2.4l-2.1,1.2
	c0.3,0.6,0.7,1.2,1,1.8c0.5,0.8,1.1,1.6,1.5,2.5C48.9,640.1,49,640.5,49.1,640.8L49.1,640.8z M54.2,634.5c2.2-1.1,4.7-2.1,6.9-2.9
	c6.1-2.2,8.2,2.2,6.3,5.2c0.8,1.3,1.7,2.6,2.6,3.9c4.6-4.1,2.4-12.2-3.5-12.9c5.1-3.9,2-13.4-6-11.5c0,0.6,0.1,1.2,0.1,1.8
	c0.1,0.7,0.2,1.5,0.3,2.2c3.9-0.8,5.9,2.8,0.8,6.2c-2,1.3-5.7,3.4-9.2,5.4C53.2,632.7,53.7,633.6,54.2,634.5L54.2,634.5z
	 M57.9,642.5c1.9,0.3,3.9,0.5,5.9,0.3c-0.9-1.2-1.7-2.4-2.5-3.6c-1.2,0.1-2.4,0-3.6-0.1c-0.1,0.6-0.2,1.1-0.3,1.7
	C57.5,641.4,57.7,642,57.9,642.5L57.9,642.5z M53.6,620c-0.8,0.7-1.7,1.4-2.5,2.2c0.6,0.8,1.3,1.6,1.9,2.4c0.5-0.4,0.9-0.7,1.4-1
	C54.1,622.4,53.8,621.2,53.6,620L53.6,620z M42.8,622.5c0.9,1.9,1.7,2,4.1,3.3c0.4,0.2,0.8,0.6,0.7,1.4c-0.1,0.7-0.7,0.7-0.6-0.1
	c0.1-0.6-0.7-0.9-1.2-0.8c-1,0.2-1.3,2.1,1,2.5c0.8,0.1,1.6,0.1,2,0.2c1.4,0.2,2.5,0.7,3.4,1.5c0.2,0.1,0.3,0.3,0.4,0.4l0.2-0.1
	c0.8-0.4,1.6-0.9,2.4-1.4c-1.6-2.8-3.8-5.3-5.8-8.1l0,0l-0.4-0.6c-0.6-0.8-1.2-1.7-1.7-2.6l-0.1-0.1l-0.1-0.2c0-0.1-0.1-0.2-0.1-0.2
	l-0.1-0.1c-0.1-0.1-0.1-0.2-0.1-0.3l0,0v-0.1l-0.2-0.4l0,0c-0.1-0.2-0.2-0.4-0.3-0.7c-0.9-2.3-1.1-3.9-1.2-5.7
	c-0.7-0.3-1.5-0.5-2.3-0.5s-1.6,0.1-2.3,0.5c-0.1,1.8-0.3,3.4-1.2,5.7c-0.1,0.2-0.2,0.4-0.3,0.7l0,0l-0.2,0.4v0.1l0,0
	c-0.1,0.1-0.1,0.2-0.1,0.3l-0.1,0.1c0,0.1-0.1,0.2-0.1,0.2l-0.1,0.2l-0.1,0.1c-0.5,0.9-1.1,1.8-1.7,2.6l-0.4,0.6l0,0
	c-2,2.7-4.3,5.2-5.8,8.1c0.8,0.5,1.6,0.9,2.4,1.4l0.2,0.1c0.1-0.2,0.3-0.3,0.4-0.4c0.9-0.8,2-1.3,3.4-1.5c0.4-0.1,1.2-0.1,2-0.2
	c2.3-0.4,2-2.3,1-2.5c-0.6-0.1-1.3,0.3-1.2,0.8c0.1,0.8-0.5,0.8-0.6,0.1c-0.1-0.7,0.2-1.1,0.7-1.4C41.1,624.5,41.9,624.4,42.8,622.5
	L42.8,622.5z M32.5,643.3c0.3,0.6,0.6,1.1,1,1.5c0.4,0.5,0.9,0.8,1.3,1c0.6,0.3,0.9-0.3,0.4-0.6c-0.8-0.6-0.2-1.4,0.5-1.5
	c1-0.1,2,1,1.2,2.6c-0.7,1.3-2.5,1.5-4,0.7c-0.4-0.2-0.8-0.5-1.1-0.8C31.9,645.1,32.2,644.2,32.5,643.3L32.5,643.3z M28.8,639.5
	c-0.1-0.4-0.1-0.7-0.2-1c-0.2-1.5-0.2-3,0-4.3c0.8,0.3,1.5,0.7,2.2,1l-0.2,0.3C30,636.8,29.4,638.1,28.8,639.5L28.8,639.5z
	 M53.1,643.3c-0.3,0.6-0.6,1.1-1,1.5c-0.4,0.5-0.9,0.8-1.3,1c-0.7,0.3-0.9-0.3-0.4-0.6c0.8-0.6,0.2-1.4-0.5-1.5c-1-0.1-2,1-1.2,2.6
	c0.7,1.3,2.4,1.5,4,0.7c0.4-0.2,0.8-0.5,1.1-0.8C53.7,645.1,53.4,644.2,53.1,643.3L53.1,643.3z M56.8,639.5c0.1-0.4,0.1-0.7,0.2-1
	c0.2-1.5,0.2-3-0.1-4.3c-0.8,0.3-1.5,0.7-2.2,1l0.2,0.3C55.6,636.8,56.2,638.1,56.8,639.5L56.8,639.5z M49.4,619.9
	c1.8-2.2,2.4-5.1,1.8-7.7c-1-3.8-4.2-5.6-5.6-9c-0.8,0.6-1.5,1.2-2.3,1.8l-0.5,0.2l-0.5-0.3c-0.8-0.5-1.5-1.1-2.3-1.8
	c-1.4,3.4-4.6,5.2-5.6,9c-0.7,2.6,0,5.5,1.8,7.7c0.7-1,1.3-2,1.9-3.1c-1.6-3.6,0.2-7.6,4.7-7.7c4.5,0.1,6.3,4,4.7,7.7
	C48,617.9,48.7,618.9,49.4,619.9L49.4,619.9z M42.8,574.3c0.6,4.3,2.3,9.1,5,13.3c-0.7,0.7-1.5,1.3-2.5,1.6
	c-1.1-1.7-1.9-3.4-2.4-5.1c-0.5,1.6-1.4,3.3-2.4,5.1c-1-0.4-1.8-0.9-2.5-1.6C40.5,583.4,42.2,578.6,42.8,574.3L42.8,574.3z
	 M32.2,594.4c-1.1,1-2.3,1.9-3.5,2.6c0.6,0.9,1.1,1.9,1.6,2.8c1.3-0.8,2.6-1.9,3.8-3C33.4,596.1,32.7,595.2,32.2,594.4L32.2,594.4z
	 M53.4,594.4c1.1,1,2.3,1.9,3.5,2.6c-0.6,0.9-1.1,1.9-1.6,2.8c-1.3-0.8-2.6-1.9-3.8-3C52.2,596.1,52.9,595.2,53.4,594.4L53.4,594.4z
	 M56,588.3c-3.1,6.5-8.2,12.4-13.2,15.9c-5-3.5-10.1-9.4-13.2-15.9c-1.7-3.5-3.4-10.6-3.1-14.4c2.2-0.4,4.4,0,6.6,0.8
	c0,2.7,1.8,10.8,3.7,13c1.4,1.7,3.4,2.8,6.1,2.8s4.6-1.1,6.1-2.8c1.8-2.1,3.7-10.3,3.7-13c2.2-0.8,4.4-1.2,6.6-0.8
	C59.4,577.7,57.7,584.8,56,588.3L56,588.3z M6.7,595.5c0.6-0.1,1.2-0.1,1.8-0.2c1.4-0.1,2.8,0,4.2,0.3c0.9,3.1,3.2,3,3.8-0.1
	c0.8-4.2,0.2-7.6-1.3-10.2c0.8-1.8,1.7-3.5,2.8-5c0.1-0.1,0.2-0.2,0.2-0.3c0.7,0.9,1.3,1.9,1.8,3c4.3,9.2,3.1,21.7-6.1,21.4
	C10.5,604.4,7.1,601.4,6.7,595.5L6.7,595.5z M7.6,588.2c0.2-0.5,0.3-1.1,0.5-1.7c1.3-4.2,3.2-8,5.5-11.2c1.4,1.3,2.9,2.4,4.5,3.5
	c-0.3,0.4-0.5,0.7-0.8,1.1c-1.5,2.1-3.1,5.2-4,8.3C11.3,588,9.5,588,7.6,588.2L7.6,588.2z M78.9,595.5c-0.6-0.1-1.2-0.1-1.8-0.2
	c-1.4-0.1-2.8,0-4.2,0.3c-0.9,3.1-3.2,3-3.8-0.1c-0.8-4.2-0.2-7.6,1.3-10.2c-0.8-1.8-1.7-3.5-2.8-5c-0.1-0.1-0.2-0.2-0.2-0.3
	c-0.7,0.9-1.3,1.9-1.8,3c-4.3,9.2-3.1,21.7,6.1,21.4C75.1,604.4,78.5,601.4,78.9,595.5L78.9,595.5z M78,588.2
	c-0.2-0.5-0.3-1.1-0.5-1.7c-1.3-4.2-3.2-8-5.5-11.2c-1.4,1.3-2.9,2.4-4.5,3.5c0.3,0.4,0.5,0.7,0.8,1.1c1.5,2.1,3.1,5.2,4,8.3
	C74.2,588,76.1,588,78,588.2L78,588.2z M18.5,570.2c5.2-3.8,11.9-4.6,19.7-0.4c-0.7,1.8-1.8,3.5-3.4,4.6c-4.1-1.7-7.6-2.1-11-0.6
	c-0.4-0.2-0.8-0.4-1.2-0.6C21.2,572.4,19.8,571.4,18.5,570.2L18.5,570.2z M67.1,570.2c-5.2-3.8-11.9-4.6-19.7-0.4
	c0.7,1.8,1.8,3.5,3.4,4.6c4.1-1.7,7.6-2.1,11-0.6c0.4-0.2,0.8-0.4,1.2-0.6C64.4,572.4,65.8,571.4,67.1,570.2L67.1,570.2z
	 M47.1,551.3L47.1,551.3c0.6-2.3,1.5-4.5,2.5-6.7c14.1,8,32.7,12.4,52.9,9.4c1.6,16.9-3.2,36.3-10.6,45.6c-9-5.4-16.4-6.2-21.8-4.1
	c0-0.1,0-0.1,0-0.2c-0.4-2-0.5-4-0.1-6c5-1,11.6-0.6,20,1.8c5.6-9.2,7.1-22.9,5.7-31.1c-18.2,1.9-35.3-1.1-47.3-7.9
	c4,3.5,7.3,8.5,9.2,13.9c-2.1,0-4.2,0.4-6.2,1.1c-1.1-2.9-2.9-5.4-5.4-7.8C45.9,556.7,46.4,554,47.1,551.3L47.1,551.3z M38.5,551.3
	L38.5,551.3c-0.6-2.3-1.5-4.5-2.5-6.7c-14.1,8-32.7,12.4-52.9,9.4c-1.7,16.9,3.2,36.3,10.6,45.6c9-5.4,16.4-6.2,21.8-4.1
	c0-0.1,0-0.1,0-0.2c0.4-2,0.5-4,0.1-6c-5-1-11.6-0.6-20,1.8c-5.5-9.2-7.1-22.9-5.7-31.1c18.2,1.9,35.3-1.1,47.3-7.9
	c-4,3.5-7.3,8.5-9.2,13.9c2.1,0,4.2,0.4,6.2,1.1c1.1-2.9,2.9-5.4,5.4-7.8C39.7,556.7,39.2,554,38.5,551.3L38.5,551.3z M94.9,571.9
	c-8.5-0.7-16.2,0.2-21.9,3.3c1.2,1.6,2.1,3.4,3,5.2c4.9-2.4,11.5-2.7,17.7-1.3C94.3,576.7,94.7,574.3,94.9,571.9L94.9,571.9z
	 M-9.4,571.9c8.5-0.7,16.2,0.2,21.9,3.3c-1.2,1.6-2.1,3.4-3,5.2C4.6,578-2,577.7-8.2,579.1C-8.7,576.7-9.1,574.3-9.4,571.9
	L-9.4,571.9z M21.9,600.5c4.3,5.8,5.3,15.1,2.3,25.1l0.1,0.1c1.2,0.8,2.5,1.5,3.7,2.3c0.3,0.2,0.6,0.3,0.8,0.5
	c4.3-11.7,4.5-24.4-1.9-32.4c-1-1.3-2.2-2.5-3.7-3.5c0,1,0,1.9-0.1,2.9C23,597.2,22.6,598.9,21.9,600.5L21.9,600.5z M21.8,631.8
	c-2.2,4.8-5.4,9.6-9.6,14.2c0.8,9,3.8,15.8,7.9,21.2c0.7-0.2,1.5-0.3,2.3-0.2c-0.1-1-0.1-2.1-0.1-3.1c-2.9-4.1-5.1-9.3-6-16.1
	c4.2-3.9,7.7-8.9,10.4-14.4c-0.8-0.4-1.7-0.7-2.5-1C23.5,632.1,22.6,631.8,21.8,631.8L21.8,631.8z M63.7,600.5
	c-4.3,5.8-5.3,15.1-2.3,25.1l-0.1,0.1c-1.2,0.8-2.5,1.5-3.7,2.3c-0.3,0.2-0.6,0.3-0.8,0.5c-4.3-11.7-4.5-24.4,1.9-32.4
	c1-1.3,2.2-2.5,3.7-3.5c0,1,0,1.9,0.1,2.9C62.6,597.2,63,598.9,63.7,600.5L63.7,600.5z M63.8,631.8c2.2,4.8,5.4,9.6,9.6,14.2
	c-0.8,9-3.8,15.8-7.9,21.2c-0.7-0.2-1.5-0.3-2.3-0.2c0.1-1,0.2-2.1,0.1-3.1c2.9-4.1,5.1-9.3,6-16.1c-4.2-3.9-7.7-8.9-10.4-14.4
	c0.8-0.4,1.7-0.7,2.5-1C62.1,632.1,63,631.8,63.8,631.8L63.8,631.8z M26.6,582.2c-9.4-3.6-17.9-10.4-21.2-20.8
	c1.6-0.1,3.3-0.2,4.9-0.4c1.1,2.1,2.3,4,3.8,5.8c2.4,2.9,5.2,5.4,8.1,7c1.1,0.6,2.3,1.2,3.4,1.6C25.7,577.5,26.1,579.9,26.6,582.2
	L26.6,582.2z M4.1,553.7c-0.1-4.5,1.2-8.4,4.9-9.9c2.2-0.9,4.8,0,6,1.6c0.9,1.1,1.3,3.2,0.5,4.5c-1.5,2.2-3.8,1.8-4.8,0.9
	c-0.7-0.6-1.1-1.5-0.8-2.5c0.4-1.1,1.7-1.6,2.8-0.2c0.4,0.5,1.1,0.2,0.8-0.5c-0.7-1.2-1.8-1.6-2.8-1.4c-2.8,0.6-3.6,3.4-3,7
	C6.5,553.5,5.3,553.6,4.1,553.7L4.1,553.7z M59,582.2c9.4-3.6,17.9-10.4,21.2-20.8c-1.6-0.1-3.3-0.2-4.9-0.4c-1.1,2.1-2.3,4-3.8,5.8
	c-2.4,2.9-5.2,5.4-8.1,7c-1.1,0.6-2.3,1.2-3.4,1.6C59.9,577.5,59.5,579.9,59,582.2L59,582.2z M81.5,553.7c0.1-4.5-1.2-8.4-4.9-9.9
	c-2.2-0.9-4.8,0-6,1.6c-0.9,1.1-1.3,3.2-0.5,4.5c1.5,2.2,3.8,1.8,4.8,0.9c0.7-0.6,1.1-1.5,0.8-2.5c-0.4-1.1-1.7-1.6-2.8-0.2
	c-0.4,0.5-1.1,0.2-0.8-0.5c0.7-1.2,1.8-1.6,2.8-1.4c2.8,0.6,3.6,3.4,3,7C79.1,553.5,80.3,553.6,81.5,553.7L81.5,553.7z"/>
<image style="overflow:visible;" width="1901" height="945" xlink:href="Screenshot 2022-04-15 100642.jpg"  transform="matrix(0.75 0 0 0.75 -1479.2793 -773.8803)">
</image>
<g>
	<g id="XMLID_00000123413840360193093280000015875746495045234567_">
		<path class="st4" d="M-766.3-448.4c-0.2,0.3-0.6,0.6-0.8,0.9c-5.7,8-11.4,16-17.1,24.1c-0.7,1-0.6,1.6,0.4,2.3
			c11.3,8,22.5,16,33.8,24c0.8,0.6,1.5,0.7,2.1-0.3c5.7-8.1,11.5-16.1,17.3-24.2c0.7-0.9,0.5-1.5-0.4-2.1
			c-11.3-8-22.6-16.1-33.9-24.2C-765.3-448.1-765.7-448.4-766.3-448.4z M-786.3-426.3c0.9-0.3,1.2-1,1.6-1.6
			c4.4-6.2,8.8-12.3,13.2-18.5c0.2-0.3,0.4-0.5,0.6-0.8c0.2-0.3,0.5-0.7,0.3-1.1c-0.2-0.4-0.7-0.3-1.1-0.2c-1.4,0.1-2.4,0.5-3.3,1.8
			c-3.6,5.2-7.2,10.3-11,15.5C-787.2-429.5-786.9-428-786.3-426.3z M-728.4-416.9c-0.1-0.2,0.2-1.2-0.6-1.3
			c-0.6-0.1-0.9,0.7-1.2,1.2c-4.3,6.1-8.7,12.2-12.9,18.2c-0.5,0.7-1.6,1.6-1,2.1c0.8,0.7,2.1,0.1,3.1-0.5c0.3-0.2,0.6-0.6,0.8-0.9
			c3.8-5.3,7.6-10.6,11.4-15.9C-728.2-414.7-727.9-415.6-728.4-416.9z M-801.9-370.5c-0.8,0.1-1.3,0.5-1.3,1.2
			c-0.1,1.3-1,2.8,0.4,3.9c2.1,1.6,4.2,3.1,6.3,4.5c0.9,0.6,3.6-0.3,4.1-1.4c0.6-1.3,0-2.3-1-3.1c-2.2-1.6-4.3-3.1-6.4-4.6
			C-800.5-370.5-801.2-370.8-801.9-370.5z M-770.3-397.2c-2.9,0.5-5.3,1.2-7.7,1.2c-3.9,0-5.7,2.4-7.4,5.3c-0.2,0.3-0.6,0.7-0.3,1
			c0.3,0.4,0.7,0.2,1.1,0.1c2.1-0.3,4.1-0.9,6.3-1C-773.9-390.5-772.4-393.7-770.3-397.2z M-786.2-380.8c3.4,0.4,6.3-1.6,8.1-5.2
			c0.2-0.3,0.5-0.7,0.3-1.1c-0.2-0.4-0.7-0.2-1.1-0.2c-2,0.3-4,0.9-6,0.9c-3.9,0-5.6,2.5-7.4,5.3c-0.2,0.3-0.6,0.7-0.2,1
			c0.3,0.3,0.8,0.2,1.1,0.1C-789.9-380.2-788.4-380.4-786.2-380.8z M-796.5-374.7c-0.5,0.3-0.8,0.8-1.1,1.3
			c-0.2,0.6,0.1,0.9,0.5,1.2c1.7,1.2,3.4,2.4,5.1,3.6c0.7,0.5,1.2,0.2,1.6-0.4c0.4-0.5,0.7-1.1,0-1.6c-1.8-1.4-3.7-2.7-5.6-4
			C-796.1-374.7-796.3-374.6-796.5-374.7z M-772.2-408.8c-0.7,0.3-1,0.9-1.3,1.5c-0.3,0.7,0.2,1,0.6,1.3c1.6,1.2,3.3,2.4,5,3.6
			c0.8,0.6,1.4,0.4,1.9-0.4c0.5-0.8,0.5-1.3-0.2-1.8c-1.7-1.2-3.4-2.4-5.2-3.7C-771.6-408.6-772-408.7-772.2-408.8z M-775.1-399.6
			L-775.1-399.6c1-0.1,1.9-0.3,2.9-0.5c0.8-0.2,1.3-0.4,0.4-1.3c-3.2-3.2-4.1-3.1-6.6,0.6c-0.1,0.2-0.2,0.3-0.3,0.5
			c-0.5,0.8-0.4,1.3,0.7,1.1C-777-399.3-776.1-399.4-775.1-399.6z M-788.2-377.3c-1.1,0.5-3.2-0.1-3.4,1.2c-0.2,1.1,1.8,1.6,2.8,2.4
			c1.1,0.9,1.8,0.3,2.3-0.7c0.6-1,2.3-2,1.6-3.1C-785.4-378.2-787.1-377.2-788.2-377.3z"/>
	</g>
</g>
<g>
	<g id="XMLID_00000023979250483213979310000006191107197511224727_">
		<path class="st4" d="M36.9,19.4c-0.1,1.5-0.5,3.3-0.6,5.2c0.2,40.7,0.3,81.3,0.3,122.2c0,5,1.7,6.7,6.7,6.7
			c57.2-0.2,114.2-0.4,171.3-0.5c4.3,0,6.6-1.1,6.4-6c-0.1-41,0-82,0.1-122.9c0.1-4.6-1.8-6.1-6.4-6.2c-57.3,0.1-114.7,0-172.2-0.1
			C40.8,17.8,38.9,17.5,36.9,19.4z M22.8,141.5c2.3-3.1,1.6-6.1,1.5-9c0.1-31.4,0.1-62.7,0-94c0-1.4,0-2.6,0-4
			c-0.2-1.6,0.2-3.5-1.7-4.3c-1.8-0.9-3.1,0.7-4.2,1.8c-4.4,3.6-7,7.6-6.9,14c0.4,26.3,0.5,52.2,0.2,78.5
			C11.7,133,16.4,137.2,22.8,141.5z M240.2,34c-0.9-0.6-2.2-4.4-5.2-3c-2.3,1.2-1.3,4.5-1.3,6.9c0,30.8,0.2,61.8,0.4,92.5
			c0,3.3-1.6,9.1,1.8,9.5c4.5,0.3,7.5-4.6,9.3-9c0.7-1.4,0.5-3.3,0.4-4.8c0-27,0.1-54.1,0.1-81.1C245.9,40.9,244.8,37.4,240.2,34z
			 M104.3,366.8c-2.3,2.1-3.1,4.6-1.5,7.3c2.8,4.7,3.2,11.8,10.5,12.1c10.7,0.2,21.4,0.2,31.9-0.1c4.5-0.1,11.5-9.7,10.5-14.7
			c-1-5.7-5.3-7.7-10.8-7.8c-11,0-21.7,0-32.8,0C109.1,363.6,106.2,364.2,104.3,366.8z M146.5,200.9c-8.7,8.6-14.9,16.9-23,22.7
			c-13.1,9.4-13.3,21.9-12.2,35.5c0.2,1.6-0.3,3.6,1.5,4.2c1.9,0.6,2.9-0.9,4-2.1c6.2-6.1,11.7-13.1,18.7-18.4
			C150.3,232.3,147.9,217.8,146.5,200.9z M132.6,294.4c12.5-7,17.1-20.6,14.7-37c-0.2-1.6,0.2-3.5-1.7-4.3c-1.8-0.9-2.9,0.9-4.1,2
			c-6,6-11.3,12.9-18,17.6c-13.2,9.2-13,22-12.1,35.6c0.2,1.6-0.3,3.6,1.7,4c1.7,0.4,3-1.2,4-2.4C121.6,305.4,126.1,301,132.6,294.4
			z M112.5,339.9c-1.1,2.2-0.9,4.7-0.5,7c0.6,2.5,2.5,2.8,4.4,2.8c8.6,0,17.4,0,26-0.1c3.6,0,4.6-2.3,4.5-5.4c0-2.6-0.4-5.2-3.6-5.3
			c-9.4-0.2-18.9-0.1-28.4,0C113.9,338.9,113.4,339.5,112.5,339.9z M112.1,166.7c-1.6,2.8-1.3,5.5-0.8,8.2c0.5,3,3.2,2.8,5.1,2.8
			c8.5,0.2,16.9-0.1,25.4,0c4.3,0,5.8-2,5.6-5.9c-0.1-3.8-1.3-5.5-5.2-5.6c-8.8,0.1-17.4,0-26.2,0.1
			C114.7,166,113.2,166.3,112.1,166.7z M124.6,204.3L124.6,204.3c3-2.8,5.8-5.6,8.7-8.6c2.2-2.6,3.3-4.5-1.6-5.3
			c-18.2-3-21.4-0.5-20.7,17.9c0.1,0.9,0,1.7,0,2.4c0.2,3.9,1.8,5.2,4.9,2.2C119,210.2,121.7,207.3,124.6,204.3z M134.1,311.3
			c-2.7,4.3-11,7.4-8.6,12.1c2,4.1,10,1,15.4,1.4c6.1,0.5,6.7-3.3,6.2-7.8c-0.6-4.8,2.7-12.2-1.8-14.2
			C141.2,301.2,138.2,308.6,134.1,311.3z"/>
	</g>
</g>
</svg>
