<?xml version="1.0" encoding="utf-8"?>
<!-- Generator: Adobe Illustrator 26.2.1, SVG Export Plug-In . SVG Version: 6.00 Build 0)  -->
<svg version="1.1" id="Layer_1" xmlns="http://www.w3.org/2000/svg" xmlns:xlink="http://www.w3.org/1999/xlink" x="0px" y="0px"
	 viewBox="0 0 180 250" style="enable-background:new 0 0 180 250;" xml:space="preserve">
<style type="text/css">
	.st0{fill:url(#SVGID_1_);}
</style>
<linearGradient id="SVGID_1_" gradientUnits="userSpaceOnUse" x1="8.8064" y1="124.9164" x2="171.1936" y2="124.9164">
	<stop  offset="0" style="stop-color:#A47122"/>
	<stop  offset="0.5" style="stop-color:#F2D26B"/>
	<stop  offset="1" style="stop-color:#A47122"/>
</linearGradient>
<path class="st0" d="M171.01,201.31c-0.15-1.09-0.45-2.15-0.56-3.24c-0.78-7.32-1.59-14.65-2.27-21.99
	c-0.29-3.18-0.24-6.39-0.47-9.58c-0.13-1.91-0.35-3.84-0.8-5.69c-0.55-2.26-1.77-4.11-4.23-4.78c-1.77-0.48-3.54-0.97-5.28-1.54
	c-4.62-1.5-9.33-2.77-13.8-4.65c-3.86-1.62-7.37-4.05-11.12-5.94c-4.65-2.35-7.81-6.23-10.62-10.34c-2.82-4.12-4.23-8.98-5.34-13.78
	c-1.31-5.69-2.12-11.51-2.97-17.3c-1.58-10.62-1.79-21.28-0.41-31.93c0.66-5.08,2.05-10.04,6.38-13.29c2.53-1.9,5.53-3.18,8.3-4.78
	c0.64-0.37,1.51-0.79,1.71-1.39c0.44-1.27,0.67-2.66,0.71-4c0.05-1.87-0.31-3.76-0.21-5.62c0.19-3.75,0.58-7.49,0.86-11.23
	c0.18-2.41,0.53-4.84,0.4-7.25c-0.15-2.84-1.16-4.29-4.16-4.39c-0.64-0.02-1.3,0.05-1.92-0.08c-6.57-1.4-13.17-2.72-19.7-4.32
	c-3.5-0.86-6.84-2.33-10.31-3.32c-2.45-0.7-5.01-1.43-7.58-0.75c-6.37,1.68-12.7,3.54-19.08,5.22c-4.19,1.11-8.42,2.11-12.66,3.02
	c-2.18,0.47-4.43,0.65-6.65,0.96c-1.23,0.17-2.07,0.86-2.2,2.09c-0.17,1.62-0.34,3.28-0.22,4.9c0.44,5.75,1.03,11.49,1.53,17.24
	c0.21,2.37,0.22,4.76,0.55,7.11c0.11,0.81,0.77,1.79,1.47,2.21c1.19,0.72,2.65,0.97,3.92,1.57c5.11,2.42,8.51,6.42,9.85,11.86
	c1.01,4.12,1.8,8.36,2.08,12.59c0.63,9.3,0.15,18.59-1.32,27.8c-0.77,4.79-1.75,9.55-2.85,14.27c-0.99,4.28-2.41,8.47-4.87,12.16
	c-3.76,5.63-8.83,9.74-15.03,12.45c-3.43,1.5-6.8,3.19-10.33,4.45c-5.09,1.82-10.29,3.31-15.45,4.95c-2.65,0.84-4.25,2.38-4.11,5.45
	c0.14,3.06,0.12,6.15-0.07,9.2c-0.36,5.67-0.79,11.34-1.38,16.99c-0.56,5.33-1.35,10.64-2,15.74c0.05,4.33,0.04,5.95,4.07,7.28
	c0.13,0.04,0.23,0.15,0.36,0.21c3.53,1.63,6.99,3.44,10.62,4.82c4.15,1.58,8.44,2.77,12.67,4.12c5.74,1.84,11.44,3.78,17.21,5.49
	c7.81,2.33,15.04,5.98,22.3,9.56c3.49,1.72,6.94,3.54,10.43,5.26c2.1,1.04,4.23,1.31,6.4,0.04c2.13-1.25,4.25-2.54,6.5-3.55
	c8.31-3.75,16.56-7.64,25.03-10.99c7.03-2.77,14.32-4.86,21.51-7.22c6.87-2.26,13.92-4.02,20.34-7.49
	C170.3,207.68,171.74,206.41,171.01,201.31z M162.44,208.68c-6.22,3.39-13.08,5.05-19.73,7.25c-6.65,2.19-13.42,4.03-19.98,6.44
	c-8.41,3.09-16.67,6.58-24.99,9.94c-1.86,0.75-3.7,1.58-5.5,2.46c-1.97,0.97-3.91,0.78-5.82-0.03c-3.46-1.46-6.88-3-10.32-4.49
	c-6.97-3-13.91-6.07-21.24-8.13c-5.57-1.56-11.1-3.29-16.63-4.98c-3.85-1.17-7.77-2.19-11.51-3.65c-4.51-1.77-8.85-3.93-13.26-5.94
	c-1.46-0.67-1.96-1.98-2.09-3.45c-0.07-0.82-0.01-1.65-0.01-2.47c-0.05,0-0.1-0.01-0.15-0.01c0.8-5.67,1.72-11.32,2.37-17
	c0.54-4.68,0.82-9.4,1.09-14.11c0.17-2.97-0.02-5.96,0.18-8.93c0.26-4.06,0.37-3.83,4.12-5.11c5.15-1.76,10.49-2.95,15.66-4.64
	c2.76-0.9,5.33-2.39,8.01-3.53c6.83-2.92,12.16-7.57,16.08-13.85c2.36-3.79,3.57-8.04,4.59-12.32c1.07-4.5,1.91-9.05,2.69-13.61
	c0.42-2.47,0.23-5.06,0.8-7.48c1.32-5.55,0.84-11.18,1.14-16.77c0.38-6.86-0.51-13.66-2.23-20.28c-1.6-6.14-5.7-10.47-11.8-12.15
	c-3.05-0.84-2.69-2.87-2.91-4.76c-0.66-5.78-1.1-11.58-1.64-17.38c-0.19-2.05-0.45-4.09-0.61-6.15c-0.22-2.69,0.88-3.63,2.95-4.04
	c8.11-1.61,16.18-3.42,24.25-5.23c2.41-0.54,4.79-1.22,7.12-2.03c4.93-1.7,9.7-0.99,14.54,0.46c5.94,1.78,11.92,3.43,17.95,4.86
	c3.04,0.72,6.22,0.89,9.35,1.18c2.93,0.27,4.19,1.48,4.1,4.43c-0.07,2.19-0.33,4.37-0.49,6.55c-0.4,5.52-0.8,11.03-1.2,16.55
	c-0.05,0.73-0.12,1.46-0.12,2.19c0,1.29-0.7,1.91-1.86,2.38c-3.33,1.34-6.48,3-9,5.66c-3.2,3.38-4.27,7.66-4.82,12.05
	c-1.37,10.87-1.26,21.76,0.11,32.62c0.81,6.39,1.53,12.83,2.88,19.12c0.97,4.48,2.46,8.99,4.56,13.04
	c2.67,5.15,6.75,9.24,11.89,12.24c5.16,3.01,10.42,5.71,16.19,7.35c3.83,1.09,7.62,2.28,11.45,3.37c2.47,0.7,3.64,2.56,4.21,4.8
	c0.47,1.85,0.68,3.78,0.82,5.68c0.32,4.27,0.41,8.57,0.81,12.83c0.55,5.87,1.29,11.73,1.97,17.59c0.13,1.09,0.4,2.16,0.59,3.24
	C167.8,205.29,166.27,206.58,162.44,208.68z M123.77,205.63L123.77,205.63c0.01-0.04,0.02-0.09,0.03-0.14
	C123.79,205.54,123.78,205.58,123.77,205.63z M162.66,198.55c-0.8-5.38-1.94-10.73-2.34-16.13c-0.41-5.59-0.08-11.23-0.13-16.85
	c-0.03-3.05-0.74-5.47-3.9-6.48c-2.53-0.81-5.07-1.57-7.62-2.31c-8.39-2.42-16.03-6.25-23.08-11.44c-4.73-3.48-7.86-7.98-9.91-13.34
	c-2.15-5.62-3.62-11.46-4.54-17.38c-1.99-12.83-3.37-25.72-2.26-38.74c0.42-4.94,0.88-9.88,2.71-14.54
	c0.98-2.51,2.13-4.94,4.15-6.88c2.2-2.11,4.73-3.56,7.59-4.54c0.46-0.16,1.06-0.68,1.12-1.09c1.02-7.76,1.96-15.53,2.92-23.3
	c-0.11-0.01-0.21-0.02-0.32-0.04c0-0.69,0.02-1.38,0-2.06c-0.09-2.33-0.57-2.7-2.94-2.69c-1.86,0.01-3.76,0.05-5.57-0.28
	c-4.41-0.79-8.82-1.63-13.16-2.75c-3.67-0.95-7.2-2.4-10.83-3.51c-1.69-0.52-3.52-1.21-5.2-1.02c-3.24,0.37-6.44,1.17-9.6,2.04
	c-5.41,1.49-10.73,3.27-16.14,4.72c-3.3,0.88-6.67,1.61-10.17,1.27c-2.31-0.23-2.94,0.6-2.61,2.92c0.26,1.86,0.56,3.72,0.69,5.59
	c0.47,6.44,0.91,12.88,2.3,19.21c0.08,0.36,0.39,0.8,0.71,0.97c0.93,0.49,1.9,0.94,2.89,1.28c4.2,1.44,6.86,4.48,8.57,8.41
	c2.41,5.57,3.65,11.42,3.72,17.5c0.12,9.83,0.05,19.65-1.26,29.43c-0.88,6.58-2.09,13.07-3.83,19.48
	c-1.46,5.42-3.65,10.46-7.11,14.86c-3.14,4-7.29,6.88-11.66,9.42c-6.29,3.66-13.11,5.98-20.07,7.95c-2.05,0.58-4.09,1.28-6.05,2.11
	c-0.55,0.23-1.05,1.11-1.16,1.75c-0.19,1.21-0.08,2.46-0.08,3.7c-0.02,4.06,0.08,8.13-0.07,12.19c-0.13,3.42-0.39,6.85-0.88,10.23
	c-0.68,4.74-1.63,9.45-2.47,14.17c-0.25,1.42,0.35,2.7,1.61,3.44c3.79,2.22,7.86,3.67,12.1,4.78c5.58,1.46,11.02,3.52,16.65,4.68
	c9.97,2.05,19.35,5.62,28.37,10.15c4.61,2.31,9.29,4.32,14.22,5.79c0.78,0.23,1.76,0.26,2.52,0c2.9-0.98,5.81-1.99,8.61-3.23
	c5.02-2.21,9.87-4.85,14.97-6.83c6.05-2.35,12.27-4.28,18.47-6.21c7.83-2.43,15.73-4.62,23.58-7c1.9-0.58,3.81-1.34,5.5-2.36
	c0.79-0.47,1.42-1.74,1.5-2.7C163.29,201.48,162.87,200,162.66,198.55z M141.94,158.05c-1.6,1.24-4.38,1.71-6.21,0.65
	c-3.55-2.07-7-4.29-10.6-6.52c0.71-0.84,1.24-1.46,1.75-2.05C131.95,152.8,136.99,155.45,141.94,158.05z M150.58,190.82
	c0.16,0.77-0.11,1.63-0.19,2.45c-0.72-0.22-1.5-0.32-2.14-0.68c-3.85-2.14-6.59-5.47-9.29-8.83c-0.17-0.21-0.3-0.46-0.47-0.68
	c-1.47-1.85-1.46-2.07,0.21-4.03c2.37,2.31,4.74,4.61,7.23,7.03c0.53-6.18,1.02-12.01,1.53-17.98c-4.66,0.17-8.82,1.63-12.03,5.65
	c-0.59-0.78-1.03-1.35-1.5-1.96c3.22-3.81,7.19-6.02,12.03-6.61c0.84-0.1,1.75,0.03,2.59,0.22c1.12,0.24,1.59,0.85,1.41,2.18
	C148.96,175.34,148.97,183.1,150.58,190.82z M129.15,188.91c-1.13-1.46-2.18-2.82-3.22-4.18c-0.11-0.15-0.18-0.34-0.31-0.45
	c-1.43-1.14-1.02-2.33,0-3.68c0.55,0.76,1.07,1.49,1.67,2.32c0.35-3.3,1.85-5.83,3.83-8.33c0.49,0.74,1,1.38,1.35,2.09
	c0.13,0.26-0.03,0.75-0.19,1.06c-0.88,1.65-1.78,3.28-2.73,4.89c-0.32,0.54-0.8,0.98-1.31,1.59
	C129.58,187.81,129.58,187.81,129.15,188.91z M131.13,185.53c0.92,1.04,1.61,1.79,2.27,2.56c0.11,0.12,0.19,0.35,0.15,0.5
	c-0.64,2.36-1.3,4.71-2.03,7.29c-0.76-0.58-1.39-0.96-1.9-1.47c-0.24-0.24-0.42-0.73-0.35-1.05
	C129.82,190.88,130.44,188.41,131.13,185.53z M28.96,173.3c-0.14-1.73-0.23-3.49-0.62-5.17c-0.3-1.3,0.24-1.94,1.26-2.13
	c3.63-0.68,7.06-0.15,10.15,1.95c-0.34,1.85-1.15,2.04-2.67,1.53c-1.58-0.52-3.31-0.6-4.99-0.81c-0.66-0.08-1.23,0.12-1.03,0.99
	c1.24,5.33,1.06,10.74,0.9,16.15c0,0.07,0.1,0.14,0.34,0.48c3.52-3.45,7.01-6.86,10.54-10.3c0.01,0,0.19,0.14,0.33,0.31
	c0.17,0.21,0.31,0.44,0.54,0.77c-3.85,5.82-7.78,11.55-14.07,15.1c-0.24,0.13-0.47,0.32-0.73,0.38c-0.41,0.1-0.84,0.12-1.26,0.17
	c-0.04-0.43-0.19-0.87-0.11-1.28C28.73,185.46,29.44,179.43,28.96,173.3z M47.11,161.78c-0.37,0.77-0.62,1.28-0.9,1.85
	c-0.74-0.46-1.43-0.89-2.19-1.36c0.16-0.51,0.32-0.97,0.45-1.44c0.57-2.1,0.99-2.39,2.94-1.47c2.8,1.33,5.2,3.24,6.98,5.8
	c0.7,1-0.33,1.6-0.98,2.23c-0.47-0.45-0.89-0.85-1.43-1.36c-1.71,2.37-3.35,4.65-5.12,7.1c-0.36-0.46-0.7-0.9-1.11-1.41
	c1.5-2.18,2.97-4.32,4.47-6.52c0.55,0.31,0.91,0.51,1.27,0.71c0.09-0.12,0.19-0.25,0.28-0.37
	C50.24,164.31,48.73,163.09,47.11,161.78z M70.25,144.7c0.13,0.4-0.88,1.16-1.45,1.86c-2.49-2.96-2.03-9.99,0.44-11.72
	c0.47,0.36,1.03,0.68,1.43,1.15c0.22,0.26,0.36,0.83,0.23,1.13C69.81,139.58,69.42,142.04,70.25,144.7z M76.6,143.27
	c0.46-0.17,0.9-0.4,1.48-0.67c-2.53-1.83-4.89-0.84-7.29,0.13c-0.41-1.17-0.35-1.9,0.91-2.44c3.27-1.39,6.35-1.01,8.47,1.24
	c0.85,0.91,1.3,1.96,1.1,3.33c-0.43,0.14-0.89,0.29-1.41,0.46c-0.51-0.83-0.99-1.63-1.48-2.44c-0.13,0.07-0.26,0.14-0.39,0.21
	c0.17,0.41,0.35,0.81,0.56,1.3c-3.11,1.51-6.35,2.79-9.26,4.58c-2.92,1.81-5.52,4.13-8.31,6.26c-1.24-0.98-1.28-1.2-0.05-2.36
	C65.48,148.6,70.72,145.42,76.6,143.27z M73.54,106.29c1.02-0.34,2-0.66,3.12-1.03c0.27,0.74,0.58,1.4,0.71,2.09
	c0.05,0.26-0.28,0.74-0.56,0.88c-1.31,0.62-1.46,1.58-1.3,2.94c0.28,2.35,0.3,4.74,0.42,7.11c0.02,0.35,0.04,0.7,0.07,1.43
	c0.9-0.65,1.52-1.09,2.26-1.63c0.37,0.93,0.77,1.78,1.02,2.67c0.11,0.39,0.02,0.95-0.19,1.3c-1.16,1.94-2.81,3.35-4.89,4.24
	c-1.04,0.44-1.45,0.19-1.4-0.96c0.11-2.47,0.34-4.93,0.43-7.4c0.14-3.48,0.2-6.96,0.29-10.43C73.55,107.1,73.54,106.7,73.54,106.29z
	 M82.17,84.83c-0.41,0.57-0.82,1.14-1.2,1.67c-0.39-1.85-0.82-3.65-1.11-5.48c-0.08-0.51,0.28-1.09,0.44-1.64
	c0.16-0.01,0.33-0.02,0.49-0.03c0.74,1.55,1.47,3.11,2.26,4.76c0.3-0.39,0.61-0.8,0.93-1.21c1.14,1.49,1.18,2.8,0.28,4.38
	c-1.25,2.18-2.65,4.3-3.59,6.61c-1.62,3.99-1.59,8.14-0.16,12.21c1.6,4.53,4.08,8.54,7.49,11.94c1.06,1.06,1.58,1.03,2.67-0.17
	c0.89-0.97,1.67-2.05,2.66-3.29c0.44,1,0.8,1.73,1.08,2.5c0.1,0.26,0.1,0.68-0.06,0.88c-1.38,1.87-2.79,3.73-4.22,5.56
	c-0.67,0.85-1.4,0.76-2.05-0.05c-0.83-1.04-1.66-2.07-2.42-3.15c-1.75-2.5-3.7-4.91-5.1-7.6c-1.33-2.56-2.1-5.42-3.07-8.16
	c-0.28-0.77-0.36-1.61-0.62-2.38c-1.07-3.22-0.52-6.18,1.21-9.05c1.33-2.19,2.5-4.48,3.72-6.74C82.04,85.93,82.22,85.44,82.17,84.83
	z M76.91,77.89c0.19,0.04,0.38,0.08,0.58,0.13c0.94-1.13,1.88-2.25,2.82-3.38c1.44,1.33,1.52,1.98,0.37,3.54
	c-1.19,1.62-2.41,3.21-3.62,4.81c-3.21-2.46-3.02-12.63-0.12-14.89c0.69,2.07,1.45,4.14,2.05,6.26c0.13,0.47-0.27,1.09-0.43,1.64
	c-0.12-0.01-0.24-0.03-0.35-0.04c-0.44-1.04-0.89-2.09-1.33-3.13c-0.24,0.08-0.47,0.15-0.71,0.23
	C76.42,74.67,76.67,76.28,76.91,77.89z M101.9,72.65c-1.29,1.21-1.59,2.84-2.02,4.42c-0.44,1.62-1.04,3.21-1.42,4.84
	c-0.39,1.63-0.6,3.31-0.9,5.05c-1.49-1.77-2.35-3.51-0.91-5.63c0.2-0.29,0.24-0.69,0.35-1.04c0.76-2.22,0.76-2.22-0.86-4.14
	c-0.67,1.45-1.34,2.88-2.03,4.39c-1.26-2.04-1.3-3.5-0.07-4.97c0.27-0.32,0.84-0.39,1.28-0.57c-0.15-0.5-0.16-1.12-0.48-1.48
	c-0.99-1.13-0.68-2.24-0.24-3.34c1.26,1.79,2.54,3.59,4.06,5.75c0.97-2.78,1.82-5.23,2.66-7.64c3.03,2.17,2.76,12.31,0.07,14.46
	c-1.95-1.36-2.29-3.09-1.08-5.24c1.26,0.57,1.41-0.29,1.48-1.28C101.86,75.04,101.96,73.86,101.9,72.65z M93.39,71.52
	c-1.16,4.04-1.25,8.09,0.99,11.86c1.02,1.72,2.37,3.26,3.35,5.01c1.52,2.72,2.99,5.48,4.18,8.35c0.43,1.03,0.04,2.42-0.08,3.64
	c-0.18,1.81-0.47,3.61-0.67,5.42c-0.12,1.17-0.91,1.91-1.52,2.81c-0.92,1.35-1.65,2.83-2.51,4.35c-0.94-1.26-1.33-2.31-0.59-3.84
	c1.71-3.54,2.72-7.31,2.19-11.29c-0.46-3.42-1.89-6.53-3.58-9.49c-1.02-1.77-2.29-3.4-3.22-5.21c-2.53-4.96-2.34-10.04-0.38-15.13
	c0.59-1.52,1.16-3.05,1.8-4.73c0.94,0.52,1.88,1.03,2.66,1.46C95.1,67.06,94.05,69.23,93.39,71.52z M92.91,110.98
	c-0.79-2.97-0.53-5.91-0.49-8.96c2.62,1.59,2.79,4.07,2.7,6.47c-0.07,2.02,0.7,3.67,1.61,5.26c1.17,2.04,2.31,4.17,4.45,5.44
	c0.3,0.18,0.62,0.33,1.02,0.54c0.12-2.51,0.22-4.89,0.35-7.27c0.12-2.25,0.79-4.34,1.49-6.42c0.18,0.04,0.36,0.08,0.54,0.13
	c0.12,2.39,0.27,4.78,0.37,7.17c0.14,3.39,0.29,6.78,0.36,10.17c0.02,0.88-0.26,1.76-0.41,2.64c-0.82-0.32-1.78-0.45-2.43-0.98
	C97.85,121.42,94.47,116.83,92.91,110.98z M96.71,124.28c-1.92,2.65-3.41,5.62-5.34,8.26c-1.76,2.42-2.13,2.34-4.12,0.09
	c-2.71-3.07-4.87-6.53-6.44-10.29c-1.52-3.64-2.79-7.38-4.27-11.03c-0.51-1.26-0.56-2.09,1-2.4c1.35,3.24,2.73,6.47,4.05,9.71
	c1.27,3.1,3.11,5.8,5.52,8.11c1.63,1.56,2.7,1.52,4.1-0.26c1.6-2.04,3.09-4.16,4.64-6.25c0.14-0.19,0.34-0.33,0.48-0.46
	C98.09,121.21,97.97,122.55,96.71,124.28z M96.45,94.1c-0.4,1.82-0.68,3.67-1,5.48c-1.25-0.82-2.1-2.83-1.83-4.35
	c0.34-1.92,0.66-3.84,0.98-5.76c0.13-0.03,0.27-0.06,0.4-0.09C95.82,90.83,96.87,92.19,96.45,94.1z M90.82,82.83
	c0.95,2.03,2.15,3.58,1.63,6.14c-1.07,5.26,0.22,10.07,4.6,13.64c1.1,0.9,0.19,1.7,0.09,2.72C90.73,100.47,88.49,93.07,90.82,82.83z
	 M91.45,104.17c0.09,0,0.19,0.01,0.28,0.01c0,0.54-0.02,1.09,0,1.63c0.06,1.64,0.11,3.28,0.23,4.91c0.15,2.14-1.26,3.5-2.83,5.43
	c-0.3-0.5-0.57-1.01-0.9-1.49c-2.57-3.86-4.22-8.09-5.21-12.6c-0.51-2.34-1.18-4.65-1.66-6.99c-0.12-0.58,0.13-1.3,0.39-1.87
	c0.44-0.94,1.03-1.8,1.75-2.71c0.16,6.45,1.62,12.46,5.61,17.96C89.94,106.93,90.69,105.55,91.45,104.17z M85.48,113.54
	c-2.07-1.59-2.94-4.01-2.09-5.91C83.96,109.57,85.77,111.09,85.48,113.54z M81.19,105.2c-0.73-2.12-0.72-2.14,1.1-3.21
	C82.39,103.24,82.84,104.47,81.19,105.2z M73.08,129.66c1.67-1.68,3.45-3.27,5.31-5.02c3.63,4.96,8.51,8.96,9.03,15.57
	c-0.23,0.06-0.36,0.12-0.48,0.13c-2.42,0.27-2.48,0.28-3.03-2.12c-0.68-2.94-1.92-5.58-3.69-8.03c-0.82-1.14-1.59-1.26-2.62-0.49
	c-1.1,0.82-2.17,1.68-3.25,2.53c-0.31,0.24-0.62,0.49-0.92,0.72C71.7,131.42,71.63,131.12,73.08,129.66z M89.76,140.91
	c-0.14,1.19-0.23,1.9-0.28,2.34c-2.35,0.13-4.6,0.26-7.09,0.39c-0.14-0.34-0.39-0.95-0.79-1.94
	C84.4,141.43,86.98,141.18,89.76,140.91z M98.95,149.29c1.17,0.33,2.34,0.66,3.51,0.98c-0.04,0.17-0.08,0.35-0.12,0.52
	c-1.91,0.68-3.84,0.62-5.69-0.15c-0.41-0.17-0.88-0.89-0.84-1.31c0.15-1.46,0.52-2.89,0.81-4.42c0.76,0.17,1.28,0.29,1.91,0.43
	c-0.21,0.91-0.4,1.77-0.61,2.64C97.72,148.86,98.29,149.11,98.95,149.29z M122.28,154.67c0.57-0.66,1.04-1.21,1.54-1.79
	c1.44,1.22,2.84,2.32,4.13,3.54c0.27,0.26,0.36,1.24,0.15,1.42c-2.14,1.77-4.36,3.44-6.56,5.14c-1.69-1.9-1.69-1.94,0.29-3.68
	c0.72-0.63,1.46-1.25,2.18-1.89c0.13-0.11,0.19-0.31,0.33-0.55C123.69,156.16,123.04,155.47,122.28,154.67z M122.26,175.21
	c0.47,0.83-0.14,2.26-0.26,3.41c-0.19,0.03-0.39,0.06-0.58,0.09c-0.9-1.41-1.85-2.79-2.66-4.24c-0.19-0.34-0.07-1.04,0.16-1.41
	c1.53-2.51,3.11-4.99,4.73-7.45c0.11-0.17,0.73-0.2,0.97-0.05c0.33,0.2,0.51,0.62,0.83,1.05c-0.77,0.96-1.55,1.9-2.3,2.87
	C121.8,171.21,120.96,172.91,122.26,175.21z M115.96,161.86c0.65-0.57,1.3-1.14,2.14-1.87c1.45,1.86,2.94,3.78,4.48,5.76
	c-0.57,0.7-1.08,1.32-1.61,1.98C119.29,165.76,117.7,163.89,115.96,161.86z M116.54,167.85c-0.96-1.38-0.9-1.88,0.43-3.12
	C118.68,166.19,118.62,166.56,116.54,167.85z M114.23,162.64c-0.87-0.85-1.19-1.57-0.11-2.58c1.09-1.02,2-2.24,3.12-3.51
	c0.48,0.45,0.87,0.82,1.38,1.3C117.14,159.47,115.72,161.03,114.23,162.64z M124.29,169.14c0.16-0.02,0.32-0.03,0.48-0.05
	c1.44,2.09,3.01,4.1,4.24,6.31c0.31,0.57-0.46,1.73-0.73,2.63l-0.74,0.1c-1.37-2.34-2.81-4.64-4.03-7.05
	C123.29,170.67,124,169.79,124.29,169.14z M128.46,173.16c-0.49-0.75-1.38-1.55-1.47-2.43c-0.08-0.77,0.76-1.63,1.08-2.23
	c-1.59-1.98-3.09-3.84-4.76-5.92c0.62-0.5,1.14-0.93,1.84-1.5c1.13,1.47,2.25,2.94,3.39,4.39c1.11,1.4,1.12,1.39,2.37,0.17
	c0.35-0.34,0.72-0.67,1.19-1.1c0.49,1.2,0.91,2.25,1.25,3.07C131.65,169.53,130.07,171.32,128.46,173.16z M121.04,159.11
	c-4.03-3.57-8.03-7.11-12.02-10.65c0.93-1.04,1.5-1.23,2.68-0.23c3.31,2.82,6.52,5.74,9.77,8.63
	C122.71,157.97,121.49,158.54,121.04,159.11z M108.66,147.83c-1.04,0.92-1.95,1.7-3.05,0.43c0.98-1.23,1.9-2.38,2.85-3.56
	C110.5,145.65,110.52,146.2,108.66,147.83z M110.54,152.94c1.66,1.27,3.15,2.76,4.85,4.27c-0.61,0.73-1.09,1.31-1.55,1.86
	c-4.93-4.07-8.85-9.2-15.13-11.04c-0.03-1.91,0.02-1.98,1.63-1.41C104.2,147.97,107.35,150.5,110.54,152.94z M95.58,147.23
	c-2.13-0.13-4.2-0.18-6.25-0.46c-0.31-0.04-0.47-1.14-0.8-2.01c2.81,0.25,5.02,0.45,7.35,0.66
	C95.78,146.07,95.7,146.55,95.58,147.23z M93.09,149.69c-2.68,0.65-3.19,0.25-2.73-2.1c0.89,0.06,1.66,0.11,2.59,0.17
	C92.99,148.42,93.04,149.06,93.09,149.69z M88.2,144.04c-0.11,1.88-0.18,3.65-0.33,5.42c-0.1,1.13-1.05,0.91-1.69,0.78
	c-0.37-0.08-0.83-0.61-0.9-1.01c-0.2-1.12-0.16-2.27-0.33-3.4c-0.21-1.48-0.12-1.67,1.4-1.78C86.89,144.01,87.43,144.04,88.2,144.04
	z M84.2,144.91c0.04,0.93,0.07,1.36,0.08,1.65c-2.02,0.63-3.89,1.33-5.82,1.77c-0.77,0.18-1.67-0.21-2.51-0.34
	c-0.03-0.15-0.05-0.3-0.08-0.46C78.55,146.7,81.24,145.85,84.2,144.91z M60.67,163.77c-0.59-0.52-1.19-1.06-1.97-1.76
	c1.44-1.57,2.72-3.18,4.23-4.54c2.36-2.14,4.92-4.08,7.32-6.18c1.29-1.13,2.26-0.57,3.4,0.33C68.81,155.15,64.2,158.8,60.67,163.77z
	 M64.42,162.79c-1.43-0.72-1.43-0.97,0.04-2.1C65.77,161.44,64.96,162.1,64.42,162.79z M54.31,175.84c0.16,0.34-0.2,1-0.43,1.45
	c-0.27,0.52-0.67,0.97-0.94,1.35c-1.3-2.3-2.56-4.55-3.94-6.99c0.43-0.58,1.03-1.41,1.84-2.52
	C52.09,171.52,53.26,173.65,54.31,175.84z M53.69,168.92c1.13-1.31,1.87-2.97,2.87-4.61c0.67,0.72,1.21,1.31,1.73,1.87
	c-1.5,2.14-2.96,4.21-4.45,6.33C52.89,171.31,52.5,170.3,53.69,168.92z M52.93,180.27c1.2-1.77,2.29-3.61,3.35-5.47
	c0.58-1.02,0.64-2.09,0.22-3.29c-0.19-0.55,0.34-1.35,0.65-2.39c3.4,5.06,3.28,5.02-0.13,9.36c-1.4,1.78-2.73,3.63-4.13,5.48
	C51.84,182.2,51.94,181.73,52.93,180.27z M55.81,162.25c0.19-0.27,0.47-0.67,0.82-1.17c2.03,1.79,3.92,3.46,5.9,5.2
	c-0.28,0.52-0.6,1.09-1.15,2.1C59.41,166.22,57.65,164.27,55.81,162.25z M57.46,156.69c0.42,0.48,0.75,0.85,1.06,1.2
	c-1.53,1.8-3.01,3.55-4.68,5.5c-0.24-0.31-0.56-0.72-0.96-1.25C54.38,160.36,55.88,158.57,57.46,156.69z M56.66,154.39
	c0.39-0.45,0.7-0.82,1.17-1.37c1.28,1.51,2.5,2.93,3.78,4.44c-0.47,0.52-0.8,0.88-1.28,1.41C59.05,157.31,57.88,155.89,56.66,154.39
	z M70.92,148.99c1.35-0.67,2.46-1.17,3.87-0.53c1.02,0.47,2.19,0.63,3.31,0.82c0.83,0.14,1.68,0.28,2.28-0.72
	c0.24-0.4,1.02-0.47,1.54-0.69c1.1,2.19,0.68,2.9-1.65,3.11C77,151.26,73.96,150.59,70.92,148.99z M65.58,146.01
	c-4.41,2.99-8.59,6.24-11.88,10.5c-0.19,0.25-0.36,0.52-0.59,0.84c0.44,0.58,0.87,1.15,1.29,1.7c-0.82,1.36-1,1.39-2,0.44
	c-2.28-2.18-2.25-2.14-0.07-4.45c3.86-4.09,8.39-7.36,12.89-10.68c0.29-0.21,0.63-0.35,0.97-0.54
	C67.07,144.99,66.36,145.48,65.58,146.01z M47.18,175.43c0.12,0.17,0.01,0.6-0.11,0.84c-0.32,0.6-0.71,1.17-1.07,1.76
	c-1.21-1.44-2.32-2.77-3.43-4.1c-0.58-0.7-0.2-2.45,0.66-2.79c0.24-0.1,0.75,0.04,0.91,0.24C45.2,172.7,46.21,174.05,47.18,175.43z
	 M40.32,174.1c-0.47-0.11-0.93-0.22-1.38-0.33c-0.06,0.09-0.11,0.18-0.17,0.27c0.81,0.66,1.61,1.32,2.49,2.04
	c-0.59,0.78-0.98,1.3-1.39,1.85c-1.13-1.61-2.35-2.94-4.25-4.11c0.05,1.17,0.09,1.94,0.13,2.91c0.57-0.32,0.93-0.53,1.38-0.78
	c0.4,0.44,0.8,0.88,1.25,1.37c-1.35,1.54-2.41,3.28-4.66,3.91c0.21-3.37,0.41-6.61,0.62-9.93c1.66-0.18,2.58,1.24,3.73,1.91
	c0.99-1.95,1.95-3.91,3-5.81c0.11-0.21,0.85-0.28,1.14-0.13c0.59,0.31,1.08,0.82,1.7,1.32C42.67,170.47,41.49,172.29,40.32,174.1z
	 M43.2,179.24c0.14,0.01,0.29,0.01,0.43,0.02c1.06,2.39,2.28,4.73,3.05,7.21c0.22,0.7-0.91,1.81-1.55,2.97
	c-1.18-2.76-2.34-5.05-3.09-7.48C41.83,181.23,42.79,180.15,43.2,179.24z M46.63,184.22c-0.52-1.17-0.96-2.11-1.36-3.07
	c-0.07-0.18-0.05-0.48,0.06-0.64c1.35-1.99,2.73-3.96,4.16-6.02c1.66,1.67,1.82,2.35,0.7,4.23C49.1,180.55,47.89,182.3,46.63,184.22
	z M50.66,180.52c0.83,2.57,1.61,5.15,2.51,7.69c0.52,1.45-0.04,2.33-1.29,3.23c-0.26-0.68-0.5-1.29-0.72-1.91
	c-0.63-1.81-1.09-3.7-1.91-5.41C48.43,182.37,49.89,181.67,50.66,180.52z M52.16,192.52c1.16-0.76,2.1-1.86,3.11-2.79
	c1.12,1.59,1.22,1.9-0.09,3.49c-1.16,1.41-2.56,2.61-3.87,3.92C50.22,195.15,50.33,193.72,52.16,192.52z M54.85,194.81
	c1.48,3.82,2.89,7.49,4.27,11.05c-2.4-0.74-4.13-2.59-4.85-5.36c-0.17-0.66-0.17-1.41-0.49-1.98
	C52.86,196.92,53.72,195.93,54.85,194.81z M58.82,195.75c-1.19-3.7-2.19-7.46-3.49-11.11c-0.69-1.94,0.44-2.85,1.73-4.29
	c0.7,2.44,1.19,4.66,1.96,6.77c1.17,3.21,2.3,6.47,3.86,9.49c2,3.87,4.92,7.03,8.72,9.3c3.58,2.14,7.24,4.07,11.3,5.33
	c0.1-1.48,0.2-2.88,0.3-4.47c1.08,0.2,2.16,0.34,3.18,0.64c0.32,0.09,0.7,0.65,0.71,0.99c0.05,4.01,0.03,8.02,0.03,12.03
	c-0.15,0.09-0.31,0.18-0.46,0.27c-1.85-0.86-3.68-1.76-5.55-2.58c-3.42-1.5-6.72-3.2-9.82-5.3
	C65.07,208.62,61.09,202.81,58.82,195.75z M78.35,203.83c-6.35-2.5-10.75-7-14.17-12.67c-2.26-3.74-3.65-9.64-3.44-14.01
	c0.98-10.25,5.84-18.01,14.94-23.01c3.7-2.04,7.8-3.21,11.93-3.3c7.23-0.16,14.17,1.39,19.76,6.43c6.03,5.43,9.71,12.15,10.02,20.39
	c0.24,6.48-1.92,12.2-5.89,17.31c-2.12,2.73-4.39,5.39-7.46,6.93c-3.03,1.52-6.29,2.78-9.58,3.54
	C88.97,206.7,83.62,205.89,78.35,203.83z M92,207.43c0.9-0.04,1.8-0.24,2.89-0.4v4.34c11.12-3.85,20.23-9.49,23.21-22
	c0.96,0.91,1.66,1.53,2.28,2.21c0.16,0.18,0.22,0.59,0.14,0.84c-1.28,3.96-2.48,7.93-4.79,11.48c-2.06,3.17-4.7,5.71-7.68,7.96
	c-4.94,3.72-10.47,6.33-16.14,8.69c-0.12,0.05-0.26,0.04-0.74,0.11c-0.13-1.34-0.31-2.59-0.35-3.85c-0.08-2.65-0.05-5.31-0.14-7.96
	C90.66,207.85,91.01,207.47,92,207.43z M117.78,187.03c-0.37-0.47,0.04-1.55,0.1-2.44c1.9,1.78,3.61,3.4,5.34,4.99
	c1.15,1.06,0.08,1.99-0.13,3.41C121.15,190.86,119.35,189.04,117.78,187.03z M123.52,183.26c-0.59,1.31-1.05,2.68-1.64,4.2
	c-2.02-1.88-2.07-1.89-1.21-4.05c1.13-2.84,2.33-5.65,3.69-8.9c0.72,1.19,1.27,2,1.7,2.86c0.13,0.25,0.01,0.71-0.13,1
	C125.15,180.01,124.27,181.61,123.52,183.26z M130.56,172.03c0.4-0.62,0.79-1.23,1.14-1.77c1.48,1.95,2.92,3.86,4.43,5.85
	c-0.52,0.58-1.06,1.18-1.72,1.93C133.09,175.97,131.84,174.03,130.56,172.03z M134.11,180.29c1.12-1.63,2.28-3.23,3.55-5
	c0.65,0.74,0.95,1.08,1.15,1.31c-1.09,2.12-2.14,4.15-3.24,6.26c-0.41-0.54-0.91-1.16-1.35-1.82
	C134.09,180.85,134.01,180.45,134.11,180.29z M141.36,173.92c-0.09-0.1-0.3-0.22-0.31-0.36c-0.04-0.35-0.12-0.92,0.05-1.03
	c0.74-0.48,1.56-0.82,2.35-1.21c0.19,0.41,0.49,0.81,0.54,1.23c0.22,2.04,0.38,4.1,0.55,6.15c0.04,0.46,0.01,0.93,0.01,1.4
	c-0.15,0.08-0.29,0.17-0.44,0.25c-1.08-0.85-2.24-1.63-3.22-2.59c-0.98-0.95-1.81-2.06-2.64-3.15c-1.23-1.61-1.13-1.93,0.71-3.05
	c0.99,1.44,1.92,2.79,2.85,4.14c0.18-0.06,0.35-0.13,0.53-0.19c0.11-0.66,0.22-1.32,0.37-2.24
	C142.1,173.56,141.76,173.73,141.36,173.92z M135.12,169.35c-1.24-2.74-2.41-5.33-3.68-8.14c-1.2,0.93-2.13,1.64-3.18,2.45
	c-0.44-0.51-0.89-1.05-1.53-1.8c1.55-1.03,2.96-2.08,4.49-2.93c0.35-0.2,1.32,0.11,1.58,0.48c0.72,1.04,1.23,2.22,1.78,3.36
	c0.79,1.61,1.54,3.24,2.37,5C136.47,168.2,135.87,168.72,135.12,169.35z M111.08,128.62c1.95,7.17,5.61,13.28,11.26,18.14
	c1.1,0.95,2.35,1.74,3.7,2.73c-1.7,1.8-3.34,3.6-5.09,5.3c-0.16,0.16-0.95-0.34-1.24-0.45c0.3-0.86,0.49-1.41,0.68-1.96
	c0-0.01,0.01-0.01,0.01-0.02c-0.35-0.19-0.77-0.3-1.03-0.56c-3.76-3.82-8.24-6.66-12.77-9.43c-2.16-1.32-4.36-1.31-6.6,0.16
	c2.31,0.89,4.53,1.75,6.82,2.63c-0.42,1.24-0.99,1.75-2.18,1.4c-3.41-1.02-6.82-2.01-10.42-3.06c0.11-0.55,0.24-1.2,0.41-2.06
	c1.56,0.36,3.04,0.7,4.52,1.03c0.04-0.1,0.07-0.19,0.11-0.29c-0.27-0.25-0.54-0.49-0.88-0.8c1.49-1.47,3.23-2.28,5.22-1.87
	c1.75,0.36,3.42,1.1,5.12,1.67c0.12-0.08,0.24-0.16,0.35-0.23c-1.24-2.35-2.18-4.94-3.82-6.97c-1.44-1.77-3.65-2.92-5.54-4.32
	c-0.74-0.55-1.22-0.2-1.66,0.48c-1.75,2.71-3.15,5.56-3.79,8.75c-0.36,1.79-0.71,3.58-1.08,5.44c-0.93-0.1-1.91-0.2-3.01-0.32
	c0.4-7.87,4.78-13.64,9.65-19.41c1.23,1.14,2.39,2.11,3.42,3.18c3.45,3.6,6.39,7.52,7.54,12.5c0.16,0.71,0.62,1.54-1.01,1.78
	c0.83,0.55,1.39,0.89,1.92,1.28c2.91,2.13,5.8,4.3,8.75,6.39c0.71,0.51,0.8,1.1,0.77,1.83v0.01c1.41-1.38,1.42-1.56,0.03-2.94
	c-1.88-1.87-4.05-3.52-5.61-5.63c-1.82-2.48-3.12-5.34-4.62-8.05c-0.33-0.6-0.57-1.25-1.25-2.19c-0.2,0.36-0.41,0.72-0.68,1.21
	c-0.64-0.84-1.25-1.65-1.8-2.38c1-1.53,1.95-3,3.11-4.77C110.68,127.61,110.94,128.09,111.08,128.62z M99.99,135.88
	c1.47-0.45,2.9-0.88,4.6-1.4c0.26,0.36,0.66,0.9,1.31,1.79c-2.85,1-5.47,1.97-8.13,2.83c-0.9,0.29-1.49-0.1-1.04-1.16
	c0.6-1.43,1.14-2.9,1.91-4.23c1.25-2.16,2.33-2.1,3.75,0.19C101.08,133.76,99.53,133.35,99.99,135.88z M109.78,122.8
	c0.43,2.01-0.72,3.11-1.87,4.44c-0.29-2.12-0.63-4.23-0.86-6.35c-0.56-5-1.18-9.99-1.53-15c-0.13-1.9,0.41-3.84,0.64-5.76
	c0.11,0.02,0.22,0.04,0.33,0.05c0.39,3.45,0.68,6.91,1.18,10.34C108.27,114.62,108.92,118.74,109.78,122.8z M106.49,71.12
	c-0.78-3.04-0.1-5.69,1.21-8.21c0.17,0.04,0.34,0.07,0.5,0.11c-0.48,2.46-0.97,4.92-1.46,7.38C106.7,70.61,106.6,70.82,106.49,71.12
	z M108.2,52.83c-2.37,1.08-2.46,1.09-2.68-1.46c-0.26-3.01-0.34-6.03-0.54-9.05c-0.09-1.37-0.23-2.74-0.45-4.09
	c-0.05-0.33-0.48-0.75-0.81-0.85C100,36.28,95.14,36.39,91.4,38c0.42-0.56,0.72-1.28,1.27-1.64c0.74-0.49,1.65-0.9,2.52-1
	c3.38-0.37,6.76-0.36,10.05,0.61c0.38,0.11,0.75,0.93,0.79,1.45c0.31,4.1,0.53,8.21,0.8,12.31c0.03,0.45,0.13,0.89,0.24,1.66
	c0.83-0.56,1.46-0.97,2.09-1.39c1.22,2.29-0.09,5.87-3.07,8.03C105.38,55.74,108.48,54.97,108.2,52.83z M98.28,50.19
	c-0.45,0-0.9-0.04-1.34,0.01c-0.42,0.05-0.83,0.2-1.35,0.34c0.56-1.17,3.82-2.99,4.86-2.72c0.26,0.07,0.58,0.66,0.54,0.96
	c-0.24,1.73-1.32,2.93-2.83,3.63c-2.23,1.02-4.54,1.86-6.82,2.8c-0.75,0.31-1.49,0.67-2.11,0.95c-1.99-0.7-4.01-1.26-5.89-2.13
	c-1.75-0.82-3.46-1.85-4.96-3.06c-0.74-0.6-0.97-1.84-1.45-2.85c2.08-0.52,4.94,0.87,5.62,2.47c-1-0.26-2.03-0.53-3.05-0.8
	c-0.09,0.15-0.17,0.3-0.26,0.44c0.59,0.46,1.12,1.12,1.79,1.33c1.75,0.54,3.55,0.9,5.34,1.28c0.93,0.19,1.52-0.21,1.54-1.23
	c0.08-4.58,0.19-9.17,0.19-13.75c0-0.66-0.36-1.53-0.85-1.95c-2.4-2.04-2.93-4.73-2.92-7.66c0.01-4.06,1.86-7.25,4.79-10.11
	c2.28,2.51,4.08,5.18,4.57,8.58c0.36,2.55,0.28,5.03-1.05,7.34c-0.2,0.35-0.39,0.78-0.7,0.99c-1.56,1.06-1.89,2.55-1.82,4.32
	c0.13,4.03,0.17,8.07,0.23,12.1c0.02,1.17,0.53,1.55,1.66,1.21c2.12-0.65,4.26-1.27,6.39-1.9C98.34,50.58,98.31,50.39,98.28,50.19z
	 M72.42,54.12c-0.89-0.53-1.45-0.86-2.12-1.26c-0.86,2.32,2.26,3.18,1.81,5.25c-2.83-1.21-4-4.51-3.01-8.7
	c0.68,0.47,1.32,0.91,2.2,1.52c0.19-2.39,0.38-4.55,0.53-6.72c0.16-2.41,0.25-4.83,0.44-7.25c0.02-0.3,0.51-0.79,0.81-0.81
	c3.18-0.28,6.38-0.52,9.57-0.68c1.8-0.08,3.08,0.82,3.96,2.65c-4.48-1.68-8.83-1.63-13.33-0.39C73.53,43.08,72.97,48.44,72.42,54.12
	z M72.73,34.61c3.38-1.55,6.76-3.1,10.3-4.73c0.32,1.06,0.7,2.31,1.11,3.68c-3.81,0.46-7.53,0.9-11.25,1.35
	C72.83,34.81,72.78,34.71,72.73,34.61z M94.25,33.81c0.42-1.44,0.8-2.73,1.12-3.82c3.33,1.46,6.62,2.9,9.91,4.34
	c-0.01,0.07-0.03,0.14-0.04,0.22C101.64,34.31,98.04,34.07,94.25,33.81z M110.06,47.91c-0.21-3.89-0.42-7.78-0.64-11.67
	c1.38-0.37,1.98,0.18,2.07,1.25c0.24,2.91,0.52,5.82,0.54,8.73c0.01,0.64-1,1.28-1.54,1.92C110.35,48.06,110.2,47.99,110.06,47.91z
	 M121.09,49.07c-3.79,1.77-7.23,3.96-9.2,7.86c-0.12,0.24-0.28,0.47-0.43,0.7c-0.05,0.07-0.14,0.1-0.33,0.22
	c-1.04-2.6-0.16-4.07,2.43-6.24c1.35-1.13,2.96-1.97,4.51-2.83c1.97-1.09,3.99-2.09,4.92-4.49C123.72,46.54,123,48.18,121.09,49.07z
	 M119.41,30.96c0.27,2.53-0.8,4.2-3.1,4.92c-0.6-0.95-1.07-1.84-1.67-2.61c-0.75-0.97-0.33-3.57,0.78-4.07
	c1.25-0.56,2.47-1.31,4.43-1.17c-1.06,1.52-1.9,2.72-3.01,4.29C117.93,31.74,118.68,31.34,119.41,30.96z M118.19,36.22
	c0.19,3.33-0.27,4.46-2.26,5.16C116.59,39.54,115.2,37.09,118.19,36.22z M119.18,37.98c0.11-0.31,0.86-0.4,1.3-0.61
	c0.78-0.35,1.55-0.7,2.33-1.06c0.71,1.8,0.08,3.69-1.39,4.43c-1.02,0.51-2.03,1.03-3.39,1.73
	C118.45,40.75,118.72,39.33,119.18,37.98z M122.22,42.16c-0.03,2.47-2.55,4.64-5.14,4.68C117.69,44.23,118.98,42.17,122.22,42.16z
	 M122.34,35.32c-1.04,0.54-2.08,1.09-3.24,1.69c-0.24-2.69,2.01-5.76,5.05-5.56C124.48,33.3,123.91,34.5,122.34,35.32z
	 M120.44,31.31c-0.31-3.37,0.91-4.73,4.17-4.7C125.14,29.17,124.16,30.29,120.44,31.31z M121.27,22.88c1.06-0.28,2.09-0.66,3.15-0.9
	c0.97-0.22,1.3,0.21,0.93,1.15c-0.47,1.2-1.17,2.13-2.5,2.52c-2.58,0.75-5.14,1.59-7.72,2.34c-1.18,0.34-1.85,0.89-1.86,2.26
	c-0.01,1.49-0.17,2.74,1.08,4.1c0.89,0.97,0.86,2.88,1.04,4.39c0.15,1.25,0.03,2.54,0.03,3.9c0.61-0.14,1.22-0.27,1.83-0.41
	c0.32,2.6-1.29,5.59-3.48,6.13c0-1.63,0.12-3.22-0.03-4.78c-0.21-2.13-0.59-4.25-0.96-6.36c-0.27-1.52-1.21-2.4-2.56-2.45
	c0-2.83-0.03-5.53,0.04-8.22c0.01-0.34,0.46-0.88,0.8-0.98C114.45,24.63,117.87,23.77,121.27,22.88z M115.71,22.83
	c-2.6,1.87-9.37,0.45-12.23-2.54C107.54,21.14,111.63,21.98,115.71,22.83z M87.92,15.31c0.54-0.22,1.3-0.23,1.85-0.04
	c2.41,0.84,4.77,1.87,7.19,2.69c6.54,2.22,10.2,6.84,10.96,13.58c0.62,5.5,0.83,11.04,1.15,16.57c0.03,0.44-0.48,0.92-0.74,1.38
	c-0.14-0.04-0.29-0.08-0.43-0.11c-0.15-1.85-0.29-3.71-0.44-5.56c-0.36-4.29-0.52-8.6-1.14-12.85c-0.49-3.36-1.86-6.4-5.06-8.26
	c-1.25-0.72-2.47-1.15-4.26-0.83c0.71,0.43,1.16,0.76,1.65,0.98c2.35,1.04,4.57,2.32,5.6,4.78c0.48,1.13,0.31,2.53,0.44,3.8
	c-1.17-0.09-2.45,0.1-3.49-0.32c-2.87-1.15-5.22-2.99-6.31-6.05c-0.17-0.49-0.19-1.03-0.17-1.61c2.3,2.18,4.01,5.06,7.54,5.46
	c0.24-1.63-0.72-2.91-2.67-4.02c-1.54-0.87-3.03-1.86-4.45-2.93c-0.57-0.42-0.88-1.18-1.48-2.02H97c0.03-0.1,0.06-0.2,0.09-0.31
	c-1.23-0.46-2.45-0.92-3.83-1.44c-0.08,0.98-0.15,1.85-0.25,3.02c-1.37-1.77-2.55-3.29-3.88-5.01c-1.25,1.49-2.48,2.95-3.88,4.63
	c-0.1-0.98-0.18-1.69-0.27-2.59c-0.94,0.38-1.86,0.75-3.08,1.23c0.99,0.34,1.68,0.58,2.53,0.88c-0.6,1.48-1.83,2.14-2.94,2.94
	c-1.64,1.19-3.7,1.85-4.78,3.75c-0.21,0.37-0.36,0.77-0.66,1.4c3.96,0.22,5.22-3.32,7.75-4.81c0.12,0.06,0.24,0.12,0.37,0.19
	c-0.75,1.32-1.36,2.77-2.3,3.94c-1.49,1.85-3.46,3.09-5.8,3.7c-0.22,0.06-0.44,0.15-0.66,0.19c-1.7,0.31-2.07-0.07-2.03-1.81
	c0.04-2.13,1.11-3.63,2.74-4.81c1.25-0.91,2.53-1.78,3.8-2.67c-0.03-0.18-0.07-0.35-0.1-0.53c-0.62,0.09-1.29,0.06-1.85,0.29
	c-2.78,1.17-4.92,3.23-5.36,6.16c-1.03,6.81-1.67,13.68-2.48,20.55c-1.09-0.04-1.17-0.21-1.09-1.49c0.18-2.97,0.3-5.95,0.42-8.93
	c0.16-4.19,0.8-8.31,2.19-12.25c1.01-2.88,3.17-4.97,5.84-6.3C80.89,18.2,84.41,16.78,87.92,15.31z M75.52,19.92
	c-1.66,2.6-9.41,4.63-11.73,3C67.77,21.91,71.64,20.92,75.52,19.92z M52.68,21.98c4.99,1.23,9.95,2.46,15.14,3.74v9.42
	c-2.32,0.37-2.34,2.41-2.45,4.19c-0.16,2.55-0.05,5.12-0.06,7.69c0,0.58,0,1.16,0,1.76c-2.88-0.44-4.6-3.35-4-7.05
	c0.76,0.58,1.37,1.04,1.85,1.41c0-1.67-0.15-3.62,0.05-5.54c0.15-1.51,0.88-2.95,1.05-4.46c0.17-1.46,0.01-2.96-0.14-4.43
	c-0.02-0.22-0.75-0.41-1.17-0.54c-2.88-0.88-5.79-1.67-8.63-2.65C52.58,24.9,52.32,24.18,52.68,21.98z M58.83,28.44
	c1.24,0.32,2.52,0.59,3.75,0.99c0.7,0.22,1.18,2.41,0.81,3.18c-0.56,1.17-1.1,2.36-1.67,3.59c-2.01-0.23-2.91-1.36-2.96-3.98
	c0.46,0.19,0.9,0.38,1.34,0.56C59.4,31.4,58.1,30.37,58.83,28.44z M62.04,37.12c0.12,1.4,0.24,2.8,0.36,4.34
	c-2.44-1.22-2.82-1.82-3.08-4.76C60.21,36.84,61.06,36.97,62.04,37.12z M53.48,27.01c1.48,0.47,2.82,0.9,4.1,1.32
	c0.08,1.16,0.16,2.26,0.24,3.38C54.56,31.11,53.14,29.93,53.48,27.01z M53.93,31.64c1.3,0.42,2.6,0.63,3.64,1.26
	c0.53,0.32,0.66,1.39,0.84,2.16c0.1,0.42-0.05,0.89-0.09,1.35C54.82,35.64,53.54,34.34,53.93,31.64z M54.43,37.77
	c-0.12-0.89-0.03-1.32,0.88-1.05c1.43,0.42,3.27,0.27,3.46,2.55c0.05,0.59,0.9,1.1,1.31,1.7c0.22,0.33,0.27,0.77,0.4,1.16
	c-0.14,0.04-0.27,0.08-0.41,0.13c-0.92-0.38-1.86-0.73-2.76-1.15C55.86,40.43,54.68,39.56,54.43,37.77z M61.16,47.27
	c-2.25-0.8-4.62-1.28-5.41-3.95c-0.12-0.39-0.12-1.05,0.11-1.23c0.25-0.2,0.86-0.1,1.26,0.03c0.98,0.34,1.92,0.77,2.87,1.16
	C60.35,44.52,60.74,45.82,61.16,47.27z M66.95,56.49c-2.47-3.74-6.32-5.3-9.97-7.15c-1.56-0.79-2.12-2.07-1.72-4.14
	c2.18,2.74,5.43,3.66,8.18,5.37c0.69,0.44,1.4,0.87,2.04,1.37C66.85,53.03,67.73,54.33,66.95,56.49z M68.29,45.92
	c-0.03,0.54-0.13,1.09-0.21,1.73c-1.11-0.38-1.89-0.98-1.86-2.14c0.07-2.51,0.18-5.02,0.33-7.53c0.04-0.7,0.32-1.55,1.21-1.23
	c0.44,0.16,0.93,0.98,0.92,1.49C68.64,40.8,68.45,43.36,68.29,45.92z M68.88,59.7c-0.41-0.55-0.06-1.67-0.06-2.63
	c1.52,1.39,2.91,2.67,4.65,4.26c0.33-3.58,0.71-6.74,0.89-9.92c0.21-3.66,0.23-7.33,0.34-10.99c0.05-1.81,0.39-2.41,2.16-2.23
	c2.85,0.28,5.66,0.93,8.47,1.5c0.35,0.07,0.8,0.65,0.84,1.02c0.24,2.59,0.42,5.18,0.54,7.78c0.03,0.72-0.23,1.44-0.59,2.31
	c-2.17-3.83-6.46-3.06-9.81-5.1c0,1.87-0.07,3.49,0.04,5.1c0.03,0.45,0.51,0.99,0.93,1.28c3.43,2.36,7.25,3.98,11.25,4.94
	c1.35,0.33,3.09-0.28,4.48-0.86c2.73-1.15,5.36-2.53,7.96-3.95c0.51-0.28,0.93-1.11,0.99-1.73c0.14-1.44,0.04-2.91,0.04-4.85
	c-3.37,2.1-7.46,1.66-9.69,5.15c-0.13-0.04-0.26-0.07-0.39-0.11c-0.13-0.81-0.39-1.62-0.36-2.41c0.11-2.51,0.29-5.02,0.53-7.53
	c0.04-0.38,0.48-0.97,0.81-1.03c2.86-0.58,5.72-1.21,8.61-1.5c1.64-0.16,1.91,0.36,2,2.24c0.23,4.99,0.4,9.99,0.66,14.98
	c0.09,1.72,0.38,3.43,0.59,5.24c2.25-0.61,3.19-2.46,4.38-4.09c1.03,3.27-1.63,6.97-5.64,7.68c-0.49-3.43-0.98-6.85-1.49-10.42
	c-0.79,0.57-1.61,1.18-2.52,1.85c2.26,2.45,2.73,5.52,3.13,8.61c0.22,1.67,0.33,1.71,1.86,1.05c0.16-0.07,0.32-0.13,0.6-0.25
	c0.24,2.61,0.31,5.16,0.74,7.66c0.99,5.83-0.04,11.3-2.57,16.57c-0.21,0.44-0.13,1.22,0.13,1.63c0.67,1.03,1.48,1.96,2.31,2.87
	c0.6,0.66,0.87,1.27,0.59,2.21c-1.34,4.59-2.6,9.2-3.91,13.8c-0.72,2.51-1.49,5.01-2.23,7.52c-0.15-0.05-0.25-0.06-0.31-0.11
	c-1.5-1.3-1.44-2.68-0.62-4.45c2.13-4.61,3.46-9.49,4.22-14.53c0.29-1.95,0.15-3.65-1.25-5.24c-1.08-1.23-1.8-2.75-2.74-4.11
	c-0.52-0.75-0.44-1.29,0.26-1.86c2.2-1.79,3.68-4.05,4.33-6.84c0.84-3.58,0.78-7.09-0.38-10.64c-0.61-1.87-1.89-2.79-3.2-3.6
	c-0.83,2.53-1.62,4.96-2.48,7.59c-1.34-1.04-2.02-1.74-1.53-3.24c0.49-1.5,0.52-3.15,0.77-4.83c0.16-0.03,0.45-0.08,1.1-0.2
	c-2.29-1.32-4.36-2.51-6.42-3.7c-0.06,0.09-0.12,0.18-0.17,0.27c0.31,2.05,0.32,4.06-0.92,5.94c-0.49-0.81-0.98-1.61-1.48-2.45
	c-1.99,2.79-3.96,5.49-5.85,8.24c-0.18,0.27-0.11,0.84,0.05,1.19c1.23,2.75,2.61,5.43,3.73,8.21c1.63,4.04,1.03,8.19,0.23,12.3
	c-0.33,1.68-0.99,3.3-1.59,5.24c-0.67-1.54-1.1-2.66-0.77-4.18c1.57-7.07,0.54-13.8-3.08-20.12c-1.33-2.32-2.76-4.67-3.53-7.2
	c-0.98-3.22-0.81-2.7,2.49-4.05c0.29,2.22,0.59,4.47,0.88,6.73c0.2,0.05,0.41,0.09,0.61,0.14c1.24-2.4,2.52-4.77,3.69-7.2
	c0.23-0.49,0-1.18,0.1-1.76c0.1-0.58,0.33-1.13,0.56-1.85c-0.24,0.05-0.73,0.03-1.08,0.24c-2.45,1.39-4.85,2.86-7.3,4.22
	c-2.37,1.32-4.21,3.05-4.37,5.9c-0.17,2.91-0.39,5.87-0.08,8.76c0.27,2.52,1.41,4.82,3.89,6.14c1.63,0.88,1.71,1.24,0.74,2.9
	c-0.88,1.5-1.75,3.04-2.87,4.35c-0.95,1.11-1.18,2.25-0.97,3.55c0.33,2.08,0.7,4.16,1.18,6.21c0.26,1.1-0.03,1.64-1.2,1.86
	c-0.92-2.99-1.83-5.95-2.75-8.91c-0.32-1.03-0.07-1.92,0.73-2.61c2.04-1.76,2.45-3.54,1.25-6.21c-2.32-5.14-2.39-10.64-1.44-16.17
	c0.33-1.92,0.41-3.89,0.61-5.91c0.29,0.09,0.54,0.16,0.79,0.25c1.07,0.39,1.63,0,1.85-1.1c0.43-2.15,0.87-4.3,1.4-6.42
	c0.22-0.86,0.68-1.66,1.1-2.64c-0.55-0.43-1.25-0.98-2.13-1.68c-0.43,3.73-0.83,7.23-1.26,11.01C72.28,63.34,70.39,61.69,68.88,59.7
	z M106.26,91.36c-1.75-1.28-1.85-2.57-0.58-4.77C105.88,88.17,106.05,89.6,106.26,91.36z M87.72,81.03c-0.2,0.05-0.4,0.1-0.6,0.15
	c-0.69-2.66-1.43-5.31-2.03-7.99c-0.1-0.45,0.29-1.08,0.58-1.55c0.4-0.65,0.91-1.22,1.58-2.08C88.26,73.56,88.62,77.27,87.72,81.03z
	 M82.43,64.12c0.71-0.48,1.48-0.88,2.3-1.35c0.87,1.55,0.47,3.27-1.06,5.05c-0.55-0.94-1.15-1.89-1.64-2.88
	C81.94,64.76,82.2,64.28,82.43,64.12z M72.07,91.3c0.08-1.54,0.15-2.82,0.23-4.23C73.92,88.17,73.83,90.03,72.07,91.3z M71.66,70.99
	c-0.56-2.82-1.07-5.38-1.58-7.99C71.87,64.17,72.84,68.63,71.66,70.99z M68.48,121.8c1.19-6.79,1.81-13.67,2.66-20.52
	c0.06-0.48,0.11-0.97,0.16-1.46c0.21,0,0.42-0.01,0.63-0.01c0.21,1.6,0.58,3.19,0.61,4.8c0.09,7.52-0.86,14.96-1.76,22.41
	c-0.01,0.12-0.1,0.22-0.25,0.54C69.35,125.7,68.02,124.42,68.48,121.8z M67.65,126.82c0.72,0.91,1.21,1.49,1.65,2.09
	c1,1.37,1.91,2.81,2.97,4.12c1.63,2,3.76,2.94,6.74,2.71c-0.5-0.85-0.72-1.76-1.24-1.98c-0.53-0.22-1.34,0.24-2.28,0.46
	c0.41-0.7,0.68-1.21,1-1.69c0.67-1,1.5-1.03,2.28-0.19c1.73,1.87,2.92,4.03,3.31,6.83c-5.24-0.89-10.16-2.06-13.7-6.72
	c-0.92,2.25-1.82,4.27-2.57,6.35c-1.1,3.09-3.13,5.45-5.61,7.48c-1.09,0.9-2.3,1.67-3.34,2.63c-0.76,0.71-1.34,1.62-2.12,2.58
	c-0.65-0.75-1.21-1.38-1.83-2.09C60.54,143.76,65.19,136.22,67.65,126.82z M37.58,156.74c4.61-1.22,8.74-3.48,12.77-5.96
	c1.72-1.06,1.71-1.07,3.19,0.79c-1.23,0.91-2.4,1.91-3.69,2.73c-2.24,1.43-4.57,2.71-6.81,4.14c-1.39,0.88-2.75,1.09-4.29,0.51
	c-1.15-0.43-2.35-0.74-3.52-1.11c-0.02-0.13-0.04-0.26-0.06-0.39C35.97,157.21,36.77,156.95,37.58,156.74z M19.77,204.94
	c-1.9-0.09-2.77-1.18-2.21-2.99c1.16-3.71,2.72-7.33,3.48-11.12c1.5-7.43,2.3-14.96,0.63-22.51c-0.26-1.16-0.68-2.27-1-3.42
	c-0.54-1.94-0.14-2.81,1.67-3.61c5.78-2.55,11.61-2.31,17.38-0.09c3.07,1.18,5.94,2.8,8.49,5.15c-0.66,0.99-1.28,1.94-1.91,2.89
	c-1.5-1.06-2.87-2.19-4.4-3.06c-4.71-2.68-9.73-3.59-15.06-2.26c-0.8,0.2-1.2,0.56-1.08,1.55c1.12,9.49,0.27,18.9-1.11,28.3
	c-0.11,0.77-0.01,1.57-0.01,2.65c7.43-2.01,13-6.02,17.46-11.71c1.78,2.41,1.59,3.89-0.29,5.89c-3.58,3.83-7.52,7.25-11.78,10.26
	C27,203.03,23.81,205.14,19.77,204.94z M56.43,214.73c-0.58,0.95-1.78,0.66-2.76,0.34c-7.41-2.36-14.83-4.71-22.23-7.11
	c-0.99-0.32-1.95-0.82-2.84-1.37c-1.29-0.8-1.21-1.31,0.02-2.19c3.12-2.24,6.33-4.38,9.27-6.84c4.17-3.49,8.07-7.3,11.02-12.02
	c0.95,1.35,0.97,2.46,0.01,3.81c-2.75,3.89-6.12,7.21-9.42,10.6c-0.82,0.85-1.49,1.84-2.19,2.79c-0.46,0.62-0.45,1.16,0.4,1.51
	c3.76,1.54,7.52,3.11,11.28,4.65c0.31,0.12,0.67,0.11,1.31,0.21c-0.62-2.34-1.15-4.44-1.72-6.53c-0.71-2.6-1.45-5.19-2.15-7.8
	c-0.31-1.17,0.57-2.39,2.1-3.1c1.09,3.7,2.03,7.47,3.32,11.11c1.16,3.27,2.72,6.39,4.06,9.59
	C56.22,213.15,56.73,214.24,56.43,214.73z M48.28,205.3c-2.77-0.91-5.57-1.83-8.37-2.75c-0.06-0.14-0.12-0.28-0.18-0.42
	c1.98-1.55,3.96-3.11,6.23-4.88c0.25,0.96,0.76,1.82,0.58,2.49c-0.18,0.66-1.08,1.11-1.78,1.77
	C46.21,202.6,48.48,202.73,48.28,205.3z M105.1,221.8c-3.06,1.96-6.43,3.45-9.68,5.11c-1.38,0.7-2.83,1.27-4.21,1.97
	c-1.22,0.61-2.42,0.49-3.58-0.02c-3.64-1.6-7.26-3.23-10.87-4.89c-4.97-2.28-9.62-5.1-13.99-8.37c-1.94-1.45-3.84-2.96-5.78-4.41
	c-1.97-1.48-2.05-3.87-3.03-5.82c0.1-0.12,0.2-0.24,0.31-0.36c1.23,0.69,2.48,1.35,3.68,2.09c4.82,2.99,9.51,6.21,14.48,8.94
	c4.96,2.72,10.18,5,15.34,7.35c0.77,0.35,1.97,0.34,2.76,0c3.89-1.71,7.81-3.4,11.52-5.46c6.16-3.42,12.15-7.14,18.24-10.71
	c1.09-0.64,2.28-1.13,3.42-1.69c0.05-0.06,0.1-0.11,0.14-0.17c-0.01,0.05-0.02,0.09-0.03,0.14c-0.01,0.05-0.02,0.09-0.03,0.14l0,0
	c-0.4,2.45-1.46,4.43-3.6,5.87C115.12,214.89,110.23,218.53,105.1,221.8z M149.71,206.68c-2.24,0.81-4.51,1.53-6.76,2.3
	c-5.75,1.96-11.51,3.93-17.26,5.89c-1.12,0.38-2.25,0.77-3.4,1.04c-0.43,0.1-1.03-0.03-1.38-0.29c-0.16-0.12,0-0.84,0.17-1.22
	c1.39-2.99,2.9-5.92,4.2-8.94c0.91-2.13,1.56-4.37,2.36-6.66c0.29,0.04,0.75,0.11,1.22,0.18c0.04-0.07,0.09-0.15,0.13-0.22
	c-1.11-0.99-2.22-1.99-3.37-3.02c-0.76,2.29-1.38,4.46-2.19,6.55c-0.78,1.99-2.67,2.84-4.39,3.82c-0.05,0.06-0.1,0.12-0.15,0.18
	c0.02-0.09,0.04-0.19,0.06-0.28c0.8-2.14,1.63-4.27,2.4-6.42c1.62-4.51,3.22-9.04,4.85-13.61c0.78,0.7,1.67,1.42,1.2,2.91
	c-0.49,1.54-0.82,3.12-1.14,4.34c0.98,0.66,1.86,1.14,2.6,1.78c2.54,2.17,5.04,4.39,7.54,6.61c0.32,0.29,0.56,0.67,0.99,1.18
	c-2.65,0.9-5.09,1.73-7.58,2.57c-0.08-2.24,1.69-2.77,3.62-3.64c-1.4-0.96-2.52-1.73-3.51-2.42c-0.06,0.93,0,1.61-0.16,2.24
	c-0.65,2.47-1.38,4.92-2.06,7.39c-0.08,0.29-0.08,0.61-0.14,1.07c4.52-2.07,8.89-4.08,13.56-6.22c-1.34-1.5-2.5-2.77-3.62-4.07
	c-1.07-1.25-2.04-2.59-3.16-3.8c-1.3-1.4-1.28-2.86-0.4-4.6c0.32,0.27,0.68,0.47,0.89,0.77c3.44,4.84,7.87,8.54,13.09,11.31
	c0.69,0.36,1.36,0.77,1.98,1.23c0.41,0.31,0.72,0.75,1.07,1.13C150.54,206.06,150.18,206.52,149.71,206.68z M158.13,205.18
	c-2.45,0.18-4.59-0.73-6.64-1.89c-6.06-3.43-11.12-8.04-15.51-13.41c-1.53-1.88-3.05-3.78-4.41-5.78c-1.36-1.99-1.24-2.3,0.63-4.47
	c1.25,1.71,2.44,3.33,3.61,4.96c3.73,5.23,8.6,9.06,14.35,11.83c0.12,0.06,0.25,0.1,0.38,0.15c2.66,1.06,3.04,0.7,2.83-2.16
	c-0.43-6.08-0.82-12.17-1.07-18.26c-0.14-3.47,0-6.95,0.1-10.43c0.03-1.02-0.37-1.52-1.24-1.85c-2.76-1.03-5.53-0.61-8.24,0.06
	c-2.06,0.51-4.05,1.32-6.19,2.03c-0.46-0.97-0.97-2.08-1.49-3.18c6.75-3.62,13.63-4.62,20.83-1.86c1.48,0.57,1.95,1.65,1.62,3.35
	c-0.64,3.27-1.6,6.53-1.83,9.83c-0.55,7.96-0.02,15.85,3,23.39c0.58,1.44,1.08,2.92,1.55,4.4
	C161.03,203.85,160.16,205.03,158.13,205.18z M123.83,205.35c-0.01,0.05-0.02,0.09-0.03,0.14c-0.01,0.05-0.02,0.09-0.03,0.14l0,0
	l-0.08-0.11C123.74,205.47,123.79,205.41,123.83,205.35z M119.03,206.1c-0.05,0.06-0.1,0.12-0.15,0.18
	c0.02-0.09,0.04-0.19,0.06-0.28C118.97,206.02,119,206.06,119.03,206.1z M84.85,46.68c-2.93-0.2-5.68-0.43-7.73-2.71
	c-0.46-0.51-0.76-3.14-0.35-3.64c0.12-0.15,0.39-0.29,0.57-0.26c1.84,0.27,3.69,0.51,5.51,0.89c1.42,0.3,1.93,1.44,2,2.78
	C84.89,44.68,84.85,45.62,84.85,46.68z M83.71,44.71c0.03-2.21-2.36-3.09-5.54-2.88C78.54,44.32,79.94,44.98,83.71,44.71z
	 M93.41,46.82c0-1.48-0.13-2.67,0.03-3.82c0.22-1.54,1.56-2.1,2.84-2.4c1.41-0.34,2.89-0.37,4.34-0.55
	c0.68-0.08,0.95,0.19,1.06,0.89c0.44,2.92-1.08,4.1-3.69,4.94C96.59,46.33,95.1,46.48,93.41,46.82z M100.12,41.78
	c-3.68-0.32-5.78,0.87-5.44,3.04C98.69,44.78,99.53,44.32,100.12,41.78z M95.36,58.05c1.45-0.43,4.27,2.61,4.61,5.15
	C98.3,61.33,96.85,59.71,95.36,58.05z M79.13,62.05c0.31-2.44,2.51-4.49,3.9-3.72C81.7,59.6,80.42,60.83,79.13,62.05z M81.02,57.09
	c-1.18,1.56-2.27,3-3.49,4.61C77.85,59.06,79.51,56.86,81.02,57.09z M100.52,61.14c-1.26-1.43-2.35-2.67-3.51-3.99
	C98.81,56.76,99.93,58.07,100.52,61.14z M93.03,59.55c1.21-0.59,3.97,1.22,4.77,3.19C96.29,61.73,94.78,60.72,93.03,59.55z
	 M81.63,61.37c1.2-1.78,2.36-2.45,3.64-1.74c-1.25,0.75-2.35,1.41-3.45,2.07C81.76,61.58,81.69,61.47,81.63,61.37z M91.89,61.56
	c-0.06,0.09-0.12,0.18-0.17,0.27c-0.05-0.09-0.1-0.17-0.15-0.26C91.67,61.56,91.78,61.56,91.89,61.56z M114.42,177.62
	c-0.16,2.15-0.31,3.66-0.38,5.17c-0.12,2.68-1.49,4.86-2.77,7.07c-3.2,5.57-7.84,9.56-13.87,11.66c-8.68,3.02-16.69,1.48-24.06-4.02
	c-6.22-4.63-9.39-10.94-9.75-18.43c-0.29-6.11,1.47-11.85,5.75-16.57c4.51-4.97,10.1-8.02,16.71-8.86
	c5.18-0.66,10.21,0.32,14.84,2.88c6.55,3.63,11.07,8.87,12.74,16.3C114.03,174.61,114.23,176.43,114.42,177.62z M77.42,173.93
	c-0.39,0.17-0.68,0.29-0.97,0.43c-0.16,0.08-0.3,0.2-0.45,0.3c-4.52,3.25-6.86,7.72-7.36,13.22c-0.33,3.62-0.35,3.62,3.11,4.36
	c0.13,0.03,0.27,0.04,0.41,0.07c5.54,1.24,10.78,0.26,15.57-2.61c4.12-2.46,7.22-5.97,9.32-10.33c0.34-0.7,0.19-1.19-0.5-1.42
	c-1-0.32-2.04-0.51-3.05-0.81c-0.89-0.27-1.35,0.14-1.77,0.86c-3.1,5.4-7.28,9.56-13.52,11.07c-1.98,0.48-4.1,0.39-6.21,0.56
	c0.17-4.97,2.4-8.42,5.85-11.25c0.34-0.28,0.62-0.93,0.54-1.34C78.2,176.04,77.79,175.06,77.42,173.93z M90.44,190.54
	c2.48,0.73,4.63,1.54,6.85,1.99c3.6,0.73,7.19,0.59,10.55-1.13c0.46-0.23,1.07-0.8,1.06-1.2c-0.02-3.8-0.6-7.6-2.78-10.74
	c-2.76-3.98-6.43-6.95-11.35-8.09c-3.34-0.77-6.66-1.26-10.05-0.53c-0.46,0.1-1.22,0.58-1.2,0.82c0.13,1.14,0.29,2.35,0.79,3.37
	c0.48,0.97,1.23-0.15,1.88-0.13c0.14,0,0.27-0.01,0.41-0.02c2.93-0.17,5.8,0,8.62,1c3.99,1.41,7.33,3.55,9.13,7.53
	c0.77,1.71,1.33,3.52,2.03,5.4c-4.6,1.2-8.37-0.42-12.19-1.86C93.07,188.03,91.92,189.13,90.44,190.54z M99.33,171.31
	c0.07-0.54,0.13-0.81,0.14-1.08c0.23-7.07-4.36-11.22-9.25-15.15c-0.38-0.31-1.33-0.37-1.72-0.11c-1.52,1-3.11,2-4.35,3.31
	c-4,4.24-6.31,9.16-5.35,15.18c0.6,3.77,1.88,7.25,4.5,10.11c0.25,0.28,1.04,0.46,1.28,0.28c0.99-0.75,1.86-1.66,2.78-2.51
	c-8.17-7.63-5.66-18.91,1.93-24.02c3.66,3.02,5.84,6.8,5.99,11.65c0.01,0.37,0.27,0.93,0.57,1.07
	C96.92,170.52,98.05,170.86,99.33,171.31z M106.82,163.16c-2.46-2.19-5.25-3.37-8.77-3.92c3.33,3.77,4.02,8.12,4.75,12.47
	c0.16,0.95,0.63,1.17,1.41,0.58c1.57-1.18,3.15-2.34,4.7-3.54c1.69-1.31,1.7-1.85,0-3.56c-1.32,0.96-2.66,1.93-3.96,2.87
	c-0.66-1.51-1.26-2.85-1.83-4.2c-0.37-0.88-0.15-1.34,0.9-1.15C104.94,162.87,105.88,163.01,106.82,163.16z M79.44,159.36
	c-2.62-0.08-5.96,1.8-8.45,4.31c1.45-0.27,2.89-0.54,4.62-0.87c-0.87,2.01-1.55,3.58-2.35,5.41c-1.58-1.29-3.01-2.45-4.44-3.62
	c-1.26,1.24-1.34,1.67-0.12,2.74c1.47,1.29,3.02,2.5,4.61,3.63c1.4,1,1.92,0.73,2.4-0.9c0.59-2.01,1.21-4.01,1.89-6
	C78.13,162.53,78.79,161.02,79.44,159.36z M68.07,174.07c-0.85,1.25-1.51,2.55-2.48,3.55c-1.32,1.36-1.28,2.76-0.65,4.52
	c2.68-2.93,5.27-5.75,8.05-8.78c-2.37-1.42-4.48-2.67-6.51-3.89C64.57,172.05,67.15,172.67,68.07,174.07z M112.62,182.15
	c0.12-0.72,0.25-1.3,0.32-1.9c0.27-2.11-1.15-3.42-2.45-4.66c-1.03-0.98-1.09-1.64-0.01-2.49c0.25-0.2,0.44-0.46,0.66-0.69
	c1.01-1.01,0.95-1.78-0.24-2.86c-2,1.63-4,3.26-6.21,5.05c1.55,1.26,3,2.3,4.27,3.51C110.24,179.34,111.34,180.73,112.62,182.15z
	 M91.16,201.39c0.81-0.1,1.43-0.16,2.05-0.25c1.09-0.17,1.71-0.6,1.49-1.92c-0.23-1.34-0.16-2.72-0.27-4.08
	c-0.03-0.34-0.14-0.82-0.38-0.96c-0.87-0.51-1.8-0.9-2.89-1.42C91.16,195.64,91.16,198.37,91.16,201.39z M87.21,192.41
	c-1.23,0.7-2.18,1.19-3.07,1.79c-0.28,0.19-0.51,0.65-0.53,1c-0.07,1.59-0.02,3.19-0.09,4.79c-0.07,1.65,1.3,1.08,2.06,1.32
	c0.87,0.27,1.24-0.38,1.28-1.16C86.98,197.68,87.08,195.22,87.21,192.41z M87.7,161.17c-2.16,1.44-2.35,3.36-2.67,5.18
	c-0.44,2.48,0.07,2.9,2.5,2.24c0.07-0.02,0.13-0.11,0.17-0.15C87.7,166.1,87.7,163.78,87.7,161.17z M92.99,168.95
	c0.86-1.89-0.36-5.97-2.22-7.2c0,2.34,0,4.55,0,6.73C91.59,168.65,92.26,168.79,92.99,168.95z M121.23,151.55
	c-0.29,0.28-0.58,0.56-0.86,0.84C120.66,152.11,120.95,151.83,121.23,151.55z M89.01,22.8c-0.98,2.39-1.96,4.77-2.94,7.16
	c-0.63-3.74,0.64-6.85,3.04-9.64c2.57,2.69,3.54,5.86,3.05,9.56c-0.92-2.37-1.84-4.73-2.75-7.1C89.27,22.79,89.14,22.8,89.01,22.8z
	 M89.42,26.16c0.49,1.62,1.08,3.21,1.46,4.85c0.52,2.28,0.29,2.65-1.69,3.9c-2.15-1.27-2.66-2.55-1.83-4.87
	c0.47-1.31,1.09-2.56,1.64-3.84C89.14,26.19,89.28,26.17,89.42,26.16z M88.96,33.68c1.96-1.7,1.43-3.13-0.06-4.86
	C88.38,30.42,87.3,32,88.96,33.68z"/>
</svg>
